<svg height="512pt" viewBox="0 0 512 512" width="512pt" xmlns="http://www.w3.org/2000/svg"><path d="m256 0c-65.855469 0-119.433594 53.578125-119.433594 119.433594 0 65.855468 53.578125 119.433594 119.433594 119.433594s119.433594-53.578126 119.433594-119.433594c0-65.855469-53.578125-119.433594-119.433594-119.433594zm0 0" fill="#eff6fe"/><path d="m375.433594 119.433594c0-65.855469-53.578125-119.433594-119.433594-119.433594v238.867188c65.855469 0 119.433594-53.578126 119.433594-119.433594zm0 0" fill="#d9e4ef"/><path d="m284.167969 78.300781-37.824219 50.429688-19.902344-19.902344c-14.046875-14.050781-35.230468 7.199219-21.214844 21.210937l32.132813 32.136719c7.164063 7.160157 17.746094 4.871094 22.609375-1.609375l48.199219-64.265625c11.898437-15.867187-12.082031-33.886719-24-18zm0 0" fill="#00d66a"/><path d="m55.167969 198.699219c30.417969 0 55.164062-24.746094 55.164062-55.167969 0-30.417969-24.746093-55.164062-55.164062-55.164062-30.421875 0-55.167969 24.746093-55.167969 55.164062 0 30.421875 24.746094 55.167969 55.167969 55.167969zm0 0" fill="#ffcfbe"/><path d="m191.734375 321.332031h-81.402344v-57.300781c0-30.46875-24.648437-55.164062-55.164062-55.164062-30.421875 0-55.167969 24.746093-55.167969 55.164062v80.335938c0 39.277343 31.953125 71.234374 71.234375 71.234374h57.296875v81.398438c0 8.285156 6.71875 15 15 15h48.203125c8.28125 0 15-6.714844 15-15v-160.667969c0-8.28125-6.714844-15-15-15zm0 0" fill="#ff7579"/><path d="m55.171875 88.371094v110.328125c30.417969 0 55.15625-24.75 55.15625-55.167969 0-30.421875-24.738281-55.160156-55.15625-55.160156zm0 0" fill="#f9bcaa"/><path d="m456.828125 198.699219c30.421875 0 55.167969-24.746094 55.167969-55.167969 0-30.417969-24.746094-55.164062-55.167969-55.164062-30.417969 0-55.164063 24.746093-55.164063 55.164062 0 30.421875 24.746094 55.167969 55.164063 55.167969zm0 0" fill="#f4ab97"/><path d="m456.832031 88.371094v110.328125c30.421875 0 55.160157-24.75 55.160157-55.167969 0-30.421875-24.738282-55.160156-55.160157-55.160156zm0 0" fill="#e79a85"/><path d="m191.730469 321.328125h-81.402344v-57.296875c0-30.472656-24.648437-55.160156-55.15625-55.160156v204.898437c5.15625 1.199219 10.539063 1.832031 16.058594 1.832031h57.300781v81.398438c0 8.28125 6.71875 15 15 15h48.199219c8.289062 0 15-6.71875 15-15v-160.671875c0-8.277344-6.710938-15-15-15zm0 0" fill="#fe4a60"/><path d="m305.265625 336.332031v160.667969c0 8.285156 6.71875 15 15 15h48.203125c8.28125 0 15-6.714844 15-15v-81.398438h57.296875c39.28125 0 71.234375-31.957031 71.234375-71.234374v-80.332032c0-30.421875-24.746094-55.167968-55.167969-55.167968-30.515625 0-55.164062 24.699218-55.164062 55.167968v57.300782h-81.402344c-8.285156-.003907-15 6.714843-15 14.996093zm0 0" fill="#3ab4fb"/><path d="m320.265625 273.132812h-128.53125c-8.285156 0-15 6.71875-15 15v208.867188c0 8.285156 6.714844 15 15 15h128.53125c8.285156 0 15-6.714844 15-15v-208.867188c0-8.28125-6.714844-15-15-15zm0 0" fill="#ffcc4b"/><path d="m320.269531 273.128906h-64.269531v238.871094h64.269531c8.28125 0 15-6.71875 15-15v-208.871094c0-8.277344-6.71875-15-15-15zm0 0" fill="#ffb826"/><path d="m512 344.367188v-80.335938c0-30.417969-24.746094-55.164062-55.167969-55.164062v204.882812c31.5625-7.308594 55.167969-35.632812 55.167969-69.382812zm0 0" fill="#1d9cfd"/><path d="m284.167969 78.300781-28.167969 37.554688v48.316406c1.53125-.964844 2.894531-2.175781 3.96875-3.605469l48.199219-64.265625c11.898437-15.867187-12.082031-33.886719-24-18zm0 0" fill="#00b85e"/></svg>