<?xml version="1.0" encoding="utf-8"?>
<!-- Generator: Adobe Illustrator 17.0.0, SVG Export Plug-In . SVG Version: 6.00 Build 0)  -->
<!DOCTYPE svg PUBLIC "-//W3C//DTD SVG 1.0//EN" "http://www.w3.org/TR/2001/REC-SVG-20010904/DTD/svg10.dtd">
<svg version="1.0" id="Layer_1" xmlns="http://www.w3.org/2000/svg" xmlns:xlink="http://www.w3.org/1999/xlink" x="0px" y="0px"
	 width="179px" height="58.25px" viewBox="0 0 179 58.25" enable-background="new 0 0 179 58.25" xml:space="preserve">
<g enable-background="new    ">
	<g>
		<path fill="#262261" d="M167.084,24.08c-19.829,6.584-29.263,17.574-26.981,23.135l0.165,0.314
			c1.519,2.595,1.578,2.697,2.646,4.089l1.466,1.747C138.872,45.796,149.716,32.157,167.084,24.08"/>
	</g>
</g>
<path fill="#E6E7E8" stroke="#00ADEE" stroke-miterlimit="10" d="M173.264,40.971c0,2.232-2.072,4.04-4.627,4.04H9.55
	c-2.555,0-4.627-1.809-4.627-4.04V7.483c0-2.232,2.072-4.04,4.627-4.04h159.086c2.555,0,4.627,1.809,4.627,4.04V40.971z"/>
<g>
	<defs>
		<path id="SVGID_1_" d="M79.81,41.326c-0.085-0.013-0.173-0.092-0.233-0.163c-0.45-0.537-1.042-0.649-1.701-0.608
			c-0.185,0.012-0.388-0.022-0.559-0.092c-0.623-0.256-1.235-0.535-1.957-0.852c0-0.183,0.016-0.469-0.003-0.754
			c-0.048-0.729-0.761-1.562-1.31-1.382c-0.815,0.268-1.003-0.28-1.285-0.756c-0.235-0.395-1.748-1.389-2.086-1.22
			c-0.488,0.245-0.703-0.019-0.982-0.284c-0.235-0.223-0.482-0.432-0.746-0.666c-0.145,0.159-0.275,0.302-0.399,0.438
			c-0.247-0.197-0.447-0.357-0.7-0.559c-0.644,0.569-1.251,1.106-1.805,1.594c-0.13-0.158-0.312-0.526-0.441-0.508
			c-0.405,0.055-0.79,0.255-1.266,0.429c0-0.316-0.062-0.662,0.011-0.976c0.27-1.165-0.054-1.61-1.267-1.664
			c-0.141-0.006-0.281-0.041-0.396-0.059c0.131-0.678,0.256-1.331,0.385-2.002c-0.941-0.068-1.707-0.204-1.872,0.912
			c-0.051,0.348-0.984,0.273-1.063-0.12c-0.133-0.663-0.135-1.354-0.176-2.033c-0.015-0.253-0.012-0.514,0.032-0.762
			c0.038-0.212,0.086-0.491,0.234-0.604c0.808-0.617,1.657-0.457,2.461,0.005c0.324-0.401,1.455-0.616,1.824-0.347
			c0.132,0.096,0.26,0.322,0.244,0.474c-0.067,0.665,0.444,0.879,0.943,1.189c0.023-0.627-0.064-1.234-0.152-1.841
			c-0.025-0.169-0.101-0.346-0.074-0.506c0.13-0.769,0.677-1.247,1.338-1.476c0.562-0.195,0.68-0.482,0.525-0.965
			c0.477-0.149,0.386-0.189,0.605-0.683c0.297-0.673,0.489-1.525,1.489-1.578c0.119-0.006,0.231-0.13,0.347-0.2
			c-0.07-0.034-0.14-0.068-0.209-0.102c0.078-0.301,0.059-0.746,0.252-0.873c0.471-0.311,1.039-0.474,1.634-0.725
			c-0.078,0.28-0.122,0.438-0.188,0.678c0.557-0.317,1.016-0.578,1.585-0.901c-1.103-0.394-1.657-0.801-0.231-1.342
			c-0.025-0.215-0.049-0.411-0.057-0.484c0.673-0.255,1.263-0.478,2.036-0.771c-0.519,0.778-0.941,1.41-1.393,2.087
			c0.502,0,1.054-0.091,1.095,0.015c0.272,0.705,0.776,0.375,1.46,0.452c-0.364-0.641-0.644-1.094-0.88-1.57
			c-0.091-0.185-0.105-0.418-0.114-0.631c-0.016-0.387,0.047-0.785-0.023-1.159c-0.036-0.194-0.256-0.415-0.448-0.504
			c-0.23-0.107-1.088-1.048-1.045-1.309c0.14-0.854-0.443-1.373-0.997-1.953c-0.026,0.206-0.053,0.411-0.079,0.618
			c-0.382,0-0.731,0-1.133,0c0-0.515,0-0.97,0-1.29c-0.373-0.188-0.633-0.357-0.917-0.453c-0.415-0.14-0.846-0.293-1.273-0.304
			c-0.18-0.005-0.499,0.32-0.53,0.529c-0.139,0.933-0.198,1.878-0.288,2.854c-0.224,0-0.461,0-0.808,0
			c0.211,0.251,0.34,0.404,0.366,0.435c-0.163,0.609-0.295,1.099-0.427,1.589c-0.254-0.39-0.371-0.77-0.44-1.159
			c-0.06-0.339-0.1-0.562-0.572-0.529c-0.37,0.025-0.776-0.144-1.13-0.306c-0.402-0.183-0.763-0.455-1.124-0.676
			c-0.144-0.286-0.294-0.583-0.485-0.961c0.224-0.276,0.466-0.635,0.769-0.933c0.618-0.611,1.507-1.081,1.837-1.811
			c0.325-0.719,0.864-0.79,1.312-0.805c1.154-0.037,0.657-0.938,0.848-1.446c0.068-0.18-0.209-0.489-0.34-0.762
			c0.769,0.288,1.8-0.013,2.502,0.905c0.326,0.427,0.34,0.814-0.132,1.047c-0.385,0.19-0.776,0.376-1.133,0.611
			c-0.151,0.099-0.223,0.317-0.331,0.481c0.179,0.1,0.368,0.301,0.534,0.283c0.713-0.077,1.235,0.25,1.76,0.662
			c0.446,0.35,0.945,0.632,1.544,1.025c-0.081-0.99,0.63-1.781-0.08-2.586c0.334,0.144,0.669,0.287,1.137,0.489
			c0.103-0.546,0.414-1.154,0.228-1.456c-0.258-0.419-0.888-0.608-1.368-0.901c0.389-0.803-0.067-1.497-1.066-1.558
			c-0.22-0.013-0.498-0.146-0.629-0.316c-0.353-0.457-0.767-0.516-1.287-0.392c-0.163,0.039-0.451-0.007-0.528-0.119
			c-0.378-0.549-0.774-0.396-1.2-0.102c-0.318-0.78-0.604-0.843-1.158-0.217c-0.202,0.228-0.419,0.511-0.463,0.794
			c-0.076,0.49-0.021,0.999-0.021,1.506c-0.41-0.404-0.78-0.825-1.213-1.164c-0.154-0.121-0.589-0.144-0.672-0.038
			c-0.147,0.189-0.257,0.647-0.148,0.754c0.518,0.511,0.232,0.92-0.066,1.52c-0.167-0.346-0.273-0.565-0.396-0.818
			c-0.428,0.19-0.855,0.53-1.278,0.525c-0.402-0.005-0.8-0.371-1.199-0.578c0.03-0.063,0.06-0.125,0.09-0.188
			c0.322,0.065,0.681,0.245,0.954,0.157c0.194-0.062,0.272-0.484,0.493-0.928c0.318-0.189,0.862-0.481,1.363-0.832
			c0.124-0.087,0.159-0.369,0.153-0.559c-0.007-0.235-0.098-0.468-0.161-0.737C62.9,5.492,61.658,5.171,60.818,6.21
			c-0.399-0.184-0.757-0.349-1.143-0.527c0.425-0.117,0.794-0.296,1.168-0.306c0.926-0.025,1.725-1.093,2.744-0.333
			c0.064,0.048,0.209,0.049,0.283,0.009c0.202-0.11,0.534-0.242,0.546-0.387c0.023-0.277-0.104-0.591-0.249-0.843
			c-0.039-0.067-0.383-0.001-0.565,0.065c-0.49,0.176-0.969,0.385-1.527,0.611c-0.021-0.288-0.011-0.502-0.055-0.704
			c-0.109-0.495-0.443-0.353-0.615-0.114c-0.123,0.17-0.045,0.485-0.059,0.802c-0.917-0.064-2.028-0.41-2.519,0.643
			c-0.704-0.098-1.275-0.118-1.813-0.264c-0.966-0.263-0.693,0.77-1.157,1.043c-0.775,0.457-0.098,0.968,0.013,1.549
			c0.468-0.159,0.906-0.308,1.419-0.483c-0.138,0.801,0.638,0.228,0.911,0.547c-0.178,0.091-0.33,0.169-0.616,0.315
			c0.599,0.31,1.078,0.558,1.556,0.806c0.448,0.064,0.907,0.14,1.29,0.352c0.157,0.087,0.151,0.467,0.201,0.647
			c-0.881-0.308-1.633-0.596-2.402-0.833c-0.603-0.186-1.273-0.215-1.822-0.493c-0.404-0.205-0.647-0.509-0.973,0.044
			c-0.053,0.09-0.25,0.096-0.342,0.128c-0.151-0.256-0.287-0.486-0.447-0.756c-0.634,0.53-1.21,0.912-1.969,0.514
			c-0.09-0.047-0.233,0.015-0.352,0.014c-0.521-0.001-1.049,0.045-1.561-0.023c-0.725-0.097-1.438-0.284-2.158-0.427
			c-0.579-0.115-1.159-0.228-1.741-0.326c-0.235-0.039-0.485-0.079-0.715-0.039c-0.585,0.102-1.165,0.234-1.741,0.38
			c-0.479,0.121-0.949,0.28-1.423,0.422c-0.012,0.102-0.025,0.204-0.037,0.307c0.506,0.297,1.013,0.594,1.579,0.927
			c-0.303,0.113-0.639,0.372-0.844,0.293c-1.158-0.449-1.901,0.587-2.808,0.583c0.433,0.436,0.829,0.836,1.275,1.285
			c0.478,0,1.115,0,1.753,0c-0.201,0.242-0.448,0.408-0.721,0.492c-0.681,0.21-1.389,0.34-2.055,0.585
			c-0.539,0.198-0.851,1.048-0.611,1.448c0.179,0.298,0.362,0.592,0.582,0.95c0.276,0.254,0.627,0.577,0.887,0.816
			c0.446-0.12,0.855-0.231,1.264-0.341c0.063,0.117,0.125,0.234,0.188,0.351c-0.804,0.692-1.599,1.395-2.417,2.071
			c-0.412,0.341-0.865,0.632-1.299,0.945c0.042,0.073,0.085,0.146,0.127,0.22c0.443-0.062,0.916-0.046,1.322-0.204
			c0.563-0.219,1.143-0.49,1.597-0.878c0.907-0.776,1.733-1.647,2.593-2.479c0.078,0.068,0.156,0.135,0.234,0.203
			c-0.173,0.315-0.347,0.63-0.52,0.945c0.038,0.064,0.077,0.127,0.115,0.191c0.734-0.308,1.54-0.518,2.165-0.975
			c0.246-0.179,0.088-0.911,0.116-1.424c0.762-0.468,1.46-0.344,2.066,0.444c0.164,0.214,0.473,0.319,0.719,0.467
			c0.567,0.34,0.967,0.787,1.005,1.487c0.005,0.095,0.089,0.187,0.187,0.381c0.132-0.303,0.217-0.498,0.303-0.696
			c0.093,0.643,0.201,1.255,0.265,1.871c0.081,0.775,0.199,1.557,0.166,2.33c-0.04,0.924-0.375,1.854-0.302,2.759
			c0.078,0.974-0.192,2.189,1.07,2.757c0.12,0.054,0.19,0.28,0.231,0.44c0.29,1.111,0.68,2.182,1.39,3.094
			c0.241,0.31,0.616,0.517,0.929,0.771c0.049-0.059,0.098-0.117,0.148-0.176c-0.106-0.4-0.213-0.8-0.363-1.364
			c0.361,0.403,0.577,0.687,0.837,0.923c0.408,0.371,0.626,0.762,0.666,1.36c0.034,0.505,0.275,1.197,0.657,1.436
			c0.821,0.515,1.702,1.079,2.791,0.881c0.158-0.029,0.449,0.066,0.504,0.185c0.285,0.613,0.814,0.805,1.402,0.957
			c0.174,0.045,0.33,0.191,0.473,0.316c0.59,0.516,1.142,1.082,1.773,1.541c0.204,0.149,0.608,0.023,1.019,0.023
			c0.53,0.718,0.36,1.632-0.138,2.397c-0.431,0.661-0.28,1.279-0.254,1.935c0.006,0.155,0.025,0.315,0.073,0.461
			c0.068,0.206,0.137,0.426,0.264,0.595c0.1,0.133,0.29,0.199,0.355,0.241c-0.202,0.307-0.54,0.588-0.504,0.809
			c0.118,0.72,0.555,1.25,1.297,1.413c-0.029,0.254-0.146,0.526-0.058,0.645c0.323,0.438,0.666,0.888,1.091,1.216
			c0.5,0.386,0.924,0.778,0.962,1.436c0.028,0.479-0.023,0.963,0.007,1.442c0.046,0.734,0.139,1.464,0.194,2.197
			c0.018,0.239,0.063,0.534-0.048,0.714c-0.496,0.801-0.472,1.683-0.574,2.569c-0.072,0.623,0.102,0.705,0.832,0.553
			c-0.267,0.42-0.415,0.659-0.569,0.894c-0.101,0.154-0.31,0.309-0.299,0.45c0.057,0.769,0.139,1.539,0.265,2.3
			c0.197,1.194,0.326,2.401,1.113,3.428c0.487,0.635,1.784,0.937,2.504,0.409c-0.175-0.108-0.335-0.203-0.492-0.303
			c-0.847-0.538-1.072-1.648-0.296-2.235c0.729-0.551,0.55-0.945,0.111-1.449c0.63-1.309,0.655-1.64,0.131-2.197
			c0.771,0.132,0.874-0.364,0.879-0.82c0.553-0.235,1.179-0.32,1.468-0.677c0.247-0.306,0.107-0.924,0.141-1.438
			c0.665,0.081,1.238-0.118,1.58-0.9c0.285-0.652,0.884-1.197,1.053-1.863c0.227-0.892,0.549-1.532,1.494-1.757
			c0.24-0.057,0.596-0.198,0.647-0.373c0.199-0.68,0.28-1.394,0.438-2.088c0.105-0.463,0.215-0.937,0.412-1.364
			c0.407-0.88,0.951-1.704,1.279-2.609c0.139-0.385-0.083-0.93-0.234-1.37C80.497,41.306,80.058,41.364,79.81,41.326z M62.079,6.453
			c0.342,0.103,0.624,0.187,0.905,0.272c0.021,0.063,0.042,0.126,0.063,0.189c-0.298,0.149-0.597,0.299-0.968,0.485
			C62.079,7.004,62.079,6.755,62.079,6.453z M84.095,7.734c0.003-0.081,0.006-0.161,0.009-0.241c0.298,0.021,0.646-0.05,0.884,0.08
			c0.791,0.434,0.841,0.446,1.032-0.252c0.005-0.019,0.017-0.037,0.036-0.078c0.136,0.013,0.28,0.026,0.538,0.051
			c-0.143-0.319-0.243-0.543-0.345-0.771c0.755-0.137,0.86-0.777,0.8-1.312c-0.117-1.048-0.182-1.039,0.85-1.162
			c0.058-0.007,0.109-0.072,0.313-0.215c-0.434-0.251-0.788-0.456-1.063-0.615c0.195-0.231,0.601-0.496,0.583-0.728
			c-0.056-0.733,0.489-0.774,0.914-0.944c0.188-0.075,0.437,0.018,0.647-0.024c0.131-0.026,0.241-0.162,0.36-0.249
			c-0.096-0.109-0.175-0.246-0.293-0.32c-0.262-0.163-0.534-0.325-0.822-0.43c-0.232-0.084-0.503-0.142-0.742-0.109
			c-0.384,0.053-0.756,0.19-1.133,0.292c-0.025-0.059-0.05-0.119-0.075-0.178c0.488-0.248,0.976-0.496,1.593-0.81
			c-0.313-0.238-0.481-0.464-0.683-0.501c-0.631-0.115-1.276-0.227-1.914-0.217c-1.646,0.028-3.291,0.11-4.936,0.197
			c-0.441,0.023-0.825,0.17-0.607,0.769c0.06,0.165,0.054,0.353,0.099,0.675c-2.329-0.668-4.313,0.128-6.239,1.175
			c0.166,0.107,0.333,0.215,0.501,0.322c-0.032,0.075-0.063,0.149-0.095,0.224c-0.839,0.268-1.677,0.536-2.516,0.804
			c0.013,0.113,0.027,0.225,0.04,0.338c0.772,0.04,1.544,0.079,2.316,0.119c-0.007,0.066-0.014,0.131-0.021,0.197
			c-0.604,0.053-1.208,0.106-1.812,0.16c-0.014,0.118-0.027,0.235-0.041,0.353c0.474,0.168,0.94,0.369,1.426,0.487
			c0.207,0.05,0.475-0.153,0.682-0.103c0.493,0.12,0.966,0.322,1.502,0.51c0.114,0.383,0.281,0.851,0.383,1.333
			c0.054,0.253-0.008,0.531-0.017,0.798c0.242-0.082,0.484-0.163,0.762-0.257c0.435,0.791-0.645,0.32-0.668,0.77
			c0.384,0.224,0.781,0.456,1.292,0.754c-0.31,0.201-0.572,0.282-0.682,0.459c-0.231,0.373-0.646,1.007-0.522,1.162
			c0.553,0.691,0.44,1.446,0.496,2.208c0.034,0.469,0.12,0.95,0.764,1.052c0.423,0.067,0.827,0.259,1.239,0.394
			c0.049,0.082,0.097,0.163,0.146,0.245c0.389-0.887,0.767-1.78,1.172-2.66c0.145-0.315,0.369-0.865,0.53-0.856
			c1.096,0.064,1.899-0.554,2.744-1.057c0.687-0.409,1.324-0.903,2.102-1.441C84.99,7.965,84.542,7.85,84.095,7.734z M86.397,0.122
			c-0.643,1.084-1.492,0.066-2.201,0.465c-0.009-0.095-0.017-0.189-0.026-0.284C84.912,0.242,85.655,0.182,86.397,0.122z
			 M144.539,49.981c0.295,0.91,0.267,1.879-0.226,2.62c-0.705,1.06-1.202,2.325-2.391,3.012c-0.06,0.035-0.138,0.058-0.206,0.055
			c-0.946-0.038-1.931,0.104-2.746-0.566c0.027-0.299,0.051-0.58,0.082-0.924c-0.753-0.002-1.277-0.278-1.579-0.982
			c-0.092-0.215-0.474-0.406-0.739-0.429c-0.766-0.067-1.524-0.018-2.143,0.569c-0.134,0.127-0.396,0.115-0.597,0.176
			c-0.447,0.134-0.885,0.317-1.341,0.396c-0.314,0.055-0.699,0.056-0.963-0.086c-0.168-0.09-0.207-0.481-0.242-0.745
			c-0.065-0.498-0.07-1.004-0.129-1.504c-0.086-0.729-0.221-1.453-0.276-2.184c-0.009-0.118,0.286-0.362,0.45-0.371
			c0.702-0.037,0.994-0.405,1.135-1.061c0.083-0.388,0.271-0.902,0.865-0.418c0.167-0.916,0.384-1.042,1.317-0.96
			c0.16,0.014,0.482-0.259,0.498-0.422c0.071-0.735,0.444-1.06,1.161-1.104c0.197-0.012,0.535-0.154,0.553-0.275
			c0.128-0.858,0.619-0.626,1.165-0.49c0.365,0.091,0.774-0.011,1.157,0.031c0.241,0.026,0.471,0.159,0.797,0.277
			c-0.876,0.699-0.877,0.744-0.071,1.213c0.263,0.153,0.552,0.262,0.829,0.392c0.099-0.359,0.237-0.712,0.289-1.078
			c0.062-0.433,0.05-0.877,0.22-1.356c0.772,0.653,0.88,1.641,1.339,2.427c0.455,0.778,0.659,1.704,1.01,2.665
			c0.022-0.002,0.219-0.017,0.472-0.037C144.333,49.212,144.417,49.603,144.539,49.981z M65.616,2.029
			c-0.316-0.588,0.327-0.761,0.518-1.12c0.046-0.087,0.497-0.067,0.67,0.045c0.326,0.21,0.584,0.524,0.871,0.794
			c0.054-0.05,0.107-0.099,0.161-0.149c-0.179-0.192-0.368-0.375-0.535-0.577c-0.322-0.39-0.215-0.762,0.276-0.837
			c1.505-0.231,2.99-0.545,4.548-0.298c0.859,0.137,1.77-0.081,2.658-0.092c0.311-0.004,0.624,0.134,1.005,0.223
			c-0.297,0.585-0.3,0.587-1.858,0.807c0.204,0.979-0.702,1.018-1.199,1.26c-0.726,0.354-1.475,0.501-1.771,1.454
			c-0.121,0.39-0.762,0.618-1.149,0.906c0.348,0.165,0.388,0.387-0.188,0.624c-0.261,0.108-0.436,0.418-0.696,0.533
			c-0.561,0.249-2.758-0.333-3.354-0.897c0.909-0.507,1.726,0.501,2.584-0.114c-0.561-0.082-1.121-0.165-1.705-0.251
			c-0.093-0.557,0.244-0.854,1.104-0.804c-0.139-0.148-0.239-0.255-0.396-0.422c0.369-0.27,0.73-0.534,1.121-0.82
			c-0.808-0.136-1.21,0.287-1.475,0.987c-0.268-0.083-0.533-0.165-0.645-0.199C65.941,2.655,65.783,2.339,65.616,2.029z
			 M140.493,42.63c0.167-0.619-0.352-1.014-1.004-1.359c-0.565-0.299-0.963-1-1.829-0.556c0.109-0.589,0.344-0.756,0.81-0.636
			c0.221,0.057,0.54,0.142,0.68,0.037c0.937-0.712,1.663-0.116,2.418,0.332c0.081,0.048,0.131,0.181,0.209,0.195
			c0.893,0.161,1.153,1.087,1.834,1.524c0.351,0.225,0.495,0.772,0.733,1.173c-0.045,0.067-0.091,0.134-0.136,0.201
			c-0.259-0.152-0.542-0.277-0.773-0.464c-0.33-0.267-0.588-0.62-0.977-0.034c-0.09,0.136-0.499,0.144-0.731,0.086
			C141.342,43.032,140.982,42.834,140.493,42.63z M95.395,1.698c-0.037-0.117,0.38-0.547,0.495-0.513
			c0.44,0.129,0.843,0.389,1.256,0.598c-0.006-0.086-0.022-0.298-0.041-0.565c0.474-0.075,0.926-0.274,0.934,0.51
			c0.001,0.132,0.309,0.344,0.499,0.375c0.686,0.109,1.193,0.488,1.597,1.004c0.183,0.234,0.257,0.551,0.378,0.823
			c-0.898,0.42-1.265-0.125-1.71-0.762c-0.058,0.321-0.081,0.496-0.122,0.667c-0.06,0.255-0.105,0.519-0.21,0.755
			c-0.054,0.12-0.269,0.292-0.335,0.264c-0.471-0.2-0.932-0.432-1.369-0.698c-0.051-0.031,0.02-0.363,0.111-0.506
			c0.139-0.216,0.346-0.389,0.524-0.581c-0.034-0.071-0.068-0.141-0.102-0.212c-0.368,0.177-0.735,0.353-1.227,0.589
			c-0.015-0.285-0.028-0.526-0.033-0.629C95.78,2.394,95.513,2.07,95.395,1.698z M133.143,37.138
			c0.375,0.223,1.137,0.28,0.543,1.133c-0.304,0.436-0.215,1.141-0.325,1.721c-0.077,0.406-0.14,0.827-0.307,1.198
			c-0.087,0.192-0.385,0.29-0.484,0.358c-0.789,0.023-2.326-1.312-2.287-1.932c0.017-0.266,0.237-0.582,0.458-0.761
			c0.404-0.327,0.884-0.559,1.318-0.852c0.13-0.088,0.277-0.234,0.305-0.376C132.457,37.162,132.675,36.859,133.143,37.138z
			 M109.734,44.109c0.823,2.063-0.145,3.794-0.518,5.582c-0.127,0.611-0.734,0.582-1.162,0.552
			c-0.203-0.014-0.402-0.458-0.548-0.736c-0.07-0.133-0.006-0.333-0.016-0.502c-0.042-0.77,0.537-1.452,0.287-2.277
			c-0.055-0.182,0.265-0.608,0.507-0.725c0.593-0.287,0.887-0.716,1.011-1.339C109.332,44.486,109.543,44.342,109.734,44.109z
			 M93.557,17.181c-0.117,0.384-0.27,0.883-0.424,1.384c-0.756,0.047-1.512,0.094-2.268,0.141c-0.012-0.041-0.024-0.082-0.035-0.123
			c0.204-0.137,0.408-0.275,0.622-0.418c-0.295-0.513-0.437-0.989,0.273-1.303c0.421-0.186,0.479-0.348-0.024-0.56
			c-0.411-0.173-0.539-0.545-0.412-1.005c0.096-0.344,0.13-0.705,0.208-1.155c0.305-0.074,0.668-0.161,1.181-0.285
			c-0.171,0.349-0.26,0.531-0.321,0.656C92.762,15.412,93.152,16.279,93.557,17.181z M136.231,26.531
			c0.379-0.064,0.646-0.109,0.821-0.139c-0.159-0.136-0.347-0.296-0.535-0.456c0.191-0.155,0.363-0.348,0.577-0.456
			c0.651-0.329,1.332-0.599,1.969-0.951c0.175-0.097,0.326-0.398,0.332-0.61c0.015-0.497-0.064-0.997-0.121-1.695
			c0.259,0.18,0.515,0.262,0.544,0.394c0.161,0.72,0.286,1.45,0.377,2.182c0.023,0.186-0.067,0.501-0.202,0.571
			c-0.66,0.342-1.368,0.592-2.028,0.933c-0.401,0.207-0.746,0.521-1.173,0.828C136.696,27.028,136.505,26.824,136.231,26.531z
			 M129.039,41.227c0.077,0.338-0.414,0.534-0.691,0.277c-0.498-0.461-1.293-0.73-1.088-1.682c0.032-0.151-0.221-0.46-0.409-0.545
			c-0.761-0.343-1.042-1.007-1.313-1.733c1.302-0.523,1.501,0.673,2.111,1.189c0.157,0.133,0.248,0.367,0.42,0.456
			C128.909,39.63,128.872,40.489,129.039,41.227z M108.396,7.351c0.589-2.552,2.538-3.137,4.866-3.467
			c-0.36,0.65-0.652,1.024-1.3,1.012c-0.27-0.005-0.556,0.197-0.814,0.341c-0.331,0.185-0.618,0.465-0.965,0.602
			c-0.797,0.314-0.937,0.677-0.436,1.362c0.152,0.208,0.336,0.392,0.508,0.59C109.612,8.271,109.013,8.086,108.396,7.351z
			 M87.302,11.742c-0.188,0.003-0.375,0.052-0.485,0.069c-0.3-0.234-0.549-0.428-0.876-0.683c0.02-0.107,0.056-0.305,0.095-0.514
			c-0.12-0.037-0.254-0.078-0.427-0.131c0.233-0.307,0.446-0.587,0.554-0.729c0.783,0.136,1.492,0.259,2.311,0.402
			c0.021,0.044,0.113,0.238,0.206,0.431c0.306,0.633-0.101,1.248-0.808,1.214C87.682,11.791,87.492,11.739,87.302,11.742z
			 M67.317,32.625c0.055-0.203,0.112-0.409,0.187-0.681c-0.762,0.079-1.424-0.081-2.043-0.67c-0.267-0.254-0.978-0.043-1.526-0.043
			c0.009-0.457,0.258-0.653,0.826-0.679c1.122-0.052,2.071,0.215,2.833,1.086c0.131,0.15,0.474,0.254,0.657,0.193
			c0.726-0.242,0.901,0.307,1.267,0.762c-0.458,0.117-0.799,0.266-1.143,0.273C68.057,32.872,67.736,32.727,67.317,32.625z
			 M150.081,55.729c0.206,0.379,0.507,0.69,0.496,0.989c-0.009,0.253-0.371,0.501-0.591,0.738c-0.381,0.408-0.783,0.796-1.156,1.21
			c-0.235,0.261-0.367,0.627-0.862,0.415c-0.203-0.087-0.491,0.025-0.793,0.051c0.287-0.63,0.509-1.187,1.183-1.588
			C148.993,57.164,149.427,56.443,150.081,55.729z M98.549,0.878c0.693-0.041,1.324-0.156,1.938-0.094
			c0.623,0.063,1.228,0.299,1.84,0.459c-0.207,0.612-1.05,0.932-2.039,0.762C99.335,1.84,98.54,1.303,98.549,0.878z M152.771,54.193
			c-0.929,0.525-0.861,1.844-1.918,2.225c0.204-0.536,0.257-0.967-0.278-1.045c0.208-0.694,0.403-1.349,0.629-2.105
			c0.234,0.296,0.397,0.647,0.671,0.802C152.09,54.191,152.443,54.071,152.771,54.193z M135.86,39.723
			c-0.435,0.119-0.666,0.182-0.917,0.25c0.186,0.391,0.378,0.794,0.57,1.198c-0.03,0.063-0.061,0.125-0.091,0.188
			c-0.283-0.123-0.566-0.247-0.89-0.388c-0.065,0.166-0.163,0.42-0.275,0.708c-0.942-0.813-0.624-1.876,0.248-2.671
			c0.195,0.089,0.41,0.178,0.616,0.284C135.303,39.385,135.477,39.498,135.86,39.723z M132.594,43.248
			c-0.658-0.144-1.313-0.299-1.974-0.427c-0.327-0.063-0.693-0.009-0.986-0.134c-0.225-0.096-0.533-0.418-0.506-0.594
			c0.057-0.373,0.365-0.367,0.735-0.249c0.674,0.214,1.391,0.289,2.067,0.497c0.298,0.092,0.54,0.368,0.808,0.56
			C132.69,43.016,132.642,43.132,132.594,43.248z M119.044,2.55c-0.065-0.047-0.129-0.093-0.194-0.14
			c0.109-0.245,0.152-0.586,0.34-0.716c0.634-0.438,1.748-0.167,2.419,0.608C120.732,2.917,119.848,2.287,119.044,2.55z
			 M139.616,21.924c-0.198,0.144-0.384,0.279-0.57,0.414c-0.064-0.019-0.127-0.038-0.191-0.056c0.084-0.534,0.161-1.068,0.261-1.599
			c0.009-0.048,0.176-0.118,0.243-0.095c0.525,0.176,1.044,0.372,1.525,0.548c-0.24,0.368-0.465,0.713-0.724,1.111
			C140.003,22.154,139.815,22.042,139.616,21.924z M135.964,33.976c0.461-0.014,1.222,0.735,1.436,1.353
			c-0.473,0.194-0.945,0.388-1.525,0.627c0-0.198,0-0.387,0-0.636c-0.231,0.041-0.442,0.078-0.653,0.116
			c-0.042-0.057-0.084-0.114-0.126-0.171c0.24-0.202,0.479-0.404,0.812-0.685C135.917,34.487,135.941,34.229,135.964,33.976z
			 M133.063,4.118c0.784,0.006,1.587-0.432,2.212,0.335c-0.346,0.661-0.832,1.002-1.601,0.566
			C133.34,4.829,132.837,4.759,133.063,4.118z M89.682,17.257c-0.125-0.777,0.414-1.233,1.314-1.115
			c0,0.387,0.119,0.799-0.033,1.041c-0.159,0.254-0.567,0.382-0.892,0.48C89.984,17.69,89.707,17.418,89.682,17.257z
			 M141.567,56.966c-0.165,0.236-0.434,0.458-0.704,0.539c-0.122,0.036-0.379-0.258-0.522-0.444
			c-0.166-0.217-0.275-0.479-0.459-0.814c0.621,0,1.15,0,1.743,0C141.611,56.525,141.678,56.807,141.567,56.966z M68.042,12.126
			c-0.185-0.039-0.369-0.089-0.556-0.113c-0.156-0.02-0.418-0.071-0.457-0.005c-0.378,0.643-0.704,0.111-1.085,0.024
			C67.061,10.718,67.061,10.718,68.042,12.126z M135.124,32.097c0.516,0.543,0.019,0.972-0.39,1.52
			c-0.283-0.501-1.196-0.636-0.569-1.351C134.341,32.065,134.993,31.959,135.124,32.097z M138.853,39.581
			c-0.484,0.09-0.968,0.18-1.452,0.27c-0.051-0.079-0.102-0.158-0.153-0.238c0.177-0.197,0.331-0.524,0.537-0.561
			c0.338-0.061,0.71,0.066,1.068,0.113C138.853,39.304,138.853,39.442,138.853,39.581z M133.29,30.022
			c0.332-0.104,0.616-0.192,0.9-0.281c0,0.464,0,0.927,0,1.391c-0.102,0.006-0.203,0.012-0.305,0.018
			C133.71,30.819,133.536,30.488,133.29,30.022z M149.116,12.384c-0.305-0.365-0.557-0.667-0.803-0.961
			c0.564-0.619,0.978-0.664,1.424-0.27c0.239,0.212,0.56,0.331,0.987,0.573c-0.054-0.653,0.038-1.133-0.155-1.424
			c-0.178-0.268-0.662-0.334-1.119-0.536c-0.029-0.056-0.093-0.403-0.271-0.478c-0.666-0.281-1.37-0.469-2.058-0.699
			c-0.198-0.066-0.396-0.142-0.581-0.238c-0.798-0.414-1.636-0.586-2.549-0.518c0,0.289,0,0.508,0,0.725
			c-0.331-0.18-0.62-0.453-0.93-0.478c-0.508-0.041-1.032,0.131-1.544,0.109c-0.238-0.01-0.55-0.21-0.684-0.418
			c-0.432-0.672-1.034-0.761-1.527-0.227c-0.868-0.312-1.855-0.431-2.509-0.962c-0.804-0.653-1.54-0.635-2.402-0.497
			c0,0.204,0,0.359,0,0.547c-1.266,0-2.502,0.002-3.737-0.003c-0.118,0-0.24-0.025-0.354-0.057
			c-0.826-0.233-1.645-0.498-2.479-0.699c-0.588-0.142-1.195-0.2-1.809-0.298c0.036-0.121,0.069-0.189,0.073-0.258
			c0.02-0.304,0.159-0.703,0.018-0.892c-0.266-0.357-0.51-0.841-1.211-0.588c-0.391,0.141-0.995,0.019-1.374-0.204
			c-0.777-0.456-0.803-0.501-1.127,0.317c-0.236,0.597-0.93,0.774-1.324,0.437c-0.657,0.178-1.276,0.278-1.835,0.518
			c-0.438,0.188-0.795,0.559-1.2,0.831c-0.186,0.125-0.398,0.213-0.602,0.31c-0.173,0.082-0.352,0.153-0.528,0.229
			c0.121,0.148,0.241,0.297,0.364,0.444c0.075,0.09,0.155,0.175,0.344,0.387c-0.551-0.208-0.955-0.36-1.36-0.513
			c-0.115,0.34-0.196,0.578-0.277,0.816c-0.052-0.009-0.104-0.018-0.155-0.027c-0.071-0.248-0.141-0.495-0.16-0.559
			c-0.384,0.019-0.752,0.148-0.889,0.024c-0.636-0.576-0.771-0.583-1.199,0.152c-0.568,0.976-1.139,1.186-2.248,0.868
			c-0.211-0.06-0.454-0.009-0.682-0.009c-0.007,0.063-0.013,0.125-0.019,0.188c0.172,0.133,0.344,0.265,0.515,0.398
			c-1.435-0.058-2.688,0.337-3.795,1.363c-0.049-0.448-0.077-0.706-0.108-0.988c-0.29,0-0.542,0-0.792,0
			c-0.076,1.087-0.241,1.317-0.909,1.277c-0.019-0.247,0.042-0.602-0.088-0.698c-0.438-0.322-0.948-0.545-1.433-0.803
			c-0.505-0.268-1.087-0.449-1.503-0.817c-0.716-0.634-1.496-0.773-2.291-0.262c-0.315,0.203-0.693,0.311-0.994,0.529
			c-0.654,0.474-1.49,0.871-1.858,1.522c-0.442,0.78-0.976,1.418-1.633,1.955c-0.803,0.656-1.247,1.253-0.862,2.423
			c0.23,0.698,0.205,1.295,1.018,1.182c-0.119,0.481-0.232,0.94-0.378,1.53c-0.07,0.023-0.332,0.074-0.56,0.192
			c-0.268,0.139-0.539,0.303-0.751,0.515c-0.378,0.379-0.713,0.799-1.065,1.203c-0.002,0-0.005,0-0.007,0
			c-0.001,0.003-0.002,0.006-0.003,0.01c-0.68,0.416-1.362,0.833-2.202,1.346c0.341,0.127,0.506,0.242,0.668,0.239
			c0.619-0.012,0.798,0.487,1.015,0.886c0.202,0.371-0.103,0.858-0.456,0.856c-0.673-0.005-1.346-0.001-2.141-0.001
			c0,1.053,0,1.977,0,2.83c0.497,0.137,0.84,0.31,1.18,0.306c0.521-0.006,1.117-0.004,1.536-0.252
			c0.332-0.196,0.6-0.753,0.623-1.165c0.042-0.755,0.602-1.085,0.996-1.556c0.075-0.089,0.257-0.117,0.392-0.122
			c0.405-0.015,0.81-0.006,1.127-0.006c0.033,0.59,0.073,1.327,0.116,2.106c1.171-0.294,0.222-1.139,0.584-1.52
			c0.473,0.279,0.923,0.525,1.349,0.807c0.141,0.093,0.321,0.295,0.301,0.418c-0.022,0.133-0.25,0.24-0.4,0.341
			c-0.086,0.058-0.195,0.081-0.403,0.164c0.309,0.218,0.525,0.371,0.741,0.523c-0.064-0.089-0.128-0.178-0.192-0.267
			c0.476-0.422,0.952-0.844,1.429-1.266c0.101,0.042,0.203,0.084,0.304,0.126c0.159,0.55,0.318,1.101,0.478,1.654
			c0.905,0.109,0.96,0.056,0.859-0.805c-0.02-0.168-0.068-0.368,0-0.501c0.086-0.168,0.277-0.282,0.423-0.419
			c-0.125,1.989,0.929,2.186,2.398,1.917c-0.011,0.205-0.022,0.397-0.041,0.746c0.255-0.148,0.429-0.202,0.528-0.319
			c0.112-0.133,0.158-0.323,0.233-0.488c0.078,0.027,0.156,0.053,0.235,0.08c-0.103,0.573-0.182,1.151-0.327,1.713
			c-0.032,0.125-0.31,0.284-0.456,0.266c-0.589-0.072-1.169-0.213-1.754-0.316c-0.98-0.173-2.069-0.793-2.597,0.615
			c-0.711-0.309-1.366-0.581-2.01-0.877c-0.591-0.272-0.903-0.727-0.833-1.401c0.016-0.158,0.024-0.316,0.041-0.537
			c-1.403,0.17-2.752,0.28-4.078,0.519c-0.519,0.093-0.978,0.535-1.523,0.076c-0.055-0.046-0.244-0.037-0.273,0.008
			c-0.397,0.624-1.287,0.84-1.353,1.757c-0.052,0.722-0.334,1.379-0.949,1.857c-0.24,0.186-0.464,0.439-0.596,0.71
			c-0.697,1.437-0.946,2.958-0.786,4.549c0.034,0.335-0.103,0.809,0.074,0.988c0.743,0.753,0.844,1.923,1.818,2.544
			c0.794,0.506,2.508,0.864,3.319,0.462c0.084-0.042,0.154-0.119,0.218-0.191c0.31-0.354,0.606-1.012,0.952-0.018
			c0.02,0.058,0.224,0.043,0.336,0.081c0.661,0.225,1.321,0.447,2.074-0.02c-0.027,0.72-0.152,1.338-0.259,1.96
			c-0.04,0.23-0.142,0.54-0.038,0.69c0.547,0.788,0.72,1.689,1.016,2.573c0.429,1.283,0.277,2.452-0.043,3.663
			c-0.123,0.465-0.077,0.816,0.265,1.188c0.279,0.304,0.582,0.7,0.628,1.084c0.179,1.483,0.685,2.862,1.194,4.245
			c0.182,0.495,0.44,0.866,1.072,0.544c0.446-0.228,0.903-0.501,1.384-0.58c1.587-0.261,1.912-1.716,2.687-2.738
			c0.217-0.286,0.231-0.878,0.471-0.965c0.611-0.222,0.603-0.689,0.642-1.133c0.073-0.841,0.332-1.532,1.126-1.96
			c0.192-0.103,0.415-0.347,0.433-0.544c0.097-1.05,0.288-2.127,0.15-3.155c-0.163-1.213,0.304-2.188,1.03-2.902
			c1.152-1.134,1.967-2.435,2.61-3.87c0.135-0.301,0.012-0.717,0.007-1.08c-0.327,0.037-0.681,0.007-0.975,0.125
			c-0.868,0.347-1.486,0.147-1.925-0.668c-0.135-0.25-0.287-0.526-0.506-0.689c-0.682-0.507-0.832-1.29-1.135-1.998
			c-0.1-0.232-0.172-0.516-0.349-0.667c-0.464-0.397-0.544-0.857-0.384-1.495c0.353,0.609,0.668,1.149,0.981,1.691
			c0.542,0.938,1.381,1.702,1.572,2.854c0.047,0.281,0.425,0.507,0.583,0.682c0.562-0.227,0.995-0.353,1.379-0.567
			c0.904-0.505,1.83-0.992,2.658-1.607c0.429-0.318,0.712-0.871,0.956-1.37c0.056-0.116-0.337-0.43-0.488-0.675
			c-0.11-0.179-0.168-0.392-0.231-0.596c-0.012-0.037,0.064-0.102,0.134-0.203c0.147,0.196,0.266,0.355,0.386,0.514
			c0.013-0.058,0.027-0.117,0.04-0.175c0.777,0,1.564-0.071,2.328,0.03c0.381,0.051,0.719,0.417,1.077,0.641
			c-0.382,0.43,0.106,0.476,0.288,0.661c0.159,0.161,0.355,0.309,0.451,0.504c0.483,0.983,0.945,1.978,1.402,2.974
			c0.134,0.292,0.205,0.614,0.349,0.9c0.132,0.261,0.275,0.631,0.498,0.708c0.411,0.141,0.526-0.208,0.718-0.571
			c0.423-0.799,0.111-1.827,0.93-2.508c0.588-0.49,0.981-1.208,1.543-1.737c0.295-0.277,0.758-0.45,1.164-0.495
			c0.137-0.015,0.315,0.523,0.51,0.781c0.125,0.165,0.316,0.281,0.475,0.417c-0.256,0.751-0.256,0.751,0.982,1.09
			c0.25,0.536,0.468,0.954,0.638,1.39c0.079,0.203,0.057,0.444,0.092,0.666c0.089,0.564,0.012,1.256,0.315,1.662
			c0.527,0.706,1.291,1.236,1.956,1.84c0.086-0.061,0.173-0.122,0.259-0.184c-0.414-0.732-0.735-1.543-1.268-2.175
			c-0.576-0.682-0.789-1.147-0.447-1.978c0.53,0.487,1.063,0.975,1.62,1.486c0.875-0.316,1.368-1.003,1.372-1.979
			c0.002-0.412,0.009-0.824,0.014-1.236l0,0c0.014-0.316,0.029-0.632,0.043-0.949c0.208-0.197,0.426-0.57,0.622-0.559
			c0.803,0.046,1.247-0.326,1.586-0.997c0.225-0.444,0.551-0.839,0.842-1.248c0.734-1.029,0.668-2.333-0.111-3.346
			c-0.143-0.186-0.171-0.588-0.07-0.806c0.19-0.408,0.758-0.684,0.335-1.262c-0.009-0.012,0.156-0.15,0.315-0.302
			c0.33,0.463,0.781,0.85,0.889,1.317c0.111,0.482,0.309,0.859,0.714,0.82c0.467-0.044,0.561-0.535,0.493-0.981
			c-0.017-0.116-0.08-0.224-0.112-0.338c-0.288-1.018,0.073-1.842,1.01-2.362c0.163-0.09,0.332-0.235,0.412-0.398
			c0.509-1.04,1.342-1.979,1.049-3.28c-0.032-0.144,0.019-0.306,0.031-0.46c0.064-0.018,0.128-0.035,0.192-0.053
			c0.418,0.736-0.042,1.899,1.066,2.538c-0.06-0.425-0.092-0.646-0.129-0.91c0.673,0.08,0.588-0.275,0.36-0.623
			c-0.482-0.735-1.03-1.429-1.094-2.358c-0.01-0.15-0.089-0.296-0.165-0.533c-0.195,0.227-0.326,0.38-0.364,0.424
			c-0.346,0-0.633-0.087-0.804,0.017c-0.438,0.265-0.738,0.156-1.015-0.145c0.265-0.456,0.61-0.84,0.713-1.281
			c0.136-0.583,0.534-0.826,0.984-0.877c0.54-0.062,1.16-0.058,1.642,0.154c0.709,0.312,1.364,0.26,1.856,0.181
			c0.168-0.492,0.236-0.883,0.438-1.184c0.073-0.108,0.47,0.003,0.725,0.014c0.147-0.104,0.345-0.242,0.542-0.38
			c-0.251,0.7-0.608,1.273-0.89,1.88c-0.165,0.357-0.377,0.823-0.274,1.146c0.241,0.753,0.659,1.45,1.009,2.177
			c1.052-0.688,1.165-1.875,1.571-2.78c-0.173-0.33-0.464-0.635-0.433-0.901c0.03-0.254,0.365-0.522,0.628-0.68
			c0.182-0.109,0.479-0.09,0.709-0.045c0.552,0.109,0.975,0.062,1.141-0.587c0.026-0.103,0.251-0.179,0.397-0.223
			C147.869,12.726,148.454,12.569,149.116,12.384z M96.919,16.387c-0.25-0.521-0.392-1.094-0.503-1.679
			c0.569,0.407,0.41,1.428,1.336,1.485c-0.046,0.142-0.104,0.383-0.132,0.38C97.375,16.543,96.989,16.534,96.919,16.387z
			 M99.308,23.23c-0.413-0.764-1.792-0.593-1.769-1.959c0.743,0.669,1.355,1.22,1.967,1.772
			C99.44,23.105,99.374,23.168,99.308,23.23z M99.905,13.224c0.788,0.252,0.805,0.76,0.679,1.387
			c-0.188-0.113-0.387-0.233-0.652-0.393c-0.039,0.246-0.066,0.361-0.074,0.477c-0.098,1.513-0.364,1.719-2.036,1.489
			c0.649-0.169,0.577-0.84,0.84-1.275c0.272-0.45,0.465-0.875,0.129-1.452c-0.151-0.258,0.008-0.809,0.195-1.127
			c0.344-0.584,0.809-1.099,1.237-1.631c0.058-0.072,0.194-0.08,0.294-0.117c0.05,0.047,0.099,0.093,0.149,0.14
			c-0.316,0.418-0.615,0.851-0.954,1.249C99.289,12.469,99.315,13.035,99.905,13.224z M105.001,10.613
			c-0.181,0.191-0.353,0.39-0.591,0.654c-0.527-0.082-0.527-0.082-0.79-1.33c0.653,0.06,1.267,0.117,1.88,0.174
			C105.334,10.277,105.163,10.441,105.001,10.613z M111.365,29.921c-0.382-0.626-0.767-1.258-1.175-1.926
			c0.33-0.319,0.617-0.207,0.84,0.231c0.142,0.279,0.224,0.61,0.427,0.832c0.253,0.277,0.603,0.466,0.886,0.674
			C112.1,29.779,111.736,29.849,111.365,29.921z M109.531,1.83c-0.041-0.033,0.019-0.259,0.09-0.355
			c0.381-0.518,0.882-0.456,1.162,0.139c-0.28,0.117-0.552,0.259-0.842,0.338C109.819,1.985,109.637,1.915,109.531,1.83z
			 M120.76,35.695c0.249,0.357,0.445,0.639,0.678,0.973c-0.147,0.155-0.271,0.332-0.438,0.444c-0.088,0.059-0.283,0.053-0.371-0.009
			c-0.091-0.064-0.168-0.24-0.149-0.349C120.535,36.436,120.641,36.126,120.76,35.695z M65.824,32.443c0.332,0,0.665,0,0.997,0
			c0.003,0.124,0.005,0.248,0.008,0.373c-0.326,0.01-0.653,0.025-0.978,0.012C65.837,32.827,65.833,32.577,65.824,32.443z"/>
	</defs>
	<clipPath id="SVGID_2_">
		<use xlink:href="#SVGID_1_"  overflow="visible"/>
	</clipPath>
	<path opacity="0.1" clip-path="url(#SVGID_2_)" fill="#231F20" d="M168.242,40.542c0,2.178-2.01,3.942-4.489,3.942H9.412
		c-2.479,0-4.489-1.765-4.489-3.942V7.864c0-2.177,2.01-3.943,4.489-3.943h154.34c2.479,0,4.489,1.765,4.489,3.943V40.542z"/>
</g>
<path id="XMLID_1_" opacity="0.2" fill="#FFFFFF" d="M31.318,4.861V4.858c-0.555-0.236-0.744-0.589-0.779-0.915
	c-0.048-0.458,0.346-1.03,0.771-1.187c2.347-0.862,3.786,0.914,3.786,0.914l0.62-0.094c-1.22-1.477-2.702-1.714-3.918-1.515
	c-0.86,0.139-1.646,0.562-2.301,1.147C28.495,4.103,27.72,3.95,27.72,3.95l-0.008,0.013c-0.17-0.008-0.341-0.013-0.514-0.013
	c-5.476,0-9.916,4.514-9.916,10.082c0,2.725,1.066,5.197,2.795,7.011h-0.004c1.552,1.573,1.34,3.169,1.34,3.169l0,0
	c-1.16,8.329-2.097,22.695,5.651,20.797l-0.23-0.157c0,0-6.982,1.173-4.059-19.017c0.118-0.626,0.612-2.205,2.53-1.907
	c0.036,0.007,0.075,0.013,0.112,0.02c0.051,0.01,0.1,0.018,0.152,0.03c0.163,0.037,0.299,0.056,0.416,0.057
	c0.398,0.05,0.803,0.079,1.215,0.079c5.477,0,9.917-4.515,9.917-10.082C37.115,9.958,34.738,6.451,31.318,4.861z"/>
<g>
	<g>
		<radialGradient id="SVGID_3_" cx="23.8938" cy="20.6264" r="20.8481" gradientUnits="userSpaceOnUse">
			<stop  offset="0" style="stop-color:#D0D2D3"/>
			<stop  offset="0.2253" style="stop-color:#C3C5C7"/>
			<stop  offset="0.639" style="stop-color:#A2A3A6"/>
			<stop  offset="1" style="stop-color:#808184"/>
		</radialGradient>
		<path fill="url(#SVGID_3_)" d="M47.093,10.286c3.251,9.757-6.517,21.609-21.188,26.018c-14.674,4.403-22.668-0.394-25.328-7.49
			c-2.212-5.895,2.745-16.888,16.261-22.273C29.945,1.319,44.381,2.153,47.093,10.286z"/>
		<linearGradient id="SVGID_4_" gradientUnits="userSpaceOnUse" x1="7.3538" y1="32.0267" x2="38.5409" y2="0.8396">
			<stop  offset="0" style="stop-color:#FFFFFF"/>
			<stop  offset="1" style="stop-color:#E8E7E9"/>
		</linearGradient>
		<path opacity="0.2" fill="url(#SVGID_4_)" d="M44.726,7.232c3.561,6.414-6.735,16.061-21.407,20.466
			C8.647,32.106,2.19,29.121,0.477,23.984C-0.508,21.029,5.996,10.582,16.822,6.49C29.994,1.51,42.406,3.049,44.726,7.232z"/>
		<path fill="#FFFFFF" d="M15.016,38.347c-7.065,0-12.212-3.476-12.333-9.941C2.562,14.157,18.489,2.782,31.78,3.26
			c12.214,0.361,11.495,10.418,0.239,15.806c-3.591,1.676-8.978,3.114-12.332,2.995c-2.036-0.121-2.277-1.079,0.119-1.079
			c2.036,0,7.065-1.197,11.257-3.352c11.015-5.988,6.106-13.412-2.276-9.579c-6.466,2.993-14.01,11.614-15.326,18.919
			c-0.84,4.671,1.196,8.264,5.985,8.141c8.384-0.119,23.111-12.451,28.739-17.84c1.795-1.795,1.795,0.359,0.718,1.317
			C39.802,26.969,28.188,38.224,15.016,38.347z"/>
	</g>
</g>
<path opacity="0.2" fill="#BABCBE" d="M169.209,39.955c-7.25,6.753-15.696,10.199-21.248,10.754
	c1.937,2.184,4.228,4.045,6.783,5.498c5.444-0.829,12.558-3.747,19.806-9.174c0.831,1.612,1.558,2.551,2.385,4.274l1.996-14.476
	c-1.297-0.051-11.23-0.407-13.825-0.61C166.785,37.716,167.35,38.278,169.209,39.955z"/>
<g>
	<g>
		<path fill="#00ADEE" d="M175.152,49.788c-0.827-1.723-1.554-2.662-2.385-4.274c-12.598,9.433-24.808,11.299-28.503,7.758
			l-1.28-1.525c-1.535-2.156-1.594-2.24-2.309-3.567l-0.144-0.274c2.445,3.358,16.019,0.66,26.894-9.47
			c-1.859-1.677-2.424-2.239-4.103-3.734c2.595,0.203,12.528,0.559,13.825,0.61L175.152,49.788z"/>
	</g>
</g>
<g>
	<g>
		
			<text transform="matrix(1 0 0 1 73.7821 26.7101)" fill="#462666" stroke="#262261" stroke-width="0.1" stroke-miterlimit="10" font-family="Trebuchet MS" font-size="23">LITE</text>
		<g>
			<text transform="matrix(1 0 0 1 73.7821 26.7101)" fill="#6D6E70" font-family="Trebuchet MS" font-size="23">LITE</text>
		</g>
		<g>
			
				<text transform="matrix(1 0 0 1 73.7821 26.7101)" fill="none" stroke="#6D6E70" stroke-width="0.1" stroke-miterlimit="10" font-family="Trebuchet MS" font-size="23">LITE</text>
		</g>
	</g>
</g>
<g>
	<g>
		<text transform="matrix(1 0 0 1 68.2821 38.7223)" fill="#462666" font-family="'Augustus'" font-size="11" letter-spacing="2">MEMBER</text>
		<g>
			<text transform="matrix(1 0 0 1 68.2821 38.7223)" fill="#6D6E70" font-family="'Augustus'" font-size="11" letter-spacing="2">MEMBER</text>
		</g>
	</g>
</g>
</svg>
