<?xml version="1.0" encoding="utf-8"?>
<!-- Generator: Adobe Illustrator 21.0.2, SVG Export Plug-In . SVG Version: 6.00 Build 0)  -->
<svg version="1.1" id="Layer_1" xmlns="http://www.w3.org/2000/svg" xmlns:xlink="http://www.w3.org/1999/xlink" x="0px" y="0px"
	 viewBox="0 0 178.9 54.2" style="enable-background:new 0 0 178.9 54.2;" xml:space="preserve">
<style type="text/css">
	.st0{fill:#815522;}
	.st1{fill:url(#SVGID_1_);stroke:#A17236;stroke-miterlimit:10;}
	.st2{clip-path:url(#SVGID_3_);}
	.st3{opacity:0.3;fill:#FFFFFF;enable-background:new    ;}
	.st4{enable-background:new    ;}
	.st5{fill:#231F20;}
	.st6{fill:#FAF392;}
	.st7{fill:url(#SVGID_4_);}
	.st8{opacity:0.2;fill:url(#SVGID_5_);enable-background:new    ;}
	.st9{fill:#FFFFFF;}
	.st10{opacity:0.2;fill:#815522;enable-background:new    ;}
	.st11{fill:url(#SVGID_6_);}
</style>
<title>Gold-Member</title>
<g>
	<path class="st0" d="M167,22.1c-19.8,6.6-29.3,17.6-27,23.1l0.2,0.3c0.8,1.4,1.7,2.8,2.7,4.1l1.5,1.8
		C138.8,43.8,149.7,30.2,167,22.1"/>
</g>
<linearGradient id="SVGID_1_" gradientUnits="userSpaceOnUse" x1="5" y1="31.76" x2="173.34" y2="31.76" gradientTransform="matrix(1 0 0 -1 -0.14 54)">
	<stop  offset="0" style="stop-color:#A0752B"/>
	<stop  offset="0.31" style="stop-color:#FDD552"/>
	<stop  offset="0.42" style="stop-color:#FBF7C1"/>
	<stop  offset="0.58" style="stop-color:#FDD552"/>
	<stop  offset="0.84" style="stop-color:#A0752B"/>
	<stop  offset="0.97" style="stop-color:#FDD552"/>
	<stop  offset="1" style="stop-color:#FDD552"/>
</linearGradient>
<path class="st1" d="M173.2,39c-0.2,2.4-2.3,4.2-4.6,4H9.5c-2.4,0.1-4.4-1.6-4.6-4V5.5c0.2-2.4,2.3-4.2,4.6-4h159.1
	c2.4-0.2,4.4,1.6,4.6,4L173.2,39z"/>
<g>
	<defs>
		<path id="SVGID_2_" d="M79.7,39.3c-0.1,0-0.2-0.1-0.2-0.2c-0.4-0.5-1.1-0.7-1.7-0.6c-0.2,0-0.4,0-0.6-0.1c-0.6-0.3-1.2-0.5-2-0.8
			c0-0.2,0-0.5,0-0.8c0-0.7-0.8-1.6-1.3-1.4c-0.8,0.3-1-0.3-1.3-0.8s-1.8-1.4-2.1-1.2s-0.7,0-1-0.3s-0.5-0.4-0.8-0.7L68.4,33
			l-0.7-0.6L66,34c-0.1-0.2-0.3-0.5-0.4-0.5c-0.4,0.1-0.9,0.2-1.3,0.4c0-0.3,0-0.7,0-1c0.3-1.2-0.1-1.6-1.3-1.7
			c-0.1,0-0.3,0-0.4-0.1l0.4-2c-0.9-0.1-1.7-0.2-1.9,0.9c0,0.3-1,0.3-1.1-0.1c-0.1-0.7-0.2-1.3-0.2-2c0-0.3,0-0.5,0-0.8
			c0-0.2,0.1-0.4,0.2-0.6c0.7-0.5,1.7-0.5,2.5,0c0.5-0.4,1.2-0.6,1.8-0.4c0.1,0.1,0.2,0.3,0.2,0.5c-0.1,0.7,0.4,0.9,0.9,1.2
			c0-0.6,0-1.2-0.2-1.8c0-0.2-0.1-0.3-0.1-0.5c0.1-0.7,0.6-1.3,1.3-1.5c0.6-0.2,0.7-0.5,0.5-1c0.5-0.1,0.4-0.2,0.6-0.7
			c0.3-0.7,0.5-1.5,1.5-1.6c0.1,0,0.2-0.1,0.3-0.2l-0.2-0.1c0.1-0.3,0.1-0.8,0.3-0.9c0.5-0.3,1.1-0.5,1.7-0.7l-0.2,0.7l1.6-0.9
			c-1.1-0.4-1.7-0.8-0.2-1.3L72.5,17l2-0.8l-1.4,2.1c0.5,0,1.1-0.1,1.1,0c0.3,0.7,0.8,0.4,1.5,0.5c-0.4-0.6-0.6-1.1-0.9-1.6
			c-0.1-0.2-0.1-0.4-0.1-0.6c0-0.4,0-0.8,0-1.2c-0.1-0.2-0.2-0.4-0.4-0.5c-0.2-0.1-1.1-1-1-1.3c0.1-0.9-0.4-1.4-1-2l-0.1,0.6H71
			v-1.3c-0.3-0.2-0.6-0.3-0.9-0.4c-0.4-0.2-0.8-0.3-1.3-0.3c-0.2,0-0.5,0.3-0.5,0.5c-0.1,0.9-0.2,1.9-0.3,2.9h-0.8l0.4,0.4l-0.4,1.6
			c-0.2-0.4-0.4-0.7-0.4-1.2c-0.1-0.3-0.1-0.6-0.6-0.5c-0.4,0-0.8-0.1-1.1-0.3c-0.4-0.2-0.7-0.4-1.1-0.7l-0.5-1
			c0.2-0.3,0.5-0.6,0.8-0.9c0.6-0.6,1.5-1.1,1.8-1.8c0.2-0.5,0.7-0.8,1.3-0.8c1.2,0,0.7-0.9,0.8-1.4c0.1-0.2-0.2-0.5-0.3-0.8
			c0.8,0.3,1.8,0,2.5,0.9c0.3,0.4,0.3,0.8-0.1,1c-0.4,0.2-0.8,0.4-1.1,0.6c-0.2,0.1-0.2,0.3-0.3,0.5c0.2,0.1,0.4,0.3,0.5,0.3
			c0.7,0,1.3,0.2,1.8,0.7c0.4,0.4,0.9,0.6,1.5,1c-0.1-1,0.6-1.8-0.1-2.6L73.6,9c0.1-0.6,0.4-1.1,0.2-1.5s-0.9-0.6-1.4-0.9
			c0.4-0.6-0.1-1.4-1.1-1.4c-0.2,0-0.5-0.1-0.6-0.3c-0.3-0.4-0.8-0.6-1.3-0.4c-0.2,0-0.4,0-0.5-0.1c-0.4-0.6-0.8-0.4-1.2-0.1
			c-0.3-0.8-0.6-0.8-1.2-0.2c-0.2,0.2-0.4,0.5-0.5,0.8c0,0.5,0,1,0,1.5c-0.4-0.4-0.8-0.8-1.2-1.2c-0.2-0.1-0.6-0.1-0.7,0
			S63.9,5.8,64,5.9c0.5,0.5,0.2,0.9-0.1,1.5l-0.4-0.8c-0.4,0.3-0.8,0.4-1.3,0.5c-0.4,0-0.8-0.4-1.2-0.6l0.1-0.2
			c0.3,0.1,0.7,0.2,1,0.2s0.3-0.5,0.5-0.9C63,5.4,63.5,5.2,64,4.8c0.1-0.1,0.2-0.4,0.2-0.6c0-0.3-0.1-0.5-0.2-0.7
			c-1.2,0-2.4-0.3-3.3,0.7l-1.1-0.5c0.4-0.1,0.8-0.3,1.2-0.3c0.9,0,1.7-1.1,2.7-0.3c0.1,0,0.2,0,0.3,0C64,3,64.3,2.8,64.4,2.7
			c0-0.3-0.1-0.6-0.3-0.8c0-0.1-0.4,0-0.6,0.1c-0.5,0.2-1,0.4-1.5,0.6C62,2.3,62,2,62,1.8c-0.1-0.5-0.4-0.3-0.6-0.1s0,0.5-0.1,0.8
			c-0.9-0.1-2-0.4-2.5,0.6c-0.6-0.1-1.2-0.1-1.8-0.3c-1-0.3-0.7,0.8-1.2,1c-0.8,0.5-0.1,1,0,1.6L57.2,5c-0.1,0.8,0.6,0.2,0.9,0.6
			l-0.6,0.3l1.6,0.8c0.4,0,0.9,0.1,1.3,0.3c0.2,0.1,0.2,0.5,0.2,0.6c-0.9-0.3-1.6-0.6-2.4-0.8c-0.6-0.1-1.2-0.3-1.8-0.5
			c-0.4-0.2-0.7-0.5-1,0c0,0.1-0.3,0.1-0.3,0.1l-0.5-0.8c-0.6,0.5-1.2,0.9-2,0.5c-0.1,0-0.2,0-0.3,0c-0.5,0-1,0-1.6,0
			c-0.7-0.1-1.4-0.3-2.2-0.4s-1.2-0.2-1.7-0.3c-0.2,0-0.5,0-0.7,0c-0.6,0.1-1.2,0.2-1.7,0.4s-1,0.3-1.4,0.4v0.3l1.6,0.9
			c-0.3,0.1-0.6,0.4-0.8,0.3c-1.2-0.4-1.9,0.6-2.8,0.6l1.3,1.3h1.8c-0.2,0.2-0.4,0.4-0.7,0.5c-0.7,0.2-1.4,0.3-2.1,0.6
			c-0.5,0.3-0.8,0.9-0.6,1.4l0.6,1l0.9,0.8l1.3-0.3l0.2,0.4c-0.8,0.7-1.6,1.4-2.4,2.1c-0.4,0.3-0.9,0.6-1.3,1l0.1,0.2
			c0.4,0,0.9-0.1,1.3-0.2c0.6-0.2,1.1-0.5,1.6-0.9c0.9-0.8,1.7-1.6,2.6-2.5l0.2,0.2L45,14.8l0.1,0.2c0.8-0.2,1.5-0.6,2.2-1
			c0.3-0.2,0.1-0.9,0.1-1.4c0.6-0.5,1.5-0.3,2,0.3c0,0,0.1,0.1,0.1,0.1c0.2,0.2,0.5,0.4,0.7,0.5c0.6,0.3,1,0.9,1,1.5
			c0,0.1,0.1,0.2,0.2,0.4l0.3-0.7c0.1,0.6,0.2,1.3,0.3,1.9c0.1,0.8,0.2,1.6,0.2,2.3c-0.2,0.9-0.3,1.8-0.3,2.8c0.1,1-0.2,2.2,1.1,2.8
			c0.1,0,0.2,0.3,0.2,0.4c0.2,1.1,0.7,2.2,1.4,3.1c0.3,0.3,0.6,0.5,0.9,0.8l0.2-0.2l-0.4-1.4c0.4,0.4,0.6,0.7,0.8,0.9
			c0.4,0.3,0.6,0.8,0.7,1.4c0,0.6,0.3,1.1,0.7,1.4c0.8,0.6,1.8,1,2.8,0.9c0.2,0,0.4,0,0.5,0.2c0.3,0.5,0.8,0.9,1.4,1
			c0.2,0.1,0.3,0.2,0.5,0.3c0.6,0.5,1.1,1.1,1.8,1.5c0.2,0.2,0.6,0,1,0c0.5,0.7,0.4,1.7-0.1,2.4c-0.3,0.6-0.4,1.3-0.3,1.9
			c0,0.2,0,0.3,0.1,0.5c0.1,0.2,0.1,0.4,0.3,0.6c0.1,0.1,0.2,0.2,0.4,0.2c-0.2,0.3-0.5,0.6-0.5,0.8c0.1,0.7,0.6,1.3,1.3,1.4
			c0,0.3-0.2,0.5-0.1,0.7c0.3,0.5,0.7,0.9,1.1,1.2c0.5,0.3,0.9,0.8,1,1.4c0,0.5,0,1,0,1.4c0,0.7,0.1,1.5,0.2,2.2
			c0.1,0.2,0.1,0.5,0,0.7c-0.4,0.8-0.6,1.7-0.6,2.6c-0.1,0.6,0.1,0.7,0.8,0.5l-0.6,0.9c-0.1,0.2-0.3,0.3-0.3,0.5
			c0.1,0.8,0.1,1.5,0.3,2.3c0.1,1.2,0.5,2.4,1.1,3.4c0.6,0.7,1.7,0.9,2.5,0.4l-0.5-0.3c-0.7-0.3-1-1.1-0.6-1.8
			c0.1-0.2,0.2-0.3,0.3-0.4c0.7-0.5,0.6-1,0.1-1.5c0.6-1.3,0.7-1.6,0.1-2.2c0.8,0.1,0.9-0.4,0.9-0.8c0.6-0.2,1.2-0.3,1.5-0.7
			s0.1-0.9,0.1-1.4c0.7,0.1,1.4-0.2,1.6-0.9c0.4-0.6,0.7-1.2,1-1.9c0.2-0.9,0.6-1.5,1.5-1.8c0.2-0.1,0.6-0.2,0.7-0.4
			c0.2-0.7,0.3-1.4,0.4-2.1c0.1-0.5,0.2-0.9,0.4-1.4c0.4-0.9,1-1.7,1.3-2.6c0.1-0.5,0-0.9-0.2-1.4C80.4,39.3,80,39.4,79.7,39.3z
			 M62,4.4l0.9,0.3L63,4.9l-1,0.5L62,4.4z M84,5.7V5.5c0.3,0,0.6,0,0.9,0.1c0.8,0.4,0.8,0.4,1-0.3V5.2l0.5,0.1l-0.3-0.8
			c0.8-0.1,0.9-0.8,0.8-1.3c-0.1-1-0.2-1,0.8-1.2c0.1,0,0.1-0.1,0.3-0.2L87,1.2c0.2-0.2,0.6-0.5,0.6-0.7c-0.1-0.7,0.5-0.8,0.9-0.9
			c0.2-0.1,0.4,0,0.7,0s0.2-0.2,0.4-0.3c-0.1-0.1-0.1-0.2-0.2-0.3c-0.3-0.2-0.5-0.3-0.8-0.4c-0.2-0.1-0.5-0.1-0.7-0.1
			c-0.4,0.1-0.8,0.2-1.1,0.3l-0.1-0.2l1.6-0.8c-0.3-0.2-0.5-0.5-0.7-0.5C86.8-2.9,86.2-3,85.5-3c-1.7,0-3.3,0.1-4.9,0.2
			c-0.4,0-0.8,0.2-0.6,0.8C80-1.8,80-1.6,80.1-1.4c-2.3-0.6-4.3,0.1-6.2,1.2l0.5,0.3l-0.1,0.2l-2.5,0.8v0.3l2.3,0.1v0.2L72.2,2v0.3
			c0.5,0.2,0.9,0.4,1.4,0.5c0.2,0.1,0.5-0.2,0.7-0.1c0.5,0.1,1,0.3,1.5,0.5c0.1,0.4,0.3,0.8,0.4,1.3c0,0.3,0,0.5,0,0.8L77,5.1
			c0.4,0.8-0.6,0.3-0.7,0.8l1.3,0.7c-0.3,0.2-0.6,0.3-0.7,0.5c-0.2,0.4-0.7,1-0.5,1.2c0.4,0.7,0.6,1.4,0.5,2.2c0,0.5,0.1,1,0.8,1.1
			c0.4,0.1,0.8,0.2,1.2,0.4l0.2,0.2c0.4-0.9,0.8-1.8,1.2-2.7c0.1-0.3,0.4-0.9,0.5-0.9c1-0.1,2-0.4,2.7-1.1c0.7-0.4,1.3-0.9,2.1-1.4
			L84,5.7z M86.3-1.9c-0.6,1.1-1.5,0.1-2.2,0.5v-0.3L86.3-1.9z M144.5,48c0.3,0.9,0.2,1.8-0.2,2.6c-0.7,1.1-1.2,2.3-2.4,3
			c-0.1,0-0.1,0.1-0.2,0.1c-1,0.1-1.9-0.1-2.8-0.6l0.1-0.9c-0.7,0.1-1.3-0.3-1.6-1c-0.2-0.2-0.4-0.4-0.7-0.4
			c-0.8-0.1-1.5,0.1-2.1,0.6c-0.1,0.1-0.4,0.1-0.6,0.2c-0.4,0.2-0.9,0.3-1.3,0.4c-0.3,0.1-0.7,0-1-0.1c-0.2-0.1-0.2-0.5-0.2-0.8
			c-0.1-0.5-0.1-1-0.1-1.5c-0.1-0.7-0.2-1.5-0.3-2.2c0-0.1,0.3-0.4,0.4-0.4c0.7,0,1-0.4,1.1-1.1c0.1-0.4,0.3-0.9,0.9-0.4
			c0.2-0.9,0.4-1,1.3-1c0.2,0,0.4-0.2,0.5-0.4c0-0.6,0.5-1.1,1.1-1.1c0,0,0.1,0,0.1,0c0.2,0,0.5-0.2,0.6-0.3
			c0.1-0.9,0.6-0.6,1.2-0.5c0.4,0,0.8,0,1.2,0c0.3,0.1,0.5,0.2,0.8,0.3c-0.9,0.7-0.9,0.7-0.1,1.2c0.3,0.2,0.6,0.3,0.8,0.4
			c0.1-0.4,0.2-0.7,0.3-1.1c0-0.5,0.1-0.9,0.2-1.4c0.8,0.7,0.9,1.6,1.3,2.4c0.4,0.9,0.7,1.8,1,2.7h0.5
			C144.3,47.2,144.4,47.6,144.5,48z M65.6,0c-0.3-0.6,0.3-0.8,0.5-1.1c0-0.1,0.5-0.1,0.7,0c0.3,0.2,0.6,0.5,0.9,0.8l0.2-0.1
			c-0.2-0.2-0.4-0.4-0.5-0.6c-0.3-0.4-0.2-0.8,0.3-0.8c1.5-0.3,3-0.4,4.6-0.3c0.9,0,1.8,0,2.7-0.1c0.3,0,0.7,0.1,1,0.2
			c-0.3,0.6-0.3,0.6-1.9,0.8c0.2,1-0.7,1-1.2,1.3c-0.7,0.3-1.5,0.5-1.8,1.5c-0.1,0.4-0.8,0.6-1.2,0.9c0.3,0.2,0.4,0.4-0.2,0.6
			c-0.3,0.1-0.4,0.4-0.7,0.5c-1.2,0.1-2.4-0.2-3.3-0.9c0.9-0.5,1.7,0.5,2.6-0.1l-1.7-0.3c-0.1-0.6,0.2-0.8,1.1-0.8L67.1,1l1.1-0.8
			c-0.8-0.1-1.2,0.3-1.5,1L66.1,1C65.9,0.7,65.7,0.3,65.6,0z M140.4,40.6c0.2-0.6-0.4-1-1-1.4s-1-1-1.8-0.6c0.1-0.6,0.3-0.8,0.8-0.6
			c0.2,0.1,0.5,0.1,0.7,0c0.9-0.7,1.7-0.1,2.4,0.3c0.1,0,0.1,0.2,0.2,0.2c0.9,0.2,1.1,1.1,1.8,1.5c0.4,0.2,0.5,0.8,0.7,1.2l-0.1,0.2
			c-0.3-0.1-0.5-0.3-0.8-0.5c-0.3-0.3-0.6-0.6-1,0c-0.1,0.1-0.5,0.1-0.7,0.1C141.2,41,140.8,40.8,140.4,40.6L140.4,40.6z M95.3-0.3
			c0-0.1,0.4-0.5,0.5-0.5c0.4,0.2,0.9,0.4,1.3,0.6v-0.6C97.6-0.8,98-1,98-0.3c0,0.1,0.3,0.3,0.5,0.4c0.6,0.1,1.2,0.5,1.6,1
			c0.2,0.3,0.3,0.5,0.4,0.8c-0.9,0.4-1.3-0.1-1.7-0.8c-0.1,0.3-0.1,0.5-0.1,0.7c0,0.3-0.1,0.5-0.2,0.8c-0.1,0.1-0.3,0.3-0.3,0.3
			c-0.5-0.2-0.9-0.4-1.4-0.7c-0.1,0,0-0.4,0.1-0.5c0.2-0.2,0.3-0.4,0.5-0.6l-0.1-0.2L96,1.4V0.8C95.8,0.5,95.5,0.1,95.3-0.3z
			 M133.1,35.1c0.4,0.2,1.1,0.3,0.5,1.1c-0.3,0.4-0.2,1.1-0.3,1.7c-0.1,0.4-0.2,0.8-0.3,1.2c-0.1,0.2-0.4,0.3-0.5,0.4
			c-0.8,0-2.3-1.3-2.3-1.9c0.1-0.3,0.2-0.6,0.5-0.8c0.4-0.3,0.9-0.6,1.3-0.8c0.1-0.1,0.2-0.2,0.3-0.4
			C132.4,35.2,132.6,34.9,133.1,35.1L133.1,35.1z M109.7,42.1c0.8,2.1-0.1,3.8-0.5,5.6c-0.1,0.6-0.7,0.6-1.2,0.5
			c-0.2,0-0.4-0.5-0.6-0.7s0-0.3,0-0.5c0-0.8,0.5-1.5,0.3-2.3c-0.1-0.2,0.3-0.6,0.5-0.7c0.5-0.2,0.9-0.8,1-1.3
			C109.3,42.5,109.5,42.3,109.7,42.1L109.7,42.1z M93.5,15.2l-0.4,1.4l-2.3,0.1v-0.1l0.6-0.4c-0.3-0.5-0.4-1,0.3-1.3
			c0.4-0.2,0.5-0.4,0-0.6c-0.4-0.2-0.6-0.6-0.4-1c0,0,0,0,0,0c0.1-0.3,0.1-0.7,0.2-1.2l1.2-0.3l-0.3,0.7L93.5,15.2z M136.2,24.5
			l0.8-0.1l-0.5-0.5c0.2-0.2,0.4-0.3,0.6-0.5c0.6-0.3,1.3-0.6,2-1c0.2-0.1,0.3-0.4,0.3-0.6c0-0.6-0.1-1.1-0.1-1.7
			c0.3,0.2,0.5,0.3,0.5,0.4c0.2,0.7,0.3,1.5,0.4,2.2c0,0.2,0,0.4-0.2,0.6c-0.7,0.3-1.4,0.6-2,0.9c-0.4,0.2-0.8,0.5-1.2,0.8
			L136.2,24.5z M129,39.2c0.1,0.3-0.4,0.5-0.7,0.3c-0.5-0.5-1.3-0.7-1.1-1.7c0-0.2-0.2-0.5-0.4-0.5c-0.7-0.4-1.1-1-1.3-1.7
			c1.3-0.5,1.5,0.7,2.1,1.2c0.2,0.1,0.3,0.4,0.4,0.5C128.9,37.6,128.8,38.5,129,39.2L129,39.2z M108.3,5.3c0.6-2.5,2.5-3.1,4.9-3.5
			c-0.4,0.6-0.7,1-1.3,1c-0.3,0-0.6,0.2-0.8,0.3c-0.3,0.2-0.7,0.4-1,0.6c-0.8,0.3-0.9,0.7-0.4,1.4c0.2,0.2,0.3,0.4,0.5,0.6
			C109.5,6.3,108.9,6.1,108.3,5.3z M87.2,9.7c-0.2,0-0.3,0-0.5,0.1l-0.9-0.7l0.1-0.5l-0.4-0.1l0.6-0.7l2.3,0.4l0.2,0.4
			c0.2,0.4,0.1,0.9-0.3,1.1c-0.2,0.1-0.3,0.1-0.5,0.1C87.6,9.8,87.4,9.7,87.2,9.7z M67.2,30.6l0.2-0.7c-0.7,0.1-1.5-0.1-2-0.7
			c-0.3-0.3-1,0-1.5,0c0-0.5,0.3-0.6,0.8-0.7c1.1-0.1,2.1,0.3,2.8,1.1c0.2,0.2,0.4,0.2,0.7,0.2c0.7-0.2,0.9,0.3,1.3,0.8
			c-0.4,0.1-0.8,0.2-1.1,0.3C68,30.9,67.6,30.8,67.2,30.6L67.2,30.6z M150,53.7c0.2,0.4,0.5,0.7,0.5,1s-0.4,0.5-0.6,0.7
			c-0.4,0.4-0.8,0.8-1.2,1.2c-0.2,0.3-0.4,0.6-0.9,0.4c-0.2-0.1-0.5,0-0.8,0c0.2-0.6,0.6-1.2,1.2-1.6C148.9,55,149.5,54.4,150,53.7
			L150,53.7z M98.5-1.1c0.6-0.1,1.3-0.1,1.9-0.1c0.6,0.1,1.2,0.3,1.8,0.5c-0.2,0.6-1,0.9-2,0.8S98.5-0.7,98.5-1.1z M152.7,52.2
			c-0.9,0.5-0.9,1.8-1.9,2.2c0.2-0.5,0.3-1-0.3-1l0.6-2.1c0.2,0.3,0.4,0.7,0.7,0.8S152.4,52.1,152.7,52.2z M135.8,37.7l-0.9,0.3
			l0.6,1.2l-0.1,0.2l-0.9-0.4l-0.3,0.7c-0.9-0.8-0.6-1.9,0.3-2.7c0.2,0.1,0.4,0.2,0.6,0.3S135.4,37.5,135.8,37.7z M132.5,41.3
			c-0.7-0.1-1.3-0.3-2-0.4c-0.3,0-0.7-0.1-1-0.1c-0.2-0.1-0.5-0.4-0.5-0.6c0.1-0.4,0.4-0.4,0.7-0.3c0.7,0.2,1.4,0.3,2.1,0.5
			c0.3,0.1,0.6,0.3,0.8,0.6L132.5,41.3z M119,0.5l-0.2-0.1c0.1-0.2,0.2-0.6,0.3-0.7c0.9-0.4,1.9-0.1,2.4,0.6
			C120.7,0.9,119.8,0.3,119,0.5z M139.5,19.9l-0.6,0.4l-0.2-0.1c0.1-0.5,0.2-1.1,0.3-1.6c0,0,0.2-0.1,0.2-0.1c0.5,0.2,1,0.4,1.5,0.5
			l-0.7,1.1L139.5,19.9z M135.9,32c0.5,0,1.2,0.7,1.4,1.3l-1.5,0.6v-0.6l-0.6,0.1l-0.1-0.2l0.8-0.7L135.9,32z M133,2.1
			c0.8,0,1.6-0.4,2.2,0.3c-0.4,0.7-0.8,1-1.6,0.6C133.3,2.8,132.8,2.8,133,2.1L133,2.1z M89.6,15.3c-0.1-0.8,0.4-1.2,1.3-1.1
			c0,0.4,0.1,0.8,0,1c-0.2,0.3-0.5,0.4-0.9,0.5C89.9,15.7,89.6,15.4,89.6,15.3z M141.5,55c-0.2,0.2-0.4,0.4-0.7,0.5
			c-0.1,0-0.4-0.3-0.5-0.4c-0.2-0.3-0.3-0.5-0.5-0.8h1.7C141.5,54.5,141.6,54.8,141.5,55z M68,10.1c-0.2,0-0.4-0.1-0.6-0.1
			S67,10,67,10c-0.4,0.6-0.7,0.1-1.1,0C67,8.7,67,8.7,68,10.1z M135.1,30.1c0.5,0.5,0,1-0.4,1.5c-0.3-0.5-1.2-0.6-0.6-1.3
			C134.3,30.1,134.9,30,135.1,30.1L135.1,30.1z M138.8,37.6l-1.4,0.3l-0.1-0.2c0.2-0.2,0.3-0.5,0.5-0.6c0.4,0,0.7,0,1.1,0.1
			L138.8,37.6z M133.2,28l0.9-0.3v1.4h-0.3L133.2,28z M149.1,10.4l-0.8-1c0.6-0.6,1-0.7,1.4-0.3c0.3,0.2,0.6,0.4,1,0.6
			c-0.1-0.6,0-1.1-0.2-1.4s-0.7-0.3-1.1-0.5c0-0.1-0.1-0.4-0.3-0.5c-0.7-0.3-1.4-0.5-2.1-0.7c-0.2-0.1-0.4-0.1-0.6-0.2
			c-0.8-0.4-1.7-0.6-2.6-0.5v0.7C143.6,6.3,143.3,6,143,6c-0.5,0-1,0.1-1.5,0.1c-0.3,0-0.5-0.2-0.7-0.4c-0.4-0.7-1-0.8-1.5-0.2
			c-0.9-0.2-1.7-0.5-2.5-1c-0.7-0.5-1.6-0.7-2.4-0.5v0.6h-3.7c-0.1,0-0.2,0-0.4-0.1c-0.8-0.2-1.6-0.5-2.5-0.7
			c-0.6-0.1-1.2-0.2-1.8-0.3c0-0.1,0.1-0.2,0.1-0.3c0-0.3,0.2-0.7,0-0.9c-0.3-0.4-0.5-0.8-1.2-0.6c-0.5,0.1-1,0-1.4-0.2
			c-0.8-0.5-0.8-0.5-1.1,0.3c-0.2,0.5-0.6,0.7-1.1,0.5c-0.1,0-0.2-0.1-0.2-0.1c-0.6,0.1-1.2,0.3-1.8,0.5c-0.4,0.2-0.8,0.5-1.2,0.8
			c-0.2,0.1-0.4,0.2-0.6,0.3l-0.5,0.2l0.4,0.4l0.3,0.4l-1.4-0.5l-0.3,0.8h-0.2l-0.2-0.6c-0.4,0-0.8,0.2-0.9,0
			c-0.6-0.6-0.8-0.6-1.2,0.2c-0.3,0.8-1.3,1.3-2.1,0.9c0,0-0.1,0-0.1-0.1c-0.2,0-0.5,0-0.7,0V6l0.5,0.4c-1.4-0.1-2.8,0.4-3.8,1.4
			l-0.1-1h-0.8c-0.1,1.1-0.2,1.3-0.9,1.3c0-0.3,0-0.6-0.1-0.7c-0.5-0.3-0.9-0.6-1.4-0.8c-0.5-0.2-1-0.5-1.5-0.8
			c-0.6-0.6-1.6-0.8-2.3-0.3c-0.3,0.2-0.7,0.3-1,0.5c-0.7,0.4-1.3,0.9-1.9,1.5c-0.4,0.8-1,1.4-1.6,2c-0.8,0.5-1.2,1.5-0.9,2.4
			c0.2,0.7,0.2,1.3,1,1.2l-0.4,1.5c-0.2,0-0.4,0.1-0.6,0.2c-0.3,0.1-0.5,0.3-0.8,0.5c-0.4,0.4-0.7,0.8-1.1,1.2l0,0l-2.2,1.4
			c0.2,0.1,0.4,0.2,0.7,0.2c0.6,0,0.8,0.5,1,0.9c0.2,0.3,0,0.6-0.2,0.8c-0.1,0-0.1,0.1-0.2,0.1h-2.1v2.8c0.4,0.2,0.8,0.3,1.2,0.3
			c0.5,0,1.1,0,1.5-0.3c0.4-0.3,0.6-0.7,0.6-1.2c0-0.8,0.6-1.1,1-1.6c0.1-0.1,0.2-0.1,0.4-0.1c0.4,0,0.8,0,1.1,0l0.1,2
			c1.2-0.3,0.2-1.1,0.6-1.5c0.5,0.3,0.9,0.5,1.3,0.8c0.1,0.1,0.3,0.3,0.3,0.4s-0.3,0.2-0.4,0.3c-0.1,0.1-0.3,0.1-0.4,0.2l0.7,0.5
			l-0.2-0.2l1.4-1.3l0.3,0.1l0.5,1.6c0.9,0.1,1,0.1,0.9-0.8c0-0.2,0-0.3,0-0.5c0.1-0.2,0.3-0.3,0.4-0.4c-0.1,2,0.9,2.2,2.4,1.9V24
			c0.2-0.1,0.4-0.2,0.5-0.3c0.1-0.2,0.2-0.3,0.2-0.5l0.2,0.1c-0.1,0.6-0.2,1.1-0.3,1.7c-0.1,0.2-0.3,0.3-0.5,0.3
			c-0.6-0.1-1.2-0.2-1.8-0.3c-1-0.2-2.1-0.8-2.6,0.6c-0.7-0.3-1.4-0.6-2-0.9c-0.6-0.2-0.9-0.8-0.8-1.4c0-0.2,0-0.3,0-0.5
			c-1.4,0.2-2.8,0.3-4.1,0.5c-0.5,0.1-1,0.5-1.5,0.1c-0.1,0-0.2,0-0.3,0c-0.4,0.6-1.3,0.8-1.3,1.8c0,0.7-0.4,1.4-0.9,1.9
			c-0.3,0.2-0.5,0.4-0.6,0.7c-0.7,1.4-1,3-0.8,4.6c0,0.3-0.1,0.8,0.1,1c0.7,0.8,0.8,1.9,1.8,2.5c1,0.6,2.2,0.8,3.3,0.5
			c0.1,0,0.2-0.1,0.2-0.2c0.3-0.3,0.6-1,1,0c0,0.1,0.2,0,0.3,0.1c0.6,0.3,1.4,0.3,2.1,0c0,0.7-0.1,1.3-0.3,2c0,0.2-0.1,0.5,0,0.7
			c0.5,0.8,0.8,1.7,1,2.6c0.4,1.2,0.4,2.5,0,3.7c-0.2,0.4-0.1,0.9,0.3,1.2c0.3,0.3,0.5,0.7,0.6,1.1c0.2,1.5,0.6,2.9,1.2,4.3
			c0.2,0.5,0.4,0.9,1.1,0.5c0.4-0.3,0.9-0.5,1.4-0.6c1.6-0.3,1.9-1.7,2.7-2.7c0.2-0.3,0.2-0.9,0.5-1c0.6-0.2,0.6-0.7,0.6-1.1
			c0-0.8,0.4-1.6,1.1-2c0.2-0.1,0.4-0.3,0.4-0.5c0.2-1,0.2-2.1,0.2-3.2c-0.2-1.1,0.2-2.2,1-2.9c1.1-1.1,2-2.4,2.6-3.9
			c0.1-0.4,0.1-0.7,0-1.1c-0.3,0-0.7,0-1,0.1c-0.6,0.4-1.5,0.2-1.8-0.5c0-0.1-0.1-0.1-0.1-0.2c-0.1-0.3-0.3-0.5-0.5-0.7
			c-0.6-0.5-0.9-1.2-1.1-2c-0.1-0.2-0.2-0.5-0.3-0.7c-0.4-0.4-0.6-1-0.4-1.5l1,1.7c0.5,0.9,1.4,1.7,1.6,2.9c0,0.3,0.4,0.5,0.6,0.7
			c0.5-0.2,0.9-0.4,1.4-0.6c0.9-0.5,1.8-1,2.7-1.6c0.4-0.4,0.8-0.8,1-1.4c0.1-0.1-0.3-0.4-0.5-0.7c-0.1-0.2-0.2-0.4-0.2-0.6
			c0,0,0.1-0.1,0.1-0.2l0.4,0.5v-0.2c0.8-0.1,1.6-0.1,2.3,0c0.4,0,0.7,0.4,1.1,0.6c-0.4,0.4,0.1,0.5,0.3,0.7
			c0.2,0.1,0.3,0.3,0.4,0.5c0.5,1,0.9,2,1.4,3c0.1,0.3,0.2,0.6,0.3,0.9s0.3,0.6,0.5,0.7c0.4,0.1,0.5-0.2,0.7-0.6
			c0.4-0.8,0.1-1.8,0.9-2.5c0.6-0.5,1-1.2,1.5-1.7c0.3-0.3,0.7-0.4,1.1-0.5c0.1,0,0.3,0.5,0.5,0.8c0.1,0.2,0.3,0.3,0.5,0.4
			c-0.3,0.8-0.3,0.8,1,1.1c0.3,0.5,0.5,1,0.6,1.4c0.1,0.2,0.1,0.4,0.1,0.7c0.1,0.6,0,1.3,0.3,1.7c0.6,0.7,1.3,1.3,2,1.8l0.3-0.2
			c-0.4-0.8-0.8-1.5-1.3-2.2c-0.6-0.5-0.8-1.3-0.4-2l1.6,1.5c0.9-0.3,1.4-1.1,1.4-2c0-0.4,0-0.8,0-1.2l0,0v-1
			c0.2-0.2,0.4-0.6,0.6-0.6c0.7,0.1,1.4-0.3,1.6-1c0.2-0.4,0.5-0.9,0.8-1.3c0.7-1,0.7-2.4-0.1-3.4c-0.1-0.2-0.2-0.5-0.1-0.8
			c0.2-0.4,0.8-0.7,0.3-1.3c0.1-0.1,0.2-0.2,0.3-0.3c0.4,0.4,0.7,0.8,0.9,1.3c0.1,0.5,0.3,0.9,0.7,0.8s0.6-0.5,0.5-1
			c0-0.1-0.1-0.2-0.1-0.3c-0.3-0.9,0.1-1.9,1-2.4c0.2-0.1,0.3-0.2,0.4-0.4c0.5-1,1.3-2,1-3.3c0-0.2,0-0.3,0-0.5l0.2,0
			c0.4,0.7,0,1.9,1.1,2.5l-0.1-0.9c0.7,0.1,0.6-0.3,0.4-0.6c-0.5-0.7-0.8-1.5-1-2.3c0-0.2-0.1-0.4-0.2-0.5l-0.4,0.4
			c-0.4,0-0.6-0.1-0.8,0c-0.3,0.2-0.8,0.2-1-0.1c0,0,0,0,0,0c0.3-0.4,0.5-0.8,0.7-1.3c0.1-0.5,0.5-0.9,1-0.9c0.6-0.1,1.1,0,1.6,0.1
			c0.6,0.2,1.2,0.3,1.9,0.2c0.1-0.4,0.2-0.8,0.4-1.2c0.1-0.1,0.5,0,0.7,0l0.5-0.4c-0.3,0.7-0.6,1.3-0.9,1.9
			c-0.2,0.3-0.3,0.7-0.3,1.1c0.3,0.7,0.6,1.5,1,2.2c1.1-0.7,1.2-1.9,1.6-2.8c-0.2-0.3-0.5-0.6-0.4-0.9s0.4-0.5,0.6-0.7
			c0.2-0.1,0.5-0.1,0.7,0c0.6,0.1,1,0.1,1.1-0.6c0-0.1,0.3-0.2,0.4-0.2C147.8,10.7,148.4,10.6,149.1,10.4L149.1,10.4z M96.9,14.4
			c-0.2-0.5-0.4-1.1-0.5-1.7c0.6,0.4,0.4,1.4,1.3,1.5c0,0.1-0.1,0.3-0.1,0.4C97.3,14.5,96.9,14.5,96.9,14.4L96.9,14.4z M99.2,21.2
			c-0.4-0.8-1.8-0.6-1.8-2l2,1.8L99.2,21.2z M99.8,11.2c0.8,0.3,0.8,0.8,0.7,1.4l-0.7-0.4c0,0.3-0.1,0.4-0.1,0.5
			c-0.1,1.5-0.4,1.7-2,1.5c0.7-0.2,0.6-0.8,0.8-1.3c0.3-0.4,0.4-1,0.1-1.4c-0.1-0.4,0-0.8,0.2-1.1c0.4-0.6,0.8-1.1,1.2-1.6
			c0.1-0.1,0.2-0.1,0.3-0.1l0.2,0.1c-0.3,0.4-0.6,0.9-1,1.3S99.2,11,99.8,11.2L99.8,11.2z M104.9,8.6l-0.6,0.6
			c-0.5-0.1-0.5-0.1-0.8-1.3l1.9,0.2L104.9,8.6z M111.3,27.9l-1.2-1.9c0.3-0.3,0.6-0.2,0.8,0.2c0.1,0.3,0.3,0.6,0.4,0.8
			c0.3,0.3,0.6,0.5,0.9,0.7L111.3,27.9z M109.5-0.2c0,0,0-0.3,0.1-0.4c0.4-0.5,0.9-0.5,1.2,0.1c-0.3,0.1-0.6,0.3-0.8,0.4
			C109.7,0,109.6-0.1,109.5-0.2z M120.7,33.7l0.7,1c-0.1,0.2-0.3,0.3-0.4,0.4c-0.1,0.1-0.3,0.1-0.4,0c-0.1-0.1-0.2-0.2-0.2-0.3
			C120.5,34.4,120.6,34.1,120.7,33.7z M65.8,30.4h1v0.4c-0.3,0-0.7,0-1,0C65.7,30.7,65.7,30.6,65.8,30.4z"/>
	</defs>
	<clipPath id="SVGID_3_">
		<use xlink:href="#SVGID_2_"  style="overflow:visible;"/>
	</clipPath>
	<g class="st2">
		<path class="st3" d="M168.2,38.5c-0.2,2.3-2.2,4.1-4.5,3.9H9.3C7,42.6,5,40.9,4.9,38.5V5.9C5,3.5,7,1.8,9.3,1.9h154.3
			c2.3-0.1,4.3,1.6,4.5,3.9L168.2,38.5z"/>
	</g>
</g>
<g class="st4">
	<path class="st5" d="M83.4,20v-1.2c0-0.1,0-0.2,0-0.3c0-0.1-0.1-0.2-0.1-0.2c0,0,0,0,0,0c0,0,0,0,0,0c-0.1-0.1-0.1-0.1-0.2-0.2
		c-0.1,0-0.2-0.1-0.3-0.1c0,0-0.1,0-0.1,0s-0.1,0-0.2,0c0,0-0.1,0-0.1,0c0,0-0.1,0-0.1,0l-0.5-0.3h4.6l-0.5,0.3c0,0,0,0-0.1,0
		c0,0,0,0-0.1,0c0,0-0.1,0-0.1,0.1c0,0-0.1,0-0.1,0c-0.1,0-0.2,0.1-0.3,0.1s-0.1,0.1-0.2,0.2c0,0.1-0.1,0.2-0.1,0.5
		c0,0.2,0,0.5,0,0.8c0,0,0,0,0,0.1c0,0,0,0.1,0,0.1c0,0.2,0,0.3,0,0.5s0,0.3,0,0.4l0.1,0.9l-0.9,0.4c-0.1,0-0.1,0.1-0.2,0.1
		c-0.1,0-0.1,0-0.2,0.1c-0.4,0.1-0.9,0.3-1.5,0.4c-0.6,0.1-1.3,0.2-2.1,0.2c-0.2,0-0.3,0-0.5,0c-0.2,0-0.4,0-0.5-0.1
		c-1.2-0.3-2.4-0.9-3.4-1.9c-1.1-1-1.6-2.3-1.7-3.8c0,0,0,0,0-0.1c0,0,0,0,0-0.1c0,0,0,0,0,0s0,0,0,0c0-1.8,0.7-3.3,2-4.5
		c1.3-1.2,2.9-1.8,4.6-1.9c0.1,0,0.2,0,0.4,0s0.2,0,0.3,0c0.4,0,0.9,0,1.2,0.1c0.4,0.1,0.7,0.1,1.1,0.2c0.1,0,0.1,0,0.2,0.1
		c0.1,0,0.1,0.1,0.2,0.1l0.7,0.2l-0.2,3.4l-0.3-1.3c-0.1-0.3-0.1-0.5-0.2-0.8c-0.1-0.3-0.2-0.4-0.4-0.6c0,0-0.1,0-0.1-0.1
		c-0.1,0-0.1-0.1-0.2-0.1c-0.2-0.1-0.5-0.1-0.8-0.2c-0.3-0.1-0.6-0.1-1-0.1c-0.1,0-0.2,0-0.3,0c-0.1,0-0.2,0-0.3,0c0,0-0.1,0-0.1,0
		s-0.1,0-0.2,0c-1.4,0.1-2.6,0.6-3.6,1.6c-1,1-1.5,2.2-1.5,3.7c0,0,0,0,0,0c0,0,0,0,0,0c0,0,0,0,0,0.1c0,0,0,0,0,0.1
		c0.1,1.7,0.6,3,1.6,3.9c1,1,2.3,1.4,3.8,1.4c0.1,0,0.2,0,0.3,0c0.1,0,0.2,0,0.3,0c0.5-0.1,0.9-0.2,1.3-0.4s0.7-0.4,0.8-0.6
		c0,0,0-0.1,0-0.1c0,0,0,0,0-0.1c0-0.1,0-0.2,0-0.3C83.4,20.3,83.4,20.1,83.4,20L83.4,20z"/>
	<path class="st5" d="M93.1,10.3C93.1,10.3,93.1,10.4,93.1,10.3c0.1,0,0.1,0,0.2,0c0,0,0,0,0.1,0c0,0,0.1,0,0.1,0
		c1.7,0,3.1,0.5,4.4,1.6c1.2,1.1,1.9,2.6,1.9,4.4c0,1.9-0.6,3.4-1.9,4.5c-1.3,1.1-2.9,1.7-4.6,1.7c-1.7,0-3.1-0.6-4.3-1.8
		S87,18.1,87,16.4c0-1.7,0.6-3.1,1.8-4.2C90,11,91.4,10.4,93.1,10.3L93.1,10.3z M93,11.2c-1.5,0.1-2.6,0.6-3.4,1.6
		c-0.8,1-1.3,2.2-1.3,3.6c0,1.3,0.5,2.5,1.4,3.6s2,1.7,3.4,1.7c0,0,0.1,0,0.1,0s0.1,0,0.1,0c0,0,0,0,0.1,0c0,0,0.1,0,0.1,0
		c1.3,0,2.4-0.5,3.4-1.4c1-0.9,1.4-2.1,1.4-3.6c0-1.4-0.5-2.7-1.5-3.8c-1-1.1-2.2-1.7-3.6-1.6c0,0,0,0,0,0
		C93.2,11.2,93.2,11.2,93,11.2C93.1,11.2,93.1,11.2,93,11.2C93.1,11.2,93.1,11.2,93,11.2L93,11.2z"/>
	<path class="st5" d="M103.9,20.8c0,0.1,0,0.2,0,0.3c0,0.1,0.1,0.2,0.1,0.3c0.1,0.1,0.1,0.1,0.3,0.1c0.1,0,0.2,0,0.3,0
		c0,0,0.1,0,0.1,0c0,0,0,0,0.1,0l2,0c0.1,0,0.2,0,0.2,0c0.1,0,0.2,0,0.2,0c0.1,0,0.2,0,0.3-0.1c0.1,0,0.2-0.1,0.3-0.1
		c0.1-0.1,0.3-0.2,0.3-0.4c0.1-0.1,0.1-0.3,0.2-0.5c0,0,0-0.1,0-0.1c0,0,0-0.1,0-0.1l0.2-0.6v2.7h-8.1l0.4-0.1c0.1,0,0.2,0,0.3-0.1
		c0.1,0,0.2-0.1,0.3-0.1c0.1,0,0.2-0.1,0.3-0.1c0.1,0,0.2-0.1,0.3-0.1c0.1,0,0.1,0,0.1-0.1c0,0,0.1-0.1,0.1-0.1c0,0,0-0.1,0.1-0.1
		c0,0,0-0.1,0.1-0.1c0-0.1,0-0.1,0-0.2c0-0.1,0-0.1,0-0.2c0,0,0-0.1,0-0.1s0-0.1,0-0.2v-8.7c0,0,0,0,0-0.1c0,0,0-0.1,0-0.1
		c0,0,0,0,0-0.1s0-0.1,0-0.1c0,0,0-0.1,0-0.1c0,0,0-0.1,0-0.1c0-0.1,0-0.1,0-0.2c0-0.1-0.1-0.1-0.1-0.2c0,0-0.1,0-0.1-0.1
		c0,0-0.1-0.1-0.1-0.1c-0.1,0-0.2-0.1-0.3-0.1c-0.1,0-0.2-0.1-0.3-0.1c-0.1,0-0.2-0.1-0.3-0.1c-0.1,0-0.2-0.1-0.3-0.1l-0.4-0.1h5.4
		l-0.4,0.1c-0.1,0-0.1,0.1-0.2,0.1s-0.2,0-0.3,0.1c0,0,0,0-0.1,0c0,0,0,0-0.1,0c-0.2,0-0.4,0.1-0.5,0.2s-0.3,0.1-0.3,0.2
		c0,0,0,0,0,0.1c0,0,0,0,0,0.1c-0.1,0.1-0.1,0.2-0.1,0.4c0,0.1,0,0.3,0,0.4V20.8z"/>
	<path class="st5" d="M122.1,15.8c0,0.1,0,0.3,0,0.4c0,0.1,0,0.2,0,0.4c0,1.3-0.3,2.4-0.9,3.2c-0.6,0.8-1.3,1.4-2,1.8
		c-0.5,0.3-1,0.5-1.4,0.7c-0.5,0.1-0.8,0.2-1.1,0.3c-0.1,0-0.3,0-0.5,0.1c-0.2,0-0.4,0-0.6,0c-0.1,0-0.2,0-0.3,0c-0.1,0-0.2,0-0.3,0
		c-0.1,0-0.3,0-0.4,0c-0.1,0-0.3,0-0.4,0c-0.2,0-0.5,0-0.7,0s-0.4,0-0.5,0h-3.4l0.4-0.1c0.1,0,0.2,0,0.3-0.1c0.1,0,0.2-0.1,0.3-0.1
		c0.2-0.1,0.4-0.1,0.5-0.2c0.2-0.1,0.3-0.2,0.3-0.2c0,0,0,0,0-0.1s0,0,0,0c0.1-0.1,0.1-0.2,0.1-0.3c0-0.1,0-0.2,0-0.3v-8.7
		c0-0.1,0-0.3,0-0.4c0-0.1-0.1-0.2-0.2-0.3c-0.1-0.1-0.2-0.2-0.4-0.2s-0.3-0.1-0.5-0.2c-0.1,0-0.2-0.1-0.3-0.1s-0.2-0.1-0.3-0.1
		l-0.4-0.1h2.9c0.1,0,0.3,0,0.5,0s0.4,0,0.6,0c0.2,0,0.5,0,0.7,0s0.5,0,0.8,0c0.2,0,0.4,0,0.6,0c0.2,0,0.4,0,0.6,0
		c0.1,0,0.3,0,0.4,0s0.3,0,0.4,0c0.3,0,0.6,0.1,0.9,0.2c0.3,0.1,0.7,0.3,1.1,0.5c0.7,0.4,1.3,0.9,1.9,1.7S122,14.7,122.1,15.8
		L122.1,15.8z M113,12.1v8.6c0,0.2,0,0.3,0.1,0.5c0,0.1,0.1,0.2,0.3,0.3c0,0,0,0,0,0c0,0,0,0,0.1,0c0.1,0,0.4,0.1,0.7,0.1s0.7,0,1,0
		c0.1,0,0.2,0,0.2,0c0.1,0,0.2,0,0.2,0c0.3,0,0.7,0,1-0.1c0.3-0.1,0.6-0.1,0.8-0.2c0.2-0.1,0.4-0.2,0.6-0.3s0.5-0.2,0.7-0.4
		c0.5-0.3,0.9-0.7,1.3-1.3c0.4-0.6,0.6-1.4,0.7-2.5c0,0,0,0,0-0.1s0,0,0-0.1c0,0,0,0,0,0s0,0,0,0c0-1.2-0.4-2.2-1.1-3.2
		s-1.7-1.6-3-1.9c-0.1,0-0.4-0.1-0.7-0.1c-0.3,0-0.7,0-1.1,0c0,0,0,0,0,0c0,0,0,0,0,0c-0.4,0-0.7,0-1,0c-0.3,0-0.5,0.1-0.7,0.1
		c-0.1,0-0.1,0.1-0.2,0.2C113,11.9,113,12,113,12.1L113,12.1z"/>
</g>
<path id="_Path_" class="st6" d="M31.3,2.9L31.3,2.9c-0.4-0.1-0.7-0.5-0.8-0.9c0-0.5,0.3-1,0.8-1.2c1.3-0.5,2.8-0.2,3.8,0.9l0.6-0.1
	c-0.9-1.2-2.4-1.8-3.9-1.5c-0.9,0.2-1.7,0.6-2.3,1.2C29,1.7,28.3,2,27.6,1.9h-0.5c-5.5,0-10,4.5-9.9,10.1c0,2.6,1,5.1,2.8,7l0,0
	c0.9,0.8,1.4,2,1.3,3.2l0,0C20.2,30.5,19.2,44.9,27,43l-0.2-0.2c0,0-7,1.2-4.1-19c0.1-1.2,1.1-2,2.3-1.9c0.1,0,0.2,0,0.2,0h0.1h0.1
	c0.1,0,0.3,0.1,0.4,0.1c0.4,0.1,0.8,0.1,1.2,0.1c5.6-0.2,10-4.8,9.8-10.4C36.8,7.9,34.6,4.5,31.3,2.9z"/>
<linearGradient id="SVGID_4_" gradientUnits="userSpaceOnUse" x1="8.5802" y1="46.6973" x2="39.4431" y2="25.0952" gradientTransform="matrix(1 0 0 -1 -0.14 54)">
	<stop  offset="5.000000e-02" style="stop-color:#73452B"/>
	<stop  offset="0.23" style="stop-color:#FEE100"/>
	<stop  offset="0.26" style="stop-color:#FCF065"/>
	<stop  offset="0.43" style="stop-color:#DCBF25"/>
	<stop  offset="0.52" style="stop-color:#BD9331"/>
	<stop  offset="0.59" style="stop-color:#A07334"/>
	<stop  offset="0.68" style="stop-color:#AE8433"/>
	<stop  offset="0.88" style="stop-color:#623529"/>
	<stop  offset="1" style="stop-color:#AE7A2F"/>
</linearGradient>
<path class="st7" d="M47,8.3c3.3,9.7-6.5,21.6-21.2,26S3.2,33.9,0.5,26.8C-1.7,20.9,3.2,9.9,16.8,4.5C29.9-0.7,44.3,0.2,47,8.3z"/>
<linearGradient id="SVGID_5_" gradientUnits="userSpaceOnUse" x1="7.4216" y1="23.9685" x2="38.6193" y2="55.1662" gradientTransform="matrix(1 0 0 -1 -0.14 54)">
	<stop  offset="0" style="stop-color:#FFFFFF"/>
	<stop  offset="1" style="stop-color:#E9E8EA"/>
</linearGradient>
<path class="st8" d="M44.7,5.2c3.6,6.4-6.7,16.1-21.4,20.5S2.1,27.1,0.4,22c-1-3,5.5-13.4,16.3-17.5C29.9-0.5,42.3,1,44.7,5.2z"/>
<path class="st9" d="M14.9,36.3c-7.1,0-12.2-3.5-12.3-9.9C2.5,12.2,18.4,0.8,31.7,1.3C43.9,1.6,43.2,11.7,32,17.1
	c-3.6,1.7-9,3.1-12.3,3c-2-0.1-2.3-1.1,0.1-1.1c2,0,7.1-1.2,11.3-3.4c11-6,6.1-13.4-2.3-9.6c-6.5,3-14,11.6-15.3,18.9
	c-0.8,4.7,1.2,8.3,6,8.1c8.4-0.1,23.1-12.5,28.7-17.8c1.8-1.8,1.8,0.4,0.7,1.3C39.7,25,28.1,36.2,14.9,36.3z"/>
<path class="st10" d="M169.1,38c-7.3,6.7-15.7,10.2-21.3,10.7c1.9,2.2,4.2,4.1,6.8,5.5c5.4-0.8,12.6-3.8,19.8-9.2
	c0.8,1.6,1.6,2.5,2.4,4.3l2-14.5c-1.3,0-11.2-0.4-13.8-0.6C166.7,35.7,167.3,36.3,169.1,38z"/>
<linearGradient id="SVGID_6_" gradientUnits="userSpaceOnUse" x1="140.61" y1="11.1658" x2="177.22" y2="11.1658" gradientTransform="matrix(1 0 0 -1 -0.14 54)">
	<stop  offset="5.000000e-02" style="stop-color:#73452B"/>
	<stop  offset="0.23" style="stop-color:#FEE100"/>
	<stop  offset="0.26" style="stop-color:#FCF065"/>
	<stop  offset="0.43" style="stop-color:#DCBF25"/>
	<stop  offset="0.52" style="stop-color:#BD9331"/>
	<stop  offset="0.59" style="stop-color:#A07334"/>
	<stop  offset="0.68" style="stop-color:#AE8433"/>
	<stop  offset="0.88" style="stop-color:#623529"/>
	<stop  offset="1" style="stop-color:#AE7A2F"/>
</linearGradient>
<path class="st11" d="M175.1,47.8c-0.8-1.7-1.6-2.7-2.4-4.3c-12.6,9.4-24.8,11.3-28.5,7.8l-1.3-1.5c-0.9-1.1-1.6-2.3-2.3-3.6
	l-0.1-0.3c2.4,3.4,16,0.7,26.9-9.5c-1.9-1.7-2.4-2.2-4.1-3.7c2.6,0.2,12.5,0.6,13.8,0.6L175.1,47.8z"/>
<g class="st4">
	<path class="st5" d="M69,27.5c0.1,0.3,0.3,0.7,0.6,1.1c0.2,0.4,0.5,0.9,0.8,1.4c0,0.1,0.1,0.1,0.1,0.1c0,0,0.1,0.1,0.1,0.1
		c0.4,0.7,0.7,1.3,1.1,1.8c0.3,0.6,0.5,0.9,0.6,1c0.2-0.4,0.6-1,1-1.8c0.4-0.8,0.9-1.6,1.3-2.5c0,0,0-0.1,0.1-0.1c0,0,0-0.1,0.1-0.1
		c0.1-0.1,0.1-0.2,0.2-0.4c0.1-0.1,0.1-0.2,0.2-0.4c0.1-0.1,0.1-0.2,0.2-0.3c0-0.1,0.1-0.2,0.1-0.3c0,0,0,0,0-0.1c0,0,0,0,0-0.1
		c0-0.1,0.1-0.2,0.1-0.3c0-0.1,0.1-0.2,0.1-0.3l0.6,0c0,0.1,0,0.3,0,0.4c0,0.1,0,0.2,0,0.3c0,0,0,0.1,0,0.1s0,0,0,0.1
		c0,0.1,0,0.3,0,0.4c0,0.1,0,0.3,0,0.4c0,0.3,0,0.6,0.1,0.9c0,0.3,0.1,0.6,0.1,0.9c0.1,0.9,0.1,1.7,0.2,2.4c0.1,0.7,0.1,1.1,0.1,1.1
		c0,0,0,0,0,0.1c0,0,0,0,0,0.1c0,0.1,0,0.2,0.1,0.3c0,0.1,0.1,0.2,0.1,0.2c0,0.1,0.1,0.1,0.2,0.2c0.1,0.1,0.2,0.1,0.4,0.1
		c0.1,0,0.1,0,0.2,0.1c0.1,0,0.1,0,0.2,0.1l0.2,0.1h-3.4l0.4-0.1c0,0,0.1,0,0.1,0c0,0,0.1,0,0.1,0c0,0,0,0,0,0c0,0,0,0,0,0
		c0.1,0,0.2-0.1,0.3-0.1c0.1,0,0.2-0.1,0.2-0.2C76,34.1,76,34.1,76,34c0-0.1,0-0.2,0-0.2c0,0,0-0.1,0-0.1c0,0,0-0.1,0-0.1
		c0,0,0-0.1,0-0.1c0,0,0-0.1,0-0.1l-0.5-5c-0.1,0.2-0.3,0.6-0.6,1.1c-0.3,0.5-0.6,1.1-0.9,1.7c-0.2,0.4-0.4,0.8-0.6,1.2
		c-0.2,0.4-0.4,0.7-0.6,1c0,0.1-0.1,0.1-0.1,0.2c0,0.1-0.1,0.1-0.1,0.2c0,0,0,0,0,0.1s0,0.1,0,0.1c-0.1,0.2-0.2,0.4-0.3,0.6
		c-0.1,0.2-0.1,0.3-0.2,0.4c0-0.1-0.1-0.2-0.2-0.3s-0.2-0.3-0.3-0.5c0,0,0,0,0,0c0-0.1-0.1-0.1-0.1-0.2s-0.1-0.1-0.1-0.2
		c-0.8-1.5-1.5-2.7-2-3.5c-0.5-0.9-0.8-1.4-0.9-1.6l-0.3,4.2c0,0,0,0.1,0,0.1s0,0.1,0,0.2c0,0.1,0,0.2,0,0.2c0,0.1,0,0.2,0,0.3
		c0,0,0,0,0,0s0,0,0,0c0,0.1,0,0.2,0,0.3c0,0.1,0,0.2,0.1,0.3c0,0.1,0.1,0.1,0.2,0.2s0.2,0.1,0.3,0.1c0,0,0,0,0,0c0,0,0,0,0,0
		c0,0,0.1,0,0.1,0c0,0,0.1,0,0.1,0l0.3,0.1h-2.9l0.2-0.1c0,0,0,0,0.1,0c0,0,0,0,0.1,0c0,0,0,0,0.1,0c0,0,0,0,0.1,0
		c0.1-0.1,0.2-0.1,0.4-0.2c0.1-0.1,0.2-0.1,0.2-0.2c0-0.1,0.1-0.2,0.1-0.4c0-0.2,0-0.4,0.1-0.6c0-0.1,0-0.1,0-0.1c0,0,0-0.1,0-0.1
		c0-0.3,0.1-0.5,0.1-0.8s0-0.6,0.1-0.8c0-0.6,0.1-1.1,0.1-1.7s0-1,0.1-1.2c0-0.2,0-0.4,0-0.5c0-0.2,0-0.3,0-0.5c0-0.1,0-0.1,0-0.2
		s0-0.1,0-0.2c0-0.1,0-0.1,0-0.1s0-0.1,0-0.1l0.6,0c0,0.1,0,0.2,0.1,0.3c0,0.1,0.1,0.2,0.1,0.3c0,0,0,0.1,0,0.1s0,0.1,0.1,0.1
		C69,27.4,69,27.4,69,27.5C69,27.5,69,27.5,69,27.5L69,27.5z"/>
	<path class="st5" d="M86.5,26.6l0,1.8l-0.2-0.4c0,0,0-0.1,0-0.1c0,0,0-0.1,0-0.1c0-0.1-0.1-0.2-0.1-0.3c0-0.1-0.1-0.1-0.2-0.2
		c-0.1,0-0.1-0.1-0.2-0.1c-0.1,0-0.1,0-0.2,0c0,0-0.1,0-0.1,0c0,0-0.1,0-0.1,0l-1.4,0c0,0,0,0,0,0c0,0,0,0-0.1,0c-0.1,0-0.2,0-0.3,0
		c-0.1,0-0.1,0-0.2,0.1c0,0,0,0.1-0.1,0.1c0,0.1,0,0.1,0,0.2c0,0,0,0,0,0c0,0,0,0,0,0c0,0,0,0,0,0v2.6h1.6c0,0,0.1,0,0.1,0
		c0,0,0.1,0,0.1,0c0.1,0,0.2,0,0.2,0c0.1,0,0.1,0,0.2-0.1c0,0,0,0,0,0s0,0,0,0c0,0,0.1-0.1,0.1-0.1c0,0,0-0.1,0.1-0.1l0.2-0.5V32
		l-0.1-0.3c0,0,0,0,0-0.1c0,0,0-0.1,0-0.1c0,0,0,0,0,0c0,0,0,0,0,0c0-0.1-0.1-0.2-0.1-0.3c0-0.1-0.1-0.2-0.2-0.2
		c0,0-0.1-0.1-0.1-0.1c0,0-0.1,0-0.1,0c0,0-0.1,0-0.1,0s-0.1,0-0.2,0c0,0,0,0,0,0c0,0,0,0,0,0h-1.6v2.7c0,0,0,0.1,0,0.1
		c0,0,0,0.1,0,0.1c0,0.1,0,0.2,0.1,0.2s0.1,0.1,0.1,0.1c0.1,0,0.1,0,0.2,0.1c0,0,0.1,0,0.1,0c0,0,0,0,0.1,0c0,0,0,0,0.1,0
		c0,0,0,0,0.1,0s0,0,0.1,0l1.8,0c0,0,0,0,0.1,0s0,0,0.1,0c0,0,0,0,0.1,0s0,0,0.1,0c0,0,0.1,0,0.1,0c0,0,0.1,0,0.1,0
		c0.1,0,0.1-0.1,0.1-0.2c0-0.1,0.1-0.2,0.1-0.3c0,0,0,0,0-0.1c0,0,0,0,0-0.1c0,0,0-0.1,0-0.1c0,0,0-0.1,0-0.1l0.1-0.4l-0.1,1.8H81
		l0.3-0.1c0.1,0,0.1,0,0.2,0c0.1,0,0.2,0,0.2-0.1c0.1,0,0.1-0.1,0.2-0.1c0.1,0,0.1-0.1,0.2-0.1c0,0,0.1,0,0.1-0.1c0,0,0.1,0,0.1-0.1
		c0,0,0.1-0.1,0.1-0.1c0-0.1,0-0.1,0-0.2c0,0,0,0,0-0.1c0,0,0,0,0-0.1c0,0,0-0.1,0-0.1s0-0.1,0-0.1v-6c0,0,0-0.1,0-0.1
		c0,0,0-0.1,0-0.1c0-0.1,0-0.1,0-0.2c0-0.1,0-0.1-0.1-0.2c0,0,0,0-0.1-0.1c0,0-0.1,0-0.1-0.1c-0.1,0-0.1-0.1-0.2-0.1
		c-0.1,0-0.1-0.1-0.2-0.1c-0.1,0-0.2,0-0.2-0.1c-0.1,0-0.1,0-0.2-0.1L81,26.6H86.5z"/>
	<path class="st5" d="M92.2,27.5c0.1,0.3,0.3,0.7,0.6,1.1s0.5,0.9,0.8,1.4c0,0.1,0.1,0.1,0.1,0.1c0,0,0.1,0.1,0.1,0.1
		c0.4,0.7,0.7,1.3,1.1,1.8c0.3,0.6,0.5,0.9,0.6,1c0.2-0.4,0.6-1,1-1.8c0.4-0.8,0.9-1.6,1.3-2.5c0,0,0-0.1,0.1-0.1c0,0,0-0.1,0.1-0.1
		c0.1-0.1,0.1-0.2,0.2-0.4c0.1-0.1,0.1-0.2,0.2-0.4c0.1-0.1,0.1-0.2,0.2-0.3c0-0.1,0.1-0.2,0.1-0.3c0,0,0,0,0-0.1c0,0,0,0,0-0.1
		c0-0.1,0.1-0.2,0.1-0.3c0-0.1,0.1-0.2,0.1-0.3l0.6,0c0,0.1,0,0.3,0,0.4c0,0.1,0,0.2,0,0.3c0,0,0,0.1,0,0.1s0,0,0,0.1
		c0,0.1,0,0.3,0,0.4c0,0.1,0,0.3,0,0.4c0,0.3,0,0.6,0.1,0.9c0,0.3,0.1,0.6,0.1,0.9c0.1,0.9,0.1,1.7,0.2,2.4c0.1,0.7,0.1,1.1,0.1,1.1
		c0,0,0,0,0,0.1c0,0,0,0,0,0.1c0,0.1,0,0.2,0.1,0.3c0,0.1,0.1,0.2,0.1,0.2c0,0.1,0.1,0.1,0.2,0.2c0.1,0.1,0.2,0.1,0.4,0.1
		c0.1,0,0.1,0,0.2,0.1s0.1,0,0.2,0.1l0.2,0.1H98l0.4-0.1c0,0,0.1,0,0.1,0c0,0,0.1,0,0.1,0c0,0,0,0,0,0c0,0,0,0,0,0
		c0.1,0,0.2-0.1,0.3-0.1s0.2-0.1,0.2-0.2c0.1-0.1,0.1-0.2,0.1-0.3c0-0.1,0-0.2,0-0.2c0,0,0-0.1,0-0.1c0,0,0-0.1,0-0.1
		c0,0,0-0.1,0-0.1c0,0,0-0.1,0-0.1l-0.5-5c-0.1,0.2-0.3,0.6-0.6,1.1c-0.3,0.5-0.6,1.1-0.9,1.7c-0.2,0.4-0.4,0.8-0.6,1.2
		c-0.2,0.4-0.4,0.7-0.6,1c0,0.1-0.1,0.1-0.1,0.2c0,0.1-0.1,0.1-0.1,0.2c0,0,0,0,0,0.1s0,0.1,0,0.1c-0.1,0.2-0.2,0.4-0.3,0.6
		c-0.1,0.2-0.1,0.3-0.2,0.4c0-0.1-0.1-0.2-0.2-0.3C95,34.4,95,34.2,94.9,34c0,0,0,0,0,0c0-0.1-0.1-0.1-0.1-0.2s-0.1-0.1-0.1-0.2
		c-0.8-1.5-1.5-2.7-2-3.5c-0.5-0.9-0.8-1.4-0.9-1.6l-0.3,4.2c0,0,0,0.1,0,0.1c0,0,0,0.1,0,0.2c0,0.1,0,0.2,0,0.2c0,0.1,0,0.2,0,0.3
		c0,0,0,0,0,0s0,0,0,0c0,0.1,0,0.2,0,0.3c0,0.1,0,0.2,0.1,0.3c0,0.1,0.1,0.1,0.2,0.2s0.2,0.1,0.3,0.1c0,0,0,0,0,0c0,0,0,0,0,0
		c0,0,0.1,0,0.1,0c0,0,0.1,0,0.1,0l0.3,0.1h-2.9l0.2-0.1c0,0,0,0,0.1,0c0,0,0,0,0.1,0c0,0,0,0,0.1,0c0,0,0,0,0.1,0
		c0.1-0.1,0.2-0.1,0.4-0.2c0.1-0.1,0.2-0.1,0.2-0.2c0-0.1,0.1-0.2,0.1-0.4c0-0.2,0-0.4,0.1-0.6c0-0.1,0-0.1,0-0.1s0-0.1,0-0.1
		c0-0.3,0.1-0.5,0.1-0.8c0-0.3,0-0.6,0.1-0.8c0-0.6,0.1-1.1,0.1-1.7c0-0.5,0-1,0.1-1.2c0-0.2,0-0.4,0-0.5c0-0.2,0-0.3,0-0.5
		c0-0.1,0-0.1,0-0.2s0-0.1,0-0.2c0-0.1,0-0.1,0-0.1s0-0.1,0-0.1l0.6,0c0,0.1,0,0.2,0.1,0.3s0.1,0.2,0.1,0.3c0,0,0,0.1,0,0.1
		s0,0.1,0.1,0.1C92.2,27.4,92.2,27.4,92.2,27.5C92.2,27.5,92.2,27.5,92.2,27.5L92.2,27.5z"/>
	<path class="st5" d="M106.2,26.6c0.1,0,0.2,0,0.3,0c0.1,0,0.2,0,0.3,0c0.1,0,0.1,0,0.2,0c0.1,0,0.1,0,0.2,0c0.1,0,0.2,0,0.4,0
		c0.1,0,0.3,0,0.4,0c0.5,0,1,0.2,1.4,0.5c0.4,0.3,0.6,0.7,0.7,1.3c0,0,0,0,0,0c0,0,0,0,0,0c0,0,0,0,0,0c0,0,0,0,0,0
		c0,0.4-0.1,0.7-0.3,1c-0.2,0.3-0.5,0.5-0.9,0.7l-0.3,0.2l0.6,0.2c0.4,0.1,0.8,0.4,1,0.7c0.3,0.3,0.4,0.7,0.4,1.1c0,0,0,0,0,0.1
		c0,0,0,0,0,0.1c0,0.5-0.2,1-0.7,1.4c-0.4,0.4-0.9,0.6-1.4,0.7c-0.1,0-0.2,0-0.3,0s-0.2,0-0.3,0c0,0-0.1,0-0.1,0s-0.1,0-0.1,0
		c-0.1,0-0.2,0-0.2,0c-0.1,0-0.1,0-0.2,0c0,0,0,0-0.1,0c0,0,0,0-0.1,0c-0.1,0-0.2,0-0.3,0c-0.1,0-0.2,0-0.3,0h-2.3l0.2-0.1
		c0.1,0,0.1,0,0.2-0.1c0.1,0,0.1,0,0.2-0.1c0.1,0,0.2-0.1,0.4-0.1c0.1-0.1,0.2-0.1,0.2-0.2c0,0,0,0,0,0c0,0,0,0,0,0
		c0-0.1,0.1-0.1,0.1-0.2s0-0.1,0-0.2v-6c0-0.1,0-0.2,0-0.3c0-0.1,0-0.2-0.1-0.2c0-0.1-0.1-0.1-0.2-0.2c-0.1,0-0.2-0.1-0.4-0.1
		c-0.1,0-0.2-0.1-0.2-0.1s-0.1-0.1-0.2-0.1l-0.2-0.1H106.2z M107.6,27.1C107.5,27.1,107.5,27.1,107.6,27.1c-0.1,0-0.1,0-0.1,0
		c0,0-0.1,0-0.1,0s-0.1,0-0.1,0c-0.1,0-0.2,0-0.4,0s-0.2,0-0.2,0.1c-0.1,0-0.1,0.1-0.1,0.2c0,0.1,0,0.2,0,0.2c0,0,0,0,0,0v2.6h0.5
		c0.1,0,0.1,0,0.2,0c0.1,0,0.1,0,0.2,0c0.4-0.1,0.8-0.2,1.1-0.5c0.3-0.3,0.5-0.6,0.5-1.1c0,0,0,0,0,0s0,0,0,0c0,0,0,0,0,0
		c0,0,0,0,0,0c-0.1-0.5-0.2-0.9-0.5-1.1S107.9,27.1,107.6,27.1L107.6,27.1z M106.7,34.1c0.1,0,0.2,0.1,0.3,0.1c0.1,0,0.3,0,0.5,0
		c0.1,0,0.2,0,0.3,0s0.2,0,0.3,0c0.5-0.1,0.9-0.3,1.2-0.6c0.2-0.3,0.4-0.6,0.4-1c0,0,0-0.1,0-0.1c0,0,0-0.1,0-0.1
		c0-0.5-0.3-0.9-0.7-1.1c-0.4-0.2-0.9-0.4-1.4-0.4c0,0-0.1,0-0.1,0c0,0-0.1,0-0.1,0h-0.7v2.9c0,0.1,0,0.2,0,0.3
		C106.6,34,106.6,34.1,106.7,34.1L106.7,34.1z"/>
	<path class="st5" d="M118.8,26.6l0,1.8l-0.2-0.4c0,0,0-0.1,0-0.1c0,0,0-0.1,0-0.1c0-0.1-0.1-0.2-0.1-0.3s-0.1-0.1-0.2-0.2
		c-0.1,0-0.1-0.1-0.2-0.1c-0.1,0-0.1,0-0.2,0c0,0-0.1,0-0.1,0c0,0-0.1,0-0.1,0l-1.4,0c0,0,0,0,0,0c0,0,0,0-0.1,0c-0.1,0-0.2,0-0.3,0
		c-0.1,0-0.1,0-0.2,0.1c0,0,0,0.1-0.1,0.1s0,0.1,0,0.2c0,0,0,0,0,0c0,0,0,0,0,0c0,0,0,0,0,0v2.6h1.6c0,0,0.1,0,0.1,0
		c0,0,0.1,0,0.1,0c0.1,0,0.2,0,0.2,0s0.1,0,0.2-0.1c0,0,0,0,0,0s0,0,0,0c0,0,0.1-0.1,0.1-0.1s0-0.1,0.1-0.1l0.2-0.5V32l-0.1-0.3
		c0,0,0,0,0-0.1s0-0.1,0-0.1c0,0,0,0,0,0s0,0,0,0c0-0.1-0.1-0.2-0.1-0.3c0-0.1-0.1-0.2-0.2-0.2c0,0-0.1-0.1-0.1-0.1c0,0-0.1,0-0.1,0
		c0,0-0.1,0-0.1,0s-0.1,0-0.2,0c0,0,0,0,0,0s0,0,0,0h-1.6v2.7c0,0,0,0.1,0,0.1c0,0,0,0.1,0,0.1c0,0.1,0,0.2,0.1,0.2
		c0,0.1,0.1,0.1,0.1,0.1c0.1,0,0.1,0,0.2,0.1c0,0,0.1,0,0.1,0c0,0,0,0,0.1,0c0,0,0,0,0.1,0c0,0,0,0,0.1,0c0,0,0,0,0.1,0l1.8,0
		c0,0,0,0,0.1,0c0,0,0,0,0.1,0c0,0,0,0,0.1,0c0,0,0,0,0.1,0c0,0,0.1,0,0.1,0c0,0,0.1,0,0.1,0c0.1,0,0.1-0.1,0.1-0.2s0.1-0.2,0.1-0.3
		c0,0,0,0,0-0.1c0,0,0,0,0-0.1c0,0,0-0.1,0-0.1s0-0.1,0-0.1l0.1-0.4l-0.1,1.8h-5.8l0.3-0.1c0.1,0,0.1,0,0.2,0c0.1,0,0.2,0,0.2-0.1
		c0.1,0,0.1-0.1,0.2-0.1s0.1-0.1,0.2-0.1c0,0,0.1,0,0.1-0.1c0,0,0.1,0,0.1-0.1c0,0,0.1-0.1,0.1-0.1c0-0.1,0-0.1,0-0.2c0,0,0,0,0-0.1
		c0,0,0,0,0-0.1c0,0,0-0.1,0-0.1s0-0.1,0-0.1v-6c0,0,0-0.1,0-0.1c0,0,0-0.1,0-0.1c0-0.1,0-0.1,0-0.2c0-0.1,0-0.1-0.1-0.2
		c0,0,0,0-0.1-0.1c0,0-0.1,0-0.1-0.1c-0.1,0-0.1-0.1-0.2-0.1c-0.1,0-0.1-0.1-0.2-0.1c-0.1,0-0.2,0-0.2-0.1c-0.1,0-0.1,0-0.2-0.1
		l-0.3-0.1H118.8z"/>
	<path class="st5" d="M125.9,30.9l-0.2,0l1.2,1.4c0.1,0.2,0.3,0.3,0.4,0.4c0.1,0.1,0.2,0.3,0.3,0.4c0,0,0.1,0.1,0.1,0.1
		s0.1,0.1,0.1,0.1c0.1,0.1,0.2,0.2,0.3,0.3c0.1,0.1,0.2,0.2,0.3,0.3c0.1,0.1,0.1,0.1,0.2,0.2s0.1,0.1,0.1,0.1c0,0,0.1,0,0.1,0.1
		c0,0,0.1,0,0.1,0.1c0.1,0,0.1,0.1,0.2,0.1c0.1,0,0.2,0.1,0.3,0.2l0.3,0.1l-0.4,0.1c0,0,0,0-0.1,0c0,0,0,0-0.1,0
		c-0.1,0-0.3,0-0.4-0.1c-0.2,0-0.4-0.1-0.5-0.1c-0.2-0.1-0.5-0.3-0.7-0.6s-0.6-0.6-0.9-0.9c0,0,0,0,0,0c0,0,0,0,0,0
		c-0.1-0.1-0.1-0.1-0.2-0.2c-0.1-0.1-0.1-0.1-0.2-0.2l-1.6-1.7h-0.3v2.6c0,0.1,0,0.2,0,0.3c0,0.1,0.1,0.2,0.1,0.3
		c0,0.1,0.1,0.1,0.2,0.1c0.1,0,0.2,0.1,0.4,0.1c0,0,0,0,0.1,0c0,0,0,0,0.1,0c0.1,0,0.1,0,0.2,0c0.1,0,0.1,0,0.1,0l0.2,0.1H122
		l0.3-0.1c0.1,0,0.1,0,0.2,0c0.1,0,0.2,0,0.2-0.1c0.1,0,0.2-0.1,0.2-0.1s0.1-0.1,0.2-0.1c0,0,0.1,0,0.1-0.1c0,0,0,0,0.1-0.1
		c0,0,0.1-0.1,0.1-0.1c0-0.1,0-0.1,0-0.2c0,0,0-0.1,0-0.1s0-0.1,0-0.1c0,0,0,0,0,0c0,0,0,0,0,0v-6c0-0.1,0-0.2,0-0.3
		c0-0.1,0-0.2-0.1-0.2c-0.1-0.1-0.1-0.1-0.2-0.2s-0.2-0.1-0.4-0.2c-0.1,0-0.1-0.1-0.2-0.1c-0.1,0-0.1,0-0.2-0.1l-0.2-0.1h2
		c0.1,0,0.2,0,0.3,0c0.1,0,0.2,0,0.3,0c0,0,0,0,0,0s0,0,0,0c0.1,0,0.2,0,0.2,0c0.1,0,0.2,0,0.3,0c0.1,0,0.2,0,0.2,0s0.2,0,0.3,0
		c0.1,0,0.1,0,0.2,0c0.1,0,0.1,0,0.2,0c0.4,0.1,0.8,0.3,1.2,0.7c0.4,0.4,0.6,0.9,0.6,1.5c0,0.5-0.1,0.9-0.4,1.2
		c-0.2,0.3-0.5,0.5-0.8,0.6c-0.1,0.1-0.3,0.1-0.4,0.2S126,30.9,125.9,30.9L125.9,30.9z M125.4,27.1
		C125.4,27.1,125.4,27.1,125.4,27.1c-0.1,0-0.1,0-0.1,0c0,0,0,0-0.1,0c0,0,0,0-0.1,0c0,0,0,0,0,0c0,0,0,0,0,0c-0.1,0-0.3,0-0.4,0
		c-0.1,0-0.2,0-0.3,0.1c-0.1,0-0.1,0.1-0.1,0.2c0,0.1,0,0.2,0,0.2c0,0,0,0,0,0c0,0,0,0,0,0v3l0.5,0c0.6,0,1.1-0.2,1.5-0.5
		c0.4-0.3,0.6-0.7,0.6-1.3c0,0,0,0,0-0.1c0,0,0,0,0-0.1c0-0.4-0.2-0.8-0.5-1.1s-0.6-0.4-0.9-0.5C125.5,27.1,125.5,27.1,125.4,27.1
		C125.5,27.1,125.4,27.1,125.4,27.1L125.4,27.1z"/>
</g>
</svg>
