<?xml version="1.0"?>
<svg version="1.1" xmlns="http://www.w3.org/2000/svg" width="400" height="200" style=""><path fill="#15181a" d="M36.08,104.4l-1-3.44s-1.88-0.64-4.52-0.64c-4.28,0-6.68,3.12-6.68,9.8c0,6.48,2.52,9.28,6.8,9.28c2.08,0,4.4-0.72,4.4-0.72l0-5.04l-3-0.92l0-3.28l11.52-0.2l0,3.48l-2.72,0.92l0,8.16s-4.12,2.68-10.88,2.68c-8.12,0-12.8-4.88-12.8-14.16c0-9.4,5.28-15,13.48-15c4.84,0,9.32,1.88,9.32,1.88l-0.2,7.2l-3.72,0z M59.9804,102c6.48,0,10.08,3.92,10.08,10.8c0,7.2-4.2,11.6-10.68,11.6c-6.52,0-10.2-3.4-10.2-11c0-7.2,4.28-11.4,10.8-11.4z M59.7804,106.8c-2.92,0-4.4,1.6-4.4,6.4c0,4.4,1.28,6.4,4.2,6.4c2.88,0,4.28-1.8,4.28-6.6c0-4.08-1.2-6.2-4.08-6.2z M78.1208,95.8c0-2.28,1.64-3.6,3.44-3.6c2.08,0,3.36,1.08,3.36,3.6c0,2.36-1.72,3.64-3.36,3.64c-2.16,0-3.44-1.28-3.44-3.64z M84.8408,119.8l2.8,1l0,3.2l-12,0l0-3.2l3.2-1l0-13l-3.2-1l0-3.2l9.2-0.2l0,17.4z M130.3412,120.8l0,3.2l-10.84,0l0-3.2l2.12-1l0-9.52c0-2.2-0.64-3.28-2.32-3.28c-2.6,0-4.44,2.08-4.44,2.08l0,10.72l2.08,1l0,3.2l-10.16,0l0-3.2l2.08-1l0-9.52c0-2.2-0.56-3.28-2.28-3.28c-2.6,0-4.48,2.08-4.48,2.08l0,10.72l2.12,1l0,3.2l-11.2,0l0-3.2l3.08-1l0-13l-3.04-1l0-3.2l8.36-0.2l0.28,2.84s3.48-3.24,7-3.24c2.84,0,4.6,1.32,5.52,3.44c0.68-0.68,3.68-3.44,7.24-3.44c4.2,0,6.16,2.72,6.16,7.2l0,10.6z M155.0416,114.52l-13.28,0c0.24,3.2,2.08,5.08,4.84,5.08c3.32,0,6.72-1.88,6.72-1.88l1.72,3.32s-4,3.36-9.12,3.36c-6.88,0-10.4-4-10.4-10.8c0-7,3.96-11.6,10.68-11.6c5.96,0,9.08,3.68,9.08,9.4c0,1.52-0.24,3-0.24,3.12z M141.8416,110.8l7.24,0c0-2.28-0.96-4-3.28-4c-2.24,0-3.64,1.64-3.96,4z M182.142,105.8l-2.48,0.52l-4.6,6.88l4.52,6.8l2.96,0.8l0,3.2l-10.88,0l0-3.2l1.24-0.44l-2.12-3.52l-4.32,7.16l-6.8,0l0-3.2l3-0.8l4.4-6.6l-4.84-7.08l-2.16-0.52l0-3.2l10.36-0.2l0,3.4l-1.2,0.24l2.08,3.52l4.16-6.96l6.68-0.2l0,3.4z"/><path fill="#" d="M210.0108,101.68l-0.322-1.344s-0.658-0.224-1.568-0.224c-1.47,0-2.31,1.092-2.31,3.43c0,2.268,0.91,3.22,2.38,3.22c1.4,0,2.66-0.98,2.66-0.98l0.77,1.26s-1.47,1.526-3.668,1.526c-2.842,0-4.48-1.708-4.48-4.956c0-3.29,1.848-5.25,4.718-5.25c1.694,0,3.262,0.658,3.262,0.658l-0.07,2.66l-1.372,0z M217.28394,100.7c2.268,0,3.528,1.372,3.528,3.78c0,2.52-1.47,4.06-3.738,4.06c-2.282,0-3.57-1.19-3.57-3.85c0-2.52,1.498-3.99,3.78-3.99z M217.21394,102.38c-1.022,0-1.54,0.56-1.54,2.24c0,1.54,0.448,2.24,1.47,2.24c1.008,0,1.498-0.63,1.498-2.31c0-1.428-0.42-2.17-1.428-2.17z M225.73308,100.84l0.098,0.966s1.33-1.078,2.576-1.078c1.358,0,2.128,0.966,2.128,2.492l0,3.71l0.98,0.35l0,1.12l-3.85,0l0-1.12l0.77-0.35l0-3.332c0-0.644-0.364-1.12-0.952-1.12c-0.868,0-1.498,0.798-1.498,0.798l0,3.654l0.77,0.35l0,1.12l-3.99,0l0-1.12l1.12-0.35l0-4.55l-1.12-0.35l0-1.12z M236.29622,100.84l0.098,0.966s1.33-1.078,2.576-1.078c1.358,0,2.128,0.966,2.128,2.492l0,3.71l0.98,0.35l0,1.12l-3.85,0l0-1.12l0.77-0.35l0-3.332c0-0.644-0.364-1.12-0.952-1.12c-0.868,0-1.498,0.798-1.498,0.798l0,3.654l0.77,0.35l0,1.12l-3.99,0l0-1.12l1.12-0.35l0-4.55l-1.12-0.35l0-1.12z M250.72336,105.082l-4.648,0c0.084,1.12,0.728,1.778,1.694,1.778c1.162,0,2.352-0.658,2.352-0.658l0.602,1.162s-1.4,1.176-3.192,1.176c-2.408,0-3.64-1.4-3.64-3.78c0-2.45,1.386-4.06,3.738-4.06c2.086,0,3.178,1.288,3.178,3.29c0,0.532-0.084,1.05-0.084,1.092z M246.10336,103.78l2.534,0c0-0.798-0.336-1.4-1.148-1.4c-0.784,0-1.274,0.574-1.386,1.4z M258.7105,106.118l0.7,1.232c-0.35,0.308-1.442,1.19-3.01,1.19c-2.31,0-3.64-1.428-3.64-3.808c0-2.492,1.4-4.032,3.85-4.032c1.204,0,2.45,0.49,2.45,0.49l-0.07,2.296l-1.26,0l-0.196-0.994s-0.406-0.112-0.966-0.112c-1.008,0-1.638,0.672-1.638,2.072c0,1.526,0.588,2.408,1.75,2.408c0.98,0,1.596-0.49,2.03-0.742z M266.05364,106.608l0.504,1.064c-0.686,0.504-1.47,0.868-2.38,0.868c-1.61,0-2.072-1.12-2.072-2.73l0-3.22l-1.302,0l0-1.358l1.302-0.182l0-1.932l2.1-0.378l0,2.31l1.96,0l0,1.54l-1.96,0l0,3.08c0,0.896,0.154,1.26,0.742,1.26c0.378,0,0.924-0.224,1.106-0.322z M269.02878,98.53c0-0.798,0.574-1.26,1.204-1.26c0.728,0,1.176,0.378,1.176,1.26c0,0.826-0.602,1.274-1.176,1.274c-0.756,0-1.204-0.448-1.204-1.274z M271.38078,106.93l0.98,0.35l0,1.12l-4.2,0l0-1.12l1.12-0.35l0-4.55l-1.12-0.35l0-1.12l3.22-0.07l0,6.09z M277.21192,100.84l0.098,0.966s1.33-1.078,2.576-1.078c1.358,0,2.128,0.966,2.128,2.492l0,3.71l0.98,0.35l0,1.12l-3.85,0l0-1.12l0.77-0.35l0-3.332c0-0.644-0.364-1.12-0.952-1.12c-0.868,0-1.498,0.798-1.498,0.798l0,3.654l0.77,0.35l0,1.12l-3.99,0l0-1.12l1.12-0.35l0-4.55l-1.12-0.35l0-1.12z M287.53706,107.14l2.072,0c1.778,0,2.8,0.77,2.8,2.17c0,1.54-1.232,2.66-3.92,2.66c-2.198,0-3.612-0.49-3.612-2.03c0-1.204,1.47-1.68,1.47-1.68s-0.84-0.126-0.84-0.924c0-0.406,0.56-1.316,0.728-1.582c-0.336-0.224-1.078-0.826-1.078-2.184c0-1.918,1.442-2.87,3.36-2.87c0.812,0,1.386,0.21,1.652,0.336l2.408-0.056l0,1.12l-1.148,0.196c0.028,0.126,0.238,0.504,0.238,1.106c0,2.03-1.428,2.87-3.36,2.87c-0.378,0-0.658-0.07-0.714-0.07z M288.44706,102.142c-0.84,0-1.19,0.448-1.19,1.33c0,0.84,0.322,1.4,1.12,1.4c0.882,0,1.19-0.462,1.19-1.4c0-0.882-0.35-1.33-1.12-1.33z M289.04906,108.68l-1.47,0s-0.672,0.308-0.672,0.91c0,0.7,0.602,0.84,1.75,0.84c1.26,0,1.792-0.28,1.792-0.952c0-0.63-0.462-0.798-1.4-0.798z M301.80334,98.53l1.47,0c1.82,0,3.08,0.77,3.08,2.422c0,1.218-0.574,1.96-1.68,2.31c1.316,0.378,2.002,1.162,2.002,2.24c0,2.058-1.372,2.898-3.64,2.898l-4.452,0l0-1.19l1.05-0.42l0-6.58l-1.05-0.42l0-1.19z M301.80334,102.562l0.812,0c1.022,0,1.568-0.434,1.568-1.302c0-0.728-0.518-1.05-1.19-1.05l-1.19,0l0,2.352z M301.80334,106.72l1.162,0c0.98,0,1.498-0.448,1.498-1.218c0-1.022-0.588-1.47-1.848-1.47l-0.812,0l0,2.688z M308.48848,102.03l0-1.12l3.22-0.07l0,4.83c0,0.77,0.224,1.12,0.854,1.12c0.91,0,1.582-0.756,1.582-0.756l0-3.654l-1.12-0.35l0-1.12l3.22-0.07l0,6.09l1.12,0.28l0,1.092l-2.954,0.098l-0.14-0.98s-1.12,1.12-2.45,1.12c-1.4,0-2.212-0.938-2.212-2.506l0-3.654z M320.40962,105.95l0.112,0.91s0.49,0.14,1.176,0.14c0.77,0,1.148-0.238,1.148-0.686c0-1.148-3.738-0.728-3.738-3.22c0-1.75,1.4-2.394,2.884-2.394c1.26,0,2.604,0.42,2.604,0.42l-0.056,2.1l-1.19,0l-0.21-0.84s-0.406-0.14-0.966-0.14c-0.602,0-0.966,0.252-0.966,0.714c0,1.134,3.738,0.644,3.738,3.066c0,1.61-1.302,2.52-3.22,2.52c-1.33,0-2.576-0.308-2.576-0.308l0-2.282l1.26,0z M327.76676,98.53c0-0.798,0.574-1.26,1.204-1.26c0.728,0,1.176,0.378,1.176,1.26c0,0.826-0.602,1.274-1.176,1.274c-0.756,0-1.204-0.448-1.204-1.274z M330.11876,106.93l0.98,0.35l0,1.12l-4.2,0l0-1.12l1.12-0.35l0-4.55l-1.12-0.35l0-1.12l3.22-0.07l0,6.09z M335.9499,100.84l0.098,0.966s1.33-1.078,2.576-1.078c1.358,0,2.128,0.966,2.128,2.492l0,3.71l0.98,0.35l0,1.12l-3.85,0l0-1.12l0.77-0.35l0-3.332c0-0.644-0.364-1.12-0.952-1.12c-0.868,0-1.498,0.798-1.498,0.798l0,3.654l0.77,0.35l0,1.12l-3.99,0l0-1.12l1.12-0.35l0-4.55l-1.12-0.35l0-1.12z M350.37704,105.082l-4.648,0c0.084,1.12,0.728,1.778,1.694,1.778c1.162,0,2.352-0.658,2.352-0.658l0.602,1.162s-1.4,1.176-3.192,1.176c-2.408,0-3.64-1.4-3.64-3.78c0-2.45,1.386-4.06,3.738-4.06c2.086,0,3.178,1.288,3.178,3.29c0,0.532-0.084,1.05-0.084,1.092z M345.75704,103.78l2.534,0c0-0.798-0.336-1.4-1.148-1.4c-0.784,0-1.274,0.574-1.386,1.4z M353.71618,105.95l0.112,0.91s0.49,0.14,1.176,0.14c0.77,0,1.148-0.238,1.148-0.686c0-1.148-3.738-0.728-3.738-3.22c0-1.75,1.4-2.394,2.884-2.394c1.26,0,2.604,0.42,2.604,0.42l-0.056,2.1l-1.19,0l-0.21-0.84s-0.406-0.14-0.966-0.14c-0.602,0-0.966,0.252-0.966,0.714c0,1.134,3.738,0.644,3.738,3.066c0,1.61-1.302,2.52-3.22,2.52c-1.33,0-2.576-0.308-2.576-0.308l0-2.282l1.26,0z M361.50732,105.95l0.112,0.91s0.49,0.14,1.176,0.14c0.77,0,1.148-0.238,1.148-0.686c0-1.148-3.738-0.728-3.738-3.22c0-1.75,1.4-2.394,2.884-2.394c1.26,0,2.604,0.42,2.604,0.42l-0.056,2.1l-1.19,0l-0.21-0.84s-0.406-0.14-0.966-0.14c-0.602,0-0.966,0.252-0.966,0.714c0,1.134,3.738,0.644,3.738,3.066c0,1.61-1.302,2.52-3.22,2.52c-1.33,0-2.576-0.308-2.576-0.308l0-2.282l1.26,0z"/></svg>
