<svg xmlns="http://www.w3.org/2000/svg" viewBox="0 0 640 480"><g fill-rule="evenodd"><path fill="#bd3d44" d="M0 0h912v36.94H0zm0 73.88h912v36.93H0zm0 73.78h912v37.03H0zm0 73.87h912v36.94H0zm0 73.88h912v36.94H0zm0 73.8h912v36.93H0zm0 73.86h912V480H0z"/><path fill="#fff" d="M0 36.94h912v36.94H0zm0 73.87h912v36.86H0zm0 73.8h912v36.93H0zm0 73.87h912v36.94H0zm0 73.87h912v36.94H0zm0 73.8h912v36.92H0z"/><path fill="#192f5d" d="M0 0h364.78v258.47H0z"/><path fill="#fff" d="M30.38 11.06l3.37 10.22h10.7l-8.64 6.28 3.3 10.32-8.73-6.38-8.62 6.28 3.28-10.22-8.72-6.28h10.9zm60.84 0l3.28 10.22h10.78l-8.72 6.28 3.28 10.32-8.62-6.38-8.72 6.28 3.28-10.22-8.62-6.28h10.68zm60.75 0l3.37 10.22h10.6l-8.63 6.28 3.3 10.32-8.73-6.38-8.62 6.28 3.28-10.22-8.72-6.28h10.8zm60.84 0l3.3 10.22h10.77l-8.7 6.28 3.36 10.32-8.72-6.38-8.7 6.28 3.37-10.22-8.72-6.28h10.7zm60.76 0l3.38 10.22h10.7L279 27.56l3.28 10.32-8.72-6.38-8.62 6.28 3.28-10.22-8.63-6.28h10.68zm60.85 0l3.3 10.22h10.77l-8.72 6.28 3.38 10.32-8.72-6.38-8.7 6.28 3.36-10.22-8.72-6.28h10.8zM60.85 36.94l3.28 10.22h10.8l-8.73 6.28 3.17 10.22-8.43-6.28-8.72 6.28 3.1-10.22-8.45-6.28h10.7zm60.75 0l3.37 10.22h10.7l-8.73 6.28 3.37 10.22-8.7-6.28-8.73 6.28 3.38-10.22-8.72-6.28h10.78zm60.84 0l3.28 10.22h10.78l-8.72 6.28 3.28 10.22-8.62-6.28-8.72 6.28L177 53.44l-8.63-6.28h10.7zm60.75 0l3.36 10.22h10.7l-8.73 6.28 3.38 10.22-8.7-6.28-8.64 6.28 3.28-10.22-8.72-6.28H240zm60.83 0l3.28 10.22h10.8l-8.73 6.28 3.3 10.22-8.64-6.28-8.72 6.28 3.3-10.22-8.63-6.28h10.7zM30.37 62.72l3.38 10.4h10.7l-8.64 6.3 3.3 10.2-8.73-6.37-8.62 6.38 3.28-10.32-8.72-6.27h10.9zm60.85 0l3.28 10.3h10.78l-8.72 6.3 3.28 10.2-8.62-6.36-8.72 6.37 3.28-10.3-8.62-6.3h10.68zm60.75 0l3.37 10.3h10.6l-8.63 6.3 3.3 10.2-8.73-6.36-8.62 6.37 3.28-10.3-8.72-6.3h10.8zm60.84 0l3.3 10.3h10.77l-8.7 6.3 3.36 10.2-8.72-6.36-8.7 6.37 3.37-10.3-8.72-6.3h10.7zm60.76 0l3.38 10.3h10.68l-8.62 6.3 3.28 10.2-8.72-6.36-8.62 6.37 3.28-10.3-8.63-6.3h10.68zm60.85 0l3.3 10.3h10.77l-8.72 6.3 3.37 10.2-8.7-6.36-8.73 6.37 3.36-10.3-8.72-6.3h10.78zM60.85 88.6l3.28 10.2h10.8l-8.73 6.3 3.27 10.3-8.63-6.37-8.72 6.28 3.3-10.2-8.64-6.3h10.7zm60.75 0l3.37 10.2h10.7l-8.73 6.3 3.37 10.3-8.7-6.37-8.72 6.28 3.37-10.2-8.72-6.3h10.78zm60.84 0l3.28 10.2h10.78l-8.72 6.3 3.28 10.3-8.62-6.37-8.72 6.28 3.28-10.2-8.63-6.3h10.7zm60.75 0l3.36 10.2h10.7l-8.63 6.3 3.28 10.3-8.7-6.37-8.64 6.28 3.28-10.2-8.72-6.3H240zm60.83 0l3.28 10.2h10.8l-8.73 6.3 3.3 10.3-8.64-6.37-8.72 6.28 3.3-10.2-8.63-6.3h10.7zM30.38 114.46l3.37 10.22h10.7l-8.64 6.27 3.3 10.3-8.72-6.36-8.63 6.3 3.28-10.23-8.72-6.28h10.9zm60.84 0l3.28 10.22h10.78l-8.72 6.27 3.28 10.22-8.62-6.3-8.72 6.3 3.28-10.23-8.62-6.28h10.68zm60.75 0l3.37 10.22h10.6l-8.63 6.27 3.3 10.3-8.72-6.36-8.63 6.3 3.28-10.23-8.72-6.28h10.8zm60.84 0l3.3 10.22h10.78l-8.72 6.27 3.37 10.3-8.72-6.36-8.7 6.3 3.37-10.23-8.72-6.28h10.7zm60.76 0l3.38 10.22h10.7l-8.64 6.27 3.28 10.3-8.72-6.36-8.62 6.3 3.28-10.23-8.63-6.28h10.68zm60.85 0l3.3 10.22h10.77l-8.72 6.27 3.38 10.3-8.72-6.36-8.7 6.3 3.36-10.23-8.72-6.28h10.8zM60.85 140.34l3.3 10.22H74.9l-8.7 6.28 3.27 10.22-8.63-6.37-8.7 6.36 3.27-10.3-8.62-6.3h10.7zm60.75 0l3.37 10.22h10.7l-8.73 6.28 3.37 10.22-8.7-6.37-8.72 6.36 3.37-10.3-8.72-6.3h10.78zm60.84 0l3.28 10.22h10.78l-8.72 6.28 3.28 10.22-8.62-6.37-8.72 6.36 3.28-10.3-8.62-6.3h10.68zm60.75 0l3.36 10.22h10.7l-8.63 6.28 3.28 10.22-8.7-6.37-8.64 6.36 3.28-10.3-8.7-6.3H240zm60.83 0l3.28 10.22h10.8l-8.72 6.28 3.28 10.22-8.63-6.37-8.72 6.36 3.3-10.3-8.63-6.3h10.7zM30.38 166.12l3.37 10.32h10.7l-8.64 6.28 3.3 10.12-8.72-6.28-8.63 6.28 3.28-10.22-8.72-6.28h10.9zm60.84 0l3.28 10.32h10.78l-8.72 6.28 3.38 10.12-8.72-6.28-8.72 6.28 3.38-10.22-8.72-6.28h10.68zm60.75 0l3.37 10.32h10.6l-8.63 6.28 3.3 10.12-8.72-6.28-8.63 6.28 3.28-10.22-8.72-6.28h10.8zm60.84 0l3.3 10.32h10.78l-8.72 6.28 3.37 10.12-8.72-6.28-8.7 6.28 3.37-10.22-8.72-6.28h10.7zm60.76 0l3.38 10.32h10.7l-8.64 6.28 3.28 10.12-8.72-6.28-8.62 6.28 3.28-10.22-8.63-6.28h10.68zm60.85 0l3.3 10.32h10.77l-8.72 6.28 3.38 10.12-8.72-6.28-8.7 6.28 3.36-10.22-8.72-6.28h10.8zM60.85 192l3.3 10.22H74.9l-8.7 6.28 3.27 10.3-8.63-6.36-8.7 6.28 3.27-10.22-8.62-6.28h10.7zm60.75 0l3.37 10.22h10.7l-8.73 6.28 3.37 10.3-8.7-6.36-8.72 6.28 3.37-10.22-8.72-6.28h10.78zm60.84 0l3.28 10.22h10.78l-8.72 6.28 3.28 10.3-8.62-6.36-8.72 6.28L177 208.5l-8.62-6.28h10.68zm60.75 0l3.36 10.22h10.7l-8.63 6.28 3.28 10.3-8.7-6.36-8.64 6.28 3.28-10.22-8.7-6.28H240zm60.83 0l3.28 10.22h10.8l-8.72 6.28 3.28 10.3-8.63-6.36-8.72 6.28 3.3-10.22-8.63-6.28h10.7zM30.38 217.88l3.37 10.2h10.7l-8.64 6.3 3.3 10.2-8.72-6.27-8.63 6.3 3.28-10.32L16.3 228h10.9zm60.84 0l3.28 10.2h10.78l-8.72 6.3 3.38 10.2-8.72-6.27-8.72 6.3 3.38-10.32-8.72-6.28h10.68zm60.75 0l3.37 10.2h10.6l-8.44 6.3 3.28 10.2-8.72-6.27-8.62 6.3 3.28-10.32L138 228h10.78zm60.84 0l3.3 10.2h10.78l-8.72 6.3 3.37 10.2-8.72-6.27-8.7 6.3 3.37-10.32-8.72-6.28h10.7zm60.76 0l3.38 10.2h10.7l-8.64 6.3 3.28 10.2-8.72-6.27-8.62 6.3 3.28-10.32-8.63-6.28h10.68zm60.85 0l3.3 10.2h10.77l-8.72 6.3 3.38 10.2-8.72-6.27-8.7 6.3 3.36-10.32-8.72-6.28h10.8z"/></g></svg>