<svg xmlns="http://www.w3.org/2000/svg" xmlns:xlink="http://www.w3.org/1999/xlink" viewBox="0 0 640 480"><path fill="#d91023" d="M0 0h640v480H0z"/><path fill="#fff" d="M213.3 0h213.4v480H213.3z"/><g fill="#00a854" stroke="#d4af37" stroke-width="2" transform="translate(245.3 154) scale(.178)"><g id="g" transform="matrix(.447 -.207 .258 .358 89.4 -67.3)"><path d="M480.2 566.9c31.3 33 62.4 68.1 79 111.2 25.1 69.7 18.3 151.5-22.6 214a328.2 328.2 0 0 1-142 116.4 224.7 224.7 0 0 1-164.8 3.5c-20-7.4-38.9-18-57.5-28.3-8.4-1.4-13.9 8.6-7 13.3 62.4 40.6 130.9 42.2 202 28.2a273.1 273.1 0 0 0 99-50.4c44.4-33.2 82.7-77.5 99.8-131 26.2-79 9.3-171.3-45.1-234.6a488.2 488.2 0 0 0-44.7-47.1l4 4.8zM170.6 983.3c-8.1-.8-12.2 11.8-5.1 13.6 4.2-1 10.7-12 5-13.6zm304.2-430.9c-4.5-5.6-14-2.9-17.7-7.3-4-4.7 2.9-6.5-.3-10-3-3.5-7.7-1.7-12-6.5-4.2-4.7-.4-8.8-4-12-3.7-3.4-4.2.8-8.4-3.8s-1.7-12.7-6.3-18.6c-4.5-5.7-3-12.5 2.5-11.2 3.6.8 5 4.4 10.4 5.7 5.4 1.4 7.6-2.5 11.2 1 3.5 3.4.3 9 4 14s5.9 1.2 8.6 5.5c2.7 4.4.5 6.6 2.2 11.7s8.4 3.1 10.9 10.8c2.5 7.6-1 20.7-1 20.7zM478.1 564.8c-5.5-26.2-27-57-52.6-79.5 15.3 12 44.9 40.5 54.4 79.3l-1.8.2zM460.2 524.4c-4.2-2.9-7.3-2.8-10.5-3.2 3-.2 5.9-.5 9.5 1.1l1 2.1zm-15.2-19c-4.5-1.4-7.4-.3-10.6.4 2.8-1.2 5.5-2.4 9.2-2l1.4 1.7zm4.4 3.5c-2.2-5.6-2.2-9.7-2.5-14-.1 3.9-.3 7.8.9 12.6l1.6 1.4zm13.5 18.1c-2.2-5.5-2.2-9.6-2.5-14-.1 4-.3 7.9 1 12.7l1.5 1.3zm92.3 155c-8.3-3.1-17.2 0-23.9-2.4-7.2-2.6 1.1-8.6-4.4-10.4-5.6-1.8-10.2 5.7-17.8 3.2-7.6-2.4-6.3-10-12.5-11.4-6.3-1.3-6.4 7.2-13.9 4.9-7.4-2.3-7.5-12.3-16-15.7-8.2-3.4-9-11.4-1.3-13.4 5.2-1.3 10.3 2 18 .2s7-8.7 13.1-7.1c6.1 1.5 4.4 10.4 11.4 13.2 7 2.8 11.4-4.9 16.7-2 5.3 3 .3 9.5 4.6 13.7 4.4 4.3 7.8-2.3 14.2 4.2 6.4 6.6 11.8 23 11.8 23zM563.5 691.6c-22.9-25.6-58.6-41.4-101.8-49.7 25 3.4 76.7 15 105.2 50l-3.4-.3zM524.3 661.5c-6.7-.6-10.8 1.3-15.2 2.8 3.8-2 7.5-4 13-4.4l2.2 1.6zm-27.9-10.9c-6.5 1.2-10 4-14 6.7 3.3-2.9 6.4-5.8 11.5-7.7l2.5 1zm7.2 1c-5.2-4.5-7-8.9-9.1-13.3 1.5 4.3 2.8 8.5 6.4 12.8l2.7.5zm25.3 11c-5.1-4.5-6.8-8.9-9-13.3a35 35 0 0 0 6.4 12.8l2.6.5zm25.8 223c7-5.4 9.2-15 14.7-19.4 5.8-4.7 6.2 5.9 10.6 2 4.4-3.7.9-12 6.9-17.2 6-5.2 11.4.2 15.8-4.4 4.3-4.7-2.4-9.7 3.4-14.8 5.8-5.2 13.9.5 21-5 7.1-5.3 14-1.4 11.5 6.4-1.7 5.3-7 7.9-9.7 15.6-2.6 7.8 3.2 11-1.2 15.5-4.5 4.4-10.7-2.2-16.7 2.3s-2 12.7-7.3 15.7c-5.1 3-7.6-5.1-13.4-3.8-5.7 1.4-2.2 8-10.9 10a67.8 67.8 0 0 1-24.7-2.9zM542.7 887.4c32.6-5.3 64.3-27.5 93.8-60.3-16 19.9-52.6 58.3-95.8 63.1l2-2.8zM587.6 870.5c4-5.6 4.7-10.2 5.8-15-.5 4.5-.8 9-3.3 14l-2.5 1zm23.5-18.1c2.5-6.4 2-11 2-16 .6 4.5 1.4 8.8.1 14.3l-2.1 1.6zm-4.6 5.7c6.4-2 10.8-1 15.5-.4-4.2-1.1-8.3-2.4-13.7-1.7l-1.8 2zm-22.2 15.8c6.3-2 10.7-1 15.4-.4-4.2-1.1-8.3-2.4-13.7-1.6l-1.7 2zm2.2-84c5.9-6.6 6.3-16.4 11-21.8 4.9-5.8 7.1 4.5 10.8 0 3.6-4.6-1.3-12.1 3.6-18.4 5-6.2 11.4-2 14.8-7.4 3.4-5.4-4-9 .7-15.2 4.8-6.2 13.7-2.1 19.9-8.9 6-6.6 13.4-4 12.3 4.2-.7 5.4-5.5 9-6.7 17.1-1.3 8.2 5.1 10.2 1.5 15.5-3.6 5.2-10.9-.1-16 5.5-5 5.6.3 12.9-4.3 16.8-4.6 3.9-8.5-3.6-13.9-1.2-5.4 2.5-.8 8.4-9 12s-24.7 1.8-24.7 1.8zM575 794c31.1-11.5 58.3-39.3 81.5-77.3-12.2 22.6-41.4 67.4-83 80.5l1.5-3.2zM616.1 768.7c3-6.2 2.8-10.8 3-15.7.4 4.4.9 8.8-.7 14.3l-2.2 1.4zm19.9-22.3c1.3-6.7 0-11.2-.9-16 1.4 4.2 3 8.4 2.7 14l-1.8 2zm-3.5 6.5c6-3.1 10.4-3 15.1-3.3-4.3-.3-8.5-.7-13.7 1l-1.4 2.3zm-19 19.8c5.8-3 10.3-3 15-3.3-4.3-.3-8.5-.7-13.7 1l-1.4 2.3zm-46.2-31.5c-7.9-5.6-18.3-4.8-24.7-9.3-6.9-4.6 3.6-8.6-1.8-12-5.4-3.4-12.4 3-19.8-1.6-7.4-4.7-3.8-12.4-10-15.5-6.3-3-9 5.7-16.2 1.2s-4.5-15-12.5-20.8c-7.9-5.8-6.4-14.4 2.4-14.3 5.8 0 10.4 4.9 19.1 5.2 8.7.2 5-4.4 11-1 6.2 3.2 5 12 11.6 17 6.7 4.8 15.2-4.7 20-.2s-2.4 10 1 15.6 9-.2 14 8.4 5.9 27.3 5.9 27.3zM573.4 753.5c-17-33.1-50.6-59.7-94.2-80.4 25.7 10.6 77.4 37 97.8 81.6l-3.6-1.2zM540.3 711c-7-2.4-11.9-1.6-17-1.2 4.6-1 9.2-2.1 15-1l2 2.2zm-26.6-19c-7.3-.7-11.8 1.4-16.7 3 4.2-2.1 8.3-4.3 14.3-4.8l2.4 1.7zm7.4 3c-4.3-6.2-4.8-11.3-6-16.4.4 4.8.7 9.6 3.3 15.1l2.7 1.2zm23.8 18.5c-4.2-6.2-4.8-11.2-5.9-16.4.4 4.9.6 9.6 3.3 15.2l2.6 1.2zm43.1 36.9c4.5-7.7 3-17.5 6.5-23.8 3.7-6.7 8 3 10.6-2.3 2.6-5.2-3.6-11.5 0-18.7s10.7-4.3 13-10.3c2.3-6-5.7-8-2.2-15 3.5-7.1 13-5 17.7-13 4.5-7.7 12.3-6.8 12.8 1.5.4 5.5-3.6 10-3.2 18.2.4 8.2 7 9 4.5 14.8-2.5 5.9-10.7 2.2-14.5 8.8-4 6.5 2.7 12.5-1 17.3-3.7 4.8-9-1.7-13.9 1.9-4.8 3.5 1 8.3-6.4 13.5s-23.9 7-23.9 7zM577.5 756.8C605.8 739 627 706 642.3 664c-7.6 24.7-27.4 74.7-65.6 96.3l.8-3.4zM613 723.3c1.6-6.6.5-11.2-.2-16 1.2 4.3 2.5 8.5 2 14.1l-1.9 2zm15-26c0-6.9-2.1-11-4-15.5 2.3 3.9 4.5 7.6 5.4 13.2l-1.4 2.3zm-2.1 7.1c5.2-4.3 9.6-5.1 14.1-6.5-4.3.7-8.5 1.1-13.2 4l-1 2.5zM611 727.8c5.1-4.3 9.6-5 14-6.4-4.2.6-8.4 1-13.2 3.9l-.8 2.5zM557.4 639c3.6-8.6.8-18.5 3.6-25.6 3-7.5 8.7 2 10.7-3.8 2.1-5.9-5.2-11.5-2.4-19.5s10.6-6 12.2-12.6c1.6-6.6-7-7.5-4.3-15.3 2.7-7.9 13-7.1 16.8-16 3.7-8.6 12-8.8 13.6-.3 1 5.7-2.5 11-1 19.5 1.4 8.4 8.4 8.2 6.6 14.7-1.9 6.5-10.8 3.8-14 11.2-3.2 7.3 4.4 12.6 1.2 18.2-3.2 5.5-9.6-.6-14.1 3.8-4.6 4.4 2 8.5-5 15-7 6.4-24 10.7-24 10.7zM547.3 647.1c27-22.6 44.8-59.9 55.3-105.8-4.6 26.8-18.8 81.6-55.7 109.5l.4-3.7zM579.8 607.3c.8-7.2-.9-11.7-2.2-16.7 1.8 4.3 3.7 8.5 4 14.4l-1.8 2.3zM592 578c-.9-7.2-3.7-11.1-6.1-15.6 2.7 3.7 5.6 7.3 7.2 13L592 578zm-1.3 7.7c4.8-5.2 9.3-6.7 13.9-8.7-4.4 1.2-8.7 2.3-13.3 5.9l-.6 2.8zm-12.4 26.4c4.8-5.2 9.3-6.7 13.9-8.7-4.4 1.3-8.7 2.4-13.3 6l-.6 2.7zM533.4 605.3c4.2-6.6-1-18.7 2.2-24 3.6-5.8 7.3 2.8 9.8-1.7 2.6-4.5-.4-10.3 3-16.4 3.6-6.2 8.6-1.7 10.9-6.9 2.2-5.2-2-5.3 1.3-11.4 3.4-6 12-3.9 16.5-10.6 4.4-6.6 11.5-5.5 11.8 1.9.2 4.8-2.9 7.1-2.7 14.4.1 7.2 4.6 9.5 2.2 14.6-2.5 5-9 1.5-12.6 7.1-3.8 5.6.3 7.8-3.2 11.8-3.5 4-6.4 1.5-10.9 4.4-4.5 3-.7 11.3-7.6 15.6s-20.7 1.2-20.7 1.2zM522.1 611.2c24.3-10.6 48.6-42.4 63.7-78.7-7.5 21.4-27.5 63.7-63 81l-.7-2.3zM556.9 582.6c1.7-5.8.8-9.8.3-14 1 3.8 2 7.5 1.5 12.5l-1.8 1.5zm14.4-22.2c.2-6-1.6-9.7-3.2-13.8 1.9 3.5 4 6.9 4.6 11.8l-1.4 2zm-2 6.2c4.8-3.6 8.9-4.1 13-5.1-3.9.4-7.8.6-12.2 2.8l-.9 2.3zm-14.2 20c4.8-3.6 8.9-4.2 13-5.2-3.8.4-7.7.6-12.2 2.9l-.8 2.2zm-173.3 425.7c3.6-9 1-19.7 3.7-27.1 2.9-7.9 8.4 2.5 10.4-3.6s-5-12.5-2.2-20.9c2.8-8.4 10.3-5.8 12-12.8 1.5-7-6.8-8.3-4.1-16.5 2.6-8.3 12.5-7 16.3-16.2 3.7-9 11.7-8.8 13.2.4 1 6-2.4 11.5-1 20.6 1.3 9.1 8.1 9.3 6.3 16-1.8 6.9-10.5 3.6-13.7 11.3-3.1 7.6 4.3 13.7 1.1 19.4-3.2 5.7-9.3-1-13.8 3.4-4.4 4.4 2 9.2-4.9 15.7-6.8 6.5-23.3 10.3-23.3 10.3zM375.2 1016.4c26.5-22.7 40.7-57.4 51.2-105.9-4.7 28.3-15.5 82-51.6 109.8l.4-3.9zM403.8 979.7c.8-7.6-.8-12.6-2-18 1.6 4.8 3.5 9.4 3.6 15.7l-1.6 2.3zm12-30.5c-.7-7.7-3.4-12-5.8-17 2.7 4.2 5.5 8.1 7 14.3l-1.1 2.7zm-1.2 8.1c4.7-5.3 9.1-6.6 13.5-8.6-4.2 1.1-8.5 2-13 5.7l-.5 3zM402.4 985c4.7-5.3 9.1-6.7 13.5-8.6-4.2 1.1-8.4 2-12.9 5.6l-.6 3zm158.7-152.7c-7.2-7.5-19.3-10.1-25.2-16-6.3-6.3 7-6.5 2-11.2-5-4.7-15.2-1.3-22-7.7-7-6.5-.4-12.1-6.5-16.8-6-4.7-12 2.2-18.7-4.1-6.8-6.3-.2-14.6-7.4-22.3-7-7.6-2.6-14.7 7.5-11.8 6.6 1.9 10.2 7.6 20 10.6 10 3 13.7-3 19.5 1.8 5.9 4.8-2 11.2 3.9 17.6 6 6.4 16 2.6 20 8.1 4 5.6-6 8-4 14 2 6.2 10.3 2.7 13.1 11.8 2.9 9.2-2.2 26-2.2 26zM540.3 797c-7.2-4.3-13-5.1-19-6.5 5.6.7 11.1 1.1 17.6 4l1.4 2.5zm-24-25.2c-8.2-2.9-14-2.5-20.2-2.6 5.6-.5 11-1.2 18 .3l2.1 2.3zm7.4 5c-2.8-6.8-1.8-11.4-1.4-16.3-1.1 4.4-2.5 8.6-1.3 14.3l2.7 2zm21 23.9c-2.7-6.8-1.7-11.4-1.3-16.3-1.1 4.4-2.5 8.7-1.3 14.4l2.6 1.9zM561.7 840c-8.5-34.5-35.7-63.7-78.5-95.8 25.8 17.5 73.7 52.4 82.2 98l-3.7-2.2z"/><g id="d"><path d="M527.3 890.5c-3.4-8.8-19.8-13-22.7-20.1-3-7.6 9.1-5.3 6.6-11-2.6-5.7-13.4-4-17-11.8-3.4-7.8 5-12.3 1.3-18.2-3.6-5.9-11.8 0-15.4-7.5-3.5-7.6 6-14.8 2.7-24-3.2-9 4-15.4 11.8-10.6 5.3 3.2 6.2 9.6 13.9 14.4 7.7 4.9 13.7-.6 17 5.4 3.2 6-6.7 11-4 18.5 2.8 7.6 13.6 5.6 15 12 1.2 6.3-9 6.9-9.7 13.4-.7 6.5 8.3 4.5 7 14.3s-6.5 25.2-6.5 25.2zM520 853.1c-4.7-5.7-13-9-18-11.4a58 58 0 0 1 17.8 8.5l.2 3zm-10-24.9c.4-7.3 3.2-11.8 5.7-16.7-2.9 4.2-5.9 8.3-7.2 14.3l1.6 2.4zm12.5 26c.3-7.3-.1-9.7 2.3-14.6-2.9 4.2-2.6 6.3-3.9 12.3l1.6 2.4zM525.2 906.6c6.8-36.5-12.8-78.4-38.3-118.7 16.1 22.4 52.2 73.9 40.7 121.6l-2.4-2.9zM505.4 821.9c-6.2-4.4-11.7-5.1-17.2-6.4 5.2.5 10.5.9 16.2 3.6l1 2.7z"/></g><path d="M493.6 566.1c-2-7-11.8-8.6-13.4-14.2-1.8-6 5.2-4.7 3.7-9.2-1.5-4.5-6.4-4.9-8.4-11s3-8.2 1-12.8c-2-4.6-4.2-1-6.2-7s3.4-12.3 1.5-19.6c-1.9-7 2.1-12.6 6.6-9.2 3 2.3 3 6.2 7.4 9.7 4.4 3.6 7.9.9 9.8 5.5 1.8 4.7-3.3 8.5-1.8 14.5 1.6 6 4.9 3.7 5.6 8.8.8 5-2.1 6.2-2.5 11.6-.4 5.3 6.4 6.4 5.7 14.4-.7 8-9 18.5-9 18.5zM491.7 578.8c5.2-26.2-2.3-63.4-17-94.8 9.3 17.3 25.2 56 18.7 95.4l-1.7-.6zM491.1 534.4c-2.7-4.4-5.5-5.7-8.3-7.5 2.8 1.1 5.5 2 8.2 5.1l.1 2.4zm-6.5-23.8c-3.5-3.2-6.6-3.5-9.8-4.2 3 .1 6 .1 9.3 2l.6 2.2zm2.7 5c.2-6 1.8-9.8 3.2-14-1.6 3.7-3.3 7.1-4.1 12l1 2zm5.3 22.3c.1-6 1.7-9.8 3.1-13.9-1.6 3.6-3.3 7-4 12l.9 1.9zm17 37.3c-.1-6.9-6.8-11.4-7.1-16.9-.3-5.8 14.6-4.3 14.2-8.8-.4-4.4-5.4-4.8-6-10.8s5.4-8 4.4-12.5-4.1-1-4.7-6.9c-.6-5.8 2-12.4 1.8-19.5-.1-7 5.6-12.4 9.4-9 2.6 2.2 1.5 6 5.2 9.5s8.4 1 11.3 4.5c3 3.5 2.3 6.4 2.4 12.3 0 6 4.1 3.6 3.6 8.6-.5 5-3.9 6.1-5.7 11.4-1.8 5.2 5.2 6.2 2.3 14.1-2.8 7.9-31 24-31 24zM499.2 585.6c24.4-21.6 36.5-63.2 18.3-94a68.8 68.8 0 0 1 8.1 50.3 92.1 92.1 0 0 1-24.8 44.3l-1.6-.6zM522.3 550.8a31.2 31.2 0 0 0-8.7-11.5c2.6 1 7.1 6.2 9.2 9.2l-.5 2.3zm4-26.8c-3-3.2-6.1-3.5-9.2-4.2 3 .1 6.2.1 9.2 2v2.2zm1.1.2c1.8-6 4.4-9.6 7-13.7-2.7 3.5-5.4 7-7.4 11.8l.4 1.9zm-4.2 27.5c1.7-5.9 7.8-3.8 12.4-5.2-3.5 0-10.8-1.5-13 3.3l.6 1.9zm-44.3 24.2c-6.5-4.6-4.6-15.7-9.7-19.5-5.5-4-6.7 3.8-10.8.6-4-3.2-2.7-8.6-8.2-13-5.6-4.4-9.5.2-13.5-3.6-4-3.9.5-4.8-4.9-9.2-5.4-4.3-13.9-.8-20.6-5.5-6.7-4.6-13.8-2.3-11.9 3.8 1.3 4 5.2 5.4 7.3 11.4 2 6-2 8.8 2.1 12.5 4.1 3.7 9.9-.5 15.5 3.4s2 6.5 7 9.2 7.1 0 12.7 1.5c5.7 1.5 4.2 9.2 12.7 11.4 8.5 2.1 22.3-3 22.3-3zM492.6 578.5c-28.8-4-64.1-25.6-91.1-52.7 14.5 16.3 48.3 47.3 91 54.8l.1-2zM447.2 561.7c-3.5-4.5-3.8-8-4.6-11.6.2 3.3.1 6.7 2.3 10.6l2.3 1zm-22-15.6c-2-5-1.1-8.4-.7-12-1 3.2-2 6.4-1.3 10.7l2 1.4zm4.1 4.7c-6.2-2-10.6-1.6-15.3-1.6 4.2-.5 8.4-1 13.7 0l1.6 1.6zm21 13.8c-6.2-2-10.6-1.7-15.3-1.7 4.2-.4 8.4-1 13.7 0l1.6 1.7zm50.2 41c-8-3.5-6.6-15.4-13-18.4-6.8-3-7.7 5.4-12.7 2.9-5.1-2.6-3.9-8.5-10.8-12-7-3.4-11.3 2.3-16.3-1-5-3.2.3-5-6.5-8.5s-16.5 2-25-1.6c-8.1-3.4-16.4.4-13.7 6.4 1.8 4 6.6 4.5 9.5 10.4 2.9 5.8-1.7 9.6 3.5 12.6s11.7-2.5 18.6.4c7 3 2.9 6.4 9 8.2 6 1.8 8.5-1.5 15.3-1 6.8.4 5.7 8.7 16 9.2 10.2.6 26.1-7.6 26.1-7.6zM517 605.6c-34.5 1.6-78.1-13.7-112.2-36.4 18.4 14 61 39.5 112.3 38.5l-.1-2.1zM461.8 597.2c-4.5-3.9-5.1-7.5-6.3-11.1.4 3.5.6 7 3.5 10.6l2.8.5zm-27.3-11.7c-2.8-4.8-2-8.5-1.8-12.4-.9 3.6-2 7.1-.6 11.4l2.4 1zm5.3 4c-7.5-.8-12.8.5-18.4 1.4 5-1.3 10-2.7 16.3-2.8l2 1.4zm26 10c-7.6-.8-12.8.5-18.4 1.5 5-1.4 9.9-2.8 16.3-2.8l2 1.4zM517.5 629.7c-8.3-3-7.6-15-14.2-17.5-7-2.7-7.3 5.9-12.6 3.7-5.2-2.2-4.3-8.2-11.5-11.2s-11.1 3-16.3 0c-5.2-2.9 0-5-7-8s-16.4 3-25 0c-8.5-3-16.5 1.4-13.4 7.2 2 3.9 7 4.1 10.2 9.7 3.2 5.7-1 9.7 4.3 12.4 5.3 2.7 11.5-3.2 18.6-.8 7.2 2.5 3.3 6.2 9.5 7.6 6.1 1.4 8.4-2 15.2-2 6.8 0 6.3 8.3 16.5 8.2 10.3-.2 25.7-9.3 25.7-9.3zM534 628.6c-34.4 3.9-79-8.6-114.4-29 19.3 12.7 63.4 35.4 114.6 31.1l-.3-2zM478.3 623.9c-4.8-3.7-5.6-7.2-7-10.8.6 3.5 1 7 4.1 10.4l3 .4zm-28-10c-3-4.6-2.6-8.4-2.7-12.3-.6 3.7-1.4 7.3.2 11.4l2.5 1zm5.5 3.7c-7.6-.4-12.7 1.3-18.3 2.6 5-1.7 9.8-3.4 16.2-3.9l2 1.3zm26.6 8.3c-7.6-.3-12.7 1.3-18.3 2.6 5-1.6 9.8-3.4 16.2-3.8l2 1.2z"/><g id="a"><path d="M207.2 997.4c6.6-4.3 15.2-3.2 20.6-6.6 5.7-3.5-3-7 1.5-9.7 4.5-2.5 10.3 3 16.5-.5s3.3-9.9 8.5-12.1c5.2-2.3 7.3 5 13.4 1.5 6-3.3 3.8-12 10.6-16.4 6.6-4.4 5.5-11.4-1.8-11.7-4.9-.1-8.7 3.6-16 3.5-7.2 0-8-6-13.1-3.6-5 2.4-1.5 9.7-7.1 13.4-5.6 3.8-11.2-2-15.2 1.5s1.9 8-1 12.5-7.4-.5-11.6 6.3c-4.3 6.8-5.3 21.9-5.3 21.9zM202 1007c14.5-26 42.6-46.3 79-61.5-21.5 7.7-64.6 27.1-82 62.4l3-.8zM230 974c5.7-1.7 9.7-.9 14-.4a31 31 0 0 0-12.5-1.4l-1.6 1.8zm22.1-14.5c6.1-.2 9.8 1.6 13.9 3.1-3.5-1.8-7-3.8-11.9-4.4l-2 1.3zm-6.1 2.2c3.6-4.9 4.1-8.9 5.1-13-.4 3.8-.6 7.7-2.9 12l-2.2 1zm-20 14.1c3.6-4.8 4.1-8.9 5.1-13-.4 3.9-.6 7.7-2.8 12.1l-2.3 1z"/></g><g id="b"><path d="M210.3 1024.5c9 3.6 19.3 0 26.7 2.7 7.8 3-1.9 9.7 4.2 11.8 6.2 2 11.9-6.4 20.2-3.7 8.4 2.8 6.5 11.5 13.4 13 6.9 1.4 7.6-8.2 15.8-5.6 8.2 2.6 7.6 14 17 17.8 9 3.8 9.4 12.9.6 15.1-5.9 1.5-11.5-2.1-20.2 0-8.8 2-8.4 9.7-15.2 8-6.8-1.7-4.2-11.8-12-15-7.6-3.2-13 5.6-18.8 2.3-5.8-3.4.3-10.7-4.3-15.6-4.6-4.8-8.8 2.7-15.7-4.7-6.8-7.4-11.7-26.1-11.7-26.1zM201.6 1013.7c24 29 63.2 46.9 111.1 56.2-27.9-3.8-85.2-16.8-115-56.5l3.9.3zM243.7 1047.8c7.5.6 12.2-1.5 17.3-3.3-4.5 2.2-8.8 4.6-15 5.1l-2.3-1.8zm30.6 12.2c7.4-1.3 11.5-4.6 16-7.6-3.7 3.3-7.4 6.7-13.3 8.8l-2.7-1.2zm-8-1c5.5 5.1 7.2 10 9.4 15-1.4-4.8-2.7-9.6-6.5-14.5l-3-.5zm-27.8-12.4c5.5 5 7.2 10 9.4 15-1.4-4.8-2.6-9.6-6.5-14.5l-2.9-.5z"/></g><use width="744.1" height="1052.4" transform="translate(44 17.4)" xlink:href="#a"/><use width="744.1" height="1052.4" transform="translate(59.3 11.2)" xlink:href="#b"/><g id="e"><path d="M353.5 1034.1c9.8 1 18.8-5.3 26.7-4.7 8.4.6.7 9.8 7.2 10 6.4.3 9.9-9.3 18.7-9 8.8.4 9.2 9.2 16.3 8.7 7-.5 5.3-9.9 14-9.6s11 11.2 21 12.3c9.8 1.1 12.5 9.7 4.5 14.3-5.3 3-11.7 1-19.7 5.4s-5.7 11.7-12.7 12c-7 .1-7.1-10.2-15.5-11.2-8.3-.9-11.3 9-17.8 7.4-6.5-1.6-2.4-10.3-8.1-13.7-5.8-3.3-8 5-16.5-.2s-18-21.7-18-21.7zM342.3 1026.2c30.8 21 73.5 27.4 122.6 23.2-28.2 4-87.3 7.3-126.4-22.4l3.8-.8zM392 1047.2c7.4-1.4 11.5-4.8 16-7.9-3.8 3.4-7.4 6.8-13.2 9l-2.8-1zm33 3.3c6.8-3.3 10-7.6 13.6-11.7-2.8 4.2-5.5 8.4-10.7 12l-3-.3zm-8.1 1.2c6.6 3.4 9.5 7.6 13 11.7-2.7-4.1-5.1-8.4-10-12l-3 .3zm-30.3-4.2c6.7 3.3 9.6 7.6 13 11.7-2.6-4.2-5-8.4-10-12l-3 .3z"/></g><path d="M292.7 1024.5c5-5 13.2-6.2 17.3-10.2 4.4-4.3-4.5-5.2-1-8.4s10.2 0 15-4.4c4.8-4.3.5-8.8 4.7-12 4.3-3 8 2.4 12.7-1.8 4.8-4.2.5-10.7 5.6-16 5-5.2 2.1-10.7-4.7-9.2-4.5 1-7 5-13.8 6.6-6.7 1.7-9-3-13 .2-4.1 3.2 1 8.4-3.1 12.7-4.2 4.4-10.8 1-13.7 4.8-2.8 3.9 3.8 6.2 2.3 10.6-1.5 4.4-7 1.3-9 7.9-2.2 6.6.7 19.3.7 19.3zM292 1030.3c6.7-25 25.7-44.8 55.3-65.9-17.7 11.3-50.8 34.2-57.7 67.3l2.5-1.4zM307.6 1000c5-2.9 8.9-3.1 13-3.8-3.8.2-7.6.2-12 1.9l-1 1.8zm16.8-17.3c5.5-1.6 9.4-1 13.6-.7-3.7-.7-7.4-1.5-12-.8l-1.6 1.5zm-5.1 3.3c2-4.8 1.5-8.3 1.3-12 .7 3.4 1.5 6.6.5 10.7l-1.8 1.3zm-14.8 16.3c2-4.8 1.5-8.2 1.4-11.9.6 3.3 1.4 6.5.5 10.7l-1.9 1.2zm41 15c4-6.2 12-9.1 15.4-14.1 3.5-5.3-5.7-4.4-2.8-8.4 3-4 10.4-2.1 14.3-7.6 4-5.5-1.2-9.3 2.4-13.3 3.7-4.1 8.6.8 12.5-4.5 4-5.4-1.7-11.2 2.4-17.7 4-6.4 0-11.5-6.6-8.6-4.4 2-6.1 6.6-12.6 9.7-6.4 3-9.8-1.4-13.2 2.8-3.5 4.1 2.8 8.4-.6 13.8-3.3 5.4-10.7 3.2-12.8 7.7-2.1 4.6 5 5.7 4.4 10.5-.6 4.8-6.7 2.7-7.6 10-.8 7.2 4.7 19.7 4.7 19.7zM346 1023.4c1.6-27.1 16.9-51.5 42.6-79.3-15.7 15.3-44.6 45.6-45 81.3l2.3-2zM355.6 988.8c4.4-3.8 8.3-4.9 12.3-6.4-3.8 1-7.6 1.7-11.7 4.3l-.6 2.1zm13.5-21.1c5.3-2.8 9.3-3 13.6-3.5-4 0-7.8 0-12.4 1.6l-1.2 1.9zm-4.6 4.3c1.2-5.3-.1-8.8-1-12.5 1.3 3.2 2.8 6.4 2.6 10.9l-1.6 1.6zM353 992c1-5.4-.2-8.9-1-12.6 1.3 3.3 2.7 6.4 2.6 10.9L353 992z"/><g id="f"><path d="M515.3 940.9c7.7-4.2 11.3-13.2 17.4-16.7 6.6-3.7 5.3 6.8 10.2 3.8 5-3 2.8-11.8 9.5-16 6.7-4 11.3 2.3 16.3-1.6s-.9-10 5.7-14c6.5-4.1 13.6 2.8 21.5-1.4 7.8-4 14 1 10.3 8.3-2.5 5-8.2 6.6-12 13.8-3.8 7.2 1.5 11.4-3.6 15-5.1 3.6-10.2-3.9-16.8-.5-6.6 3.5-4 12.2-9.6 14.3-5.6 2-6.8-6.4-12.7-6-5.9.3-3.5 7.6-12.3 8-8.8.3-24-7-24-7zM503.1 940.6c33 .2 67.7-16.3 102-43.7-18.9 17-61 48.6-104.4 46.2l2.4-2.5zM550.1 931.5c4.8-4.8 6.1-9.3 8-13.8-1.1 4.3-2.1 8.6-5.4 13.2l-2.6.6zm26-14c3.5-5.8 3.7-10.5 4.5-15.3-.1 4.5 0 8.9-2.2 14.1l-2.3 1.2zm-5.4 5c6.6-1 10.7.8 15.3 2.1-4-1.8-7.8-3.7-13.2-3.9l-2.1 1.7zm-24.4 11.8c6.5-.9 10.7.8 15.3 2.2-4-1.8-7.9-3.7-13.3-4l-2 1.8z"/></g><path d="M583 716.2c3.6-8.6.8-18.5 3.6-25.6 3-7.5 8.7 2 10.7-3.9s-5.2-11.5-2.3-19.4 10.5-6 12.1-12.6c1.6-6.6-7-7.5-4.3-15.4 2.8-7.8 13-7 16.8-15.9 3.7-8.6 12-8.8 13.6-.3 1 5.7-2.5 11-1 19.4 1.4 8.5 8.4 8.3 6.6 14.8-1.9 6.5-10.8 3.8-14 11.2-3.2 7.3 4.4 12.6 1.2 18.2-3.2 5.5-9.6-.6-14.1 3.8-4.6 4.4 2 8.5-5 15-7 6.4-24 10.7-24 10.7zM573 724.4c27-22.6 44.7-59.9 55.2-105.8-4.6 26.8-18.8 81.6-55.7 109.4l.4-3.6zM605.4 684.6c.9-7.2-.9-11.7-2.2-16.7 1.8 4.3 3.7 8.5 4 14.4l-1.8 2.3zm12.3-29.2c-.9-7.2-3.7-11.2-6.1-15.6 2.7 3.7 5.6 7.3 7.2 13l-1.1 2.6zm-1.3 7.7c4.8-5.2 9.3-6.7 13.9-8.8-4.4 1.3-8.7 2.4-13.3 6l-.6 2.8zM604 689.5c4.8-5.2 9.3-6.7 13.9-8.7-4.4 1.3-8.7 2.4-13.3 6l-.6 2.7zM572.3 672c4.4-7.6 3-17.3 6.4-23.6 3.7-6.7 8 3 10.6-2.3 2.7-5.3-3.6-11.6 0-18.8 3.7-7.1 10.8-4.3 13-10.3 2.4-6-5.7-8-2.2-15 3.5-7.1 13-5 17.7-13 4.6-7.6 12.4-6.8 12.9 1.5.4 5.5-3.6 10-3.2 18.2.3 8.2 7 9 4.5 14.8-2.6 6-10.7 2.3-14.6 8.8-3.9 6.5 2.7 12.6-1 17.4-3.7 4.8-9-1.8-13.8 1.8-4.8 3.5.9 8.3-6.4 13.5s-24 7-24 7zM561.8 678.5c28.2-17.8 49.4-50.8 64.8-92.9C619 610.3 599 660.3 561 682l.8-3.4zM597.2 645c1.6-6.6.5-11.2-.1-16 1.1 4.3 2.5 8.5 2 14.1l-2 2zm15-26c0-6.9-2-11-3.9-15.5 2.2 3.9 4.5 7.6 5.3 13.2l-1.4 2.3zm-2 7.1c5.1-4.3 9.5-5.1 14-6.5-4.2.7-8.4 1.1-13.2 4l-.9 2.5zm-14.9 23.5c5.2-4.4 9.6-5.2 14.1-6.5-4.2.6-8.5 1-13.2 3.9l-.9 2.6zm-28.6 126.3c-7.8-5.6-18.2-4.8-24.7-9.2-6.8-4.7 3.7-8.6-1.7-12-5.4-3.5-12.5 3-19.9-1.7-7.3-4.7-3.8-12.3-10-15.4-6.3-3.1-8.9 5.7-16.1 1.2-7.3-4.5-4.5-15-12.6-21-7.8-5.7-6.4-14.3 2.4-14.2 5.9 0 10.4 4.9 19.1 5.2 8.8.3 5-4.3 11.1-1s4.9 12 11.5 17c6.7 4.9 15.2-4.7 20-.1 5 4.5-2.3 9.9 1 15.6 3.5 5.7 9-.3 14 8.3 5 8.6 6 27.3 6 27.3zM572.9 788.2c-17-33.1-50.6-59.6-94.2-80.4 25.7 10.6 77.4 37 97.7 81.6l-3.5-1.2zM539.7 745.8c-7-2.5-11.8-1.6-17-1.3 4.7-1 9.2-2 15.2-1l1.8 2.3zm-26.5-19.1c-7.4-.6-11.8 1.4-16.8 3 4.3-2 8.4-4.3 14.4-4.8l2.4 1.8zm7.3 3c-4.2-6.2-4.8-11.2-5.9-16.4.4 4.8.6 9.6 3.3 15.1l2.6 1.2zm23.9 18.5c-4.2-6.1-4.8-11.1-6-16.3.5 4.8.7 9.6 3.3 15.1l2.7 1.2zm30.3 95.2c5.8-6.6 6.3-16.4 11-21.9 4.8-5.8 7.1 4.6 10.7 0 3.7-4.6-1.2-12 3.7-18.3 5-6.3 11.3-2 14.8-7.4 3.4-5.4-4-9 .7-15.2 4.8-6.2 13.7-2.2 19.8-9 6-6.5 13.5-4 12.4 4.2-.7 5.5-5.5 9-6.7 17.2-1.3 8.1 5 10.2 1.5 15.4-3.6 5.2-10.9 0-16 5.5s.2 12.9-4.3 16.8c-4.6 4-8.5-3.6-13.9-1.1-5.4 2.4-.8 8.3-9 11.9-8.1 3.5-24.7 1.9-24.7 1.9zM563.2 847.5c31.1-11.6 58.3-39.4 81.5-77.3-12.2 22.6-41.4 67.4-83 80.5l1.5-3.2zM604.3 822.2c3-6.2 2.8-10.9 3-15.8.4 4.5.9 8.9-.7 14.3l-2.3 1.5zm19.9-22.3c1.3-6.8 0-11.3-.9-16 1.4 4.2 3 8.3 2.7 14l-1.8 2zm-3.5 6.5c6-3.2 10.4-3 15.1-3.4-4.3-.3-8.5-.7-13.7 1l-1.4 2.4zm-19 19.8c5.8-3.1 10.3-3 15-3.4-4.3-.2-8.5-.7-13.7 1l-1.4 2.4z"/><use width="744.1" height="1052.4" transform="rotate(15 310 758.4)" xlink:href="#c"/><use id="c" width="744.1" height="1052.4" transform="rotate(5 93.2 577.1)" xlink:href="#d"/><use width="744.1" height="1052.4" transform="rotate(-10 275 690.3)" xlink:href="#e"/><use width="744.1" height="1052.4" transform="rotate(10 225.4 653.9)" xlink:href="#f"/></g><use width="1" height="1" transform="matrix(-1 0 0 1 840 .1)" xlink:href="#g"/></g><g stroke="#d4af37" stroke-width=".5"><path fill="#007ea8" d="M291 195.6l-14 17.5a26.2 26.2 0 0 1 7.3 17.9 53.7 53.7 0 0 1-2.8 17.5v.2H320V196c-8.5 5.2-20.1 7.3-29-.4z"/><path fill="#fff" d="M349 195.6c-8.8 7.7-20.5 5.6-29 .4v52.7h38.5v-.2a53.7 53.7 0 0 1-2.8-17.5c0-6 2.7-13.5 7.3-17.9l-14-17.5z"/><path fill="#d91023" d="M281.5 248.7c-2.1 6.5-4.8 12.2-5.6 21.6-1.2 14 10 21.5 14.6 23.7 7.2 3.4 14.6 2.2 22.3 3.2 3.5.5 5.5 2.7 7.2 4.5 1.7-1.8 3.7-4 7.3-4.5 7.6-1 15 .2 22.2-3.2 4.6-2.2 15.8-9.8 14.6-23.7-.8-9.4-3.5-15.1-5.6-21.6h-77z"/></g><g stroke="#d4af37" stroke-width="3"><g fill="#00a854" transform="matrix(.084 0 0 .089 232.8 247.5)"><g id="j"><path d="M1074.7-201.4s5.9-20.4 18-29.3c12-9 25.2-5.7 33.2-8.9-5.4 6.8-6 20.3-18 29.3s-33.2 8.9-33.2 8.9zm48.7-36.4c-8.3 2.3-13.5-.3-25 4m17.4 1.8c-8.4 2.2-14.1-1.4-25.4 3.4m16.2 3.4c-8 2.8-11.7-1.2-22.5 4m13.3 3c-8 2.7-9.6-1.8-17.5 4.2m9.3 1.8c-5.2 1.7-7.5-.2-12.2 5m46.4-30.5c-4.5 7.3-3.5 13-10.8 22.8m3.2-17.1c-4.5 7.3-2.8 13.9-10.5 23.3m1.3-16.5c-5 6.8-2.2 11.5-10.3 20.4m1-13.5c-4.9 6.8-1 9.7-9 15.6m.9-9.5c-3 4.5-2 7.3-8.3 10.2M1130.8-243.6l-24.2 18-31.6 24 32-23.5 24.2-18m-23-73.9s16.7 13 20.5 27.5c3.8 14.5-4 25.5-4 34.1-4.4-7.4-16.7-13-20.7-27.5s4.1-34.1 4.1-34.1zm15.6 58.7c1-8.6 5.3-12.4 5.7-24.6m-8.1 15.3c1-8.5 6.4-12.6 6.2-24.7m-9.2 13.7c.3-8.4 5.4-10.4 4.6-22.4m-7.6 11.3c.4-8.4 5.2-8.3 2.5-17.9m-5.1 8c.3-5.4 3-7-.2-13.2m11.2 54.5c-5.1-7-10.8-8.1-17.1-18.5m14.7 9.3c-5.2-7-12-7.8-17.8-18.4m14.8 7.3c-4.5-7.1-9.9-6.3-15.2-17.1m12.2 6c-4.5-7.1-8.6-4.6-11-14.2m8.4 4.3c-3-4.5-6-4.5-6.4-11.5M1126.6-249.3l-7.8-29.1-10.6-38.3 10 38.5a5074.4 5074.4 0 0 0 7.8 29"/><g id="h"><path d="M1206.4-261.9s16.8 13 20.6 27.6c3.8 14.5-4 25.5-4 34-4.4-7.4-16.7-13-20.6-27.4-4-14.5 4-34.2 4-34.2zm15.7 58.7c1-8.5 5.4-12.4 5.7-24.6m-8.1 15.4c1-8.6 6.4-12.6 6.2-24.8m-9.2 13.7c.3-8.4 5.4-10.4 4.6-22.4m-7.6 11.3c.4-8.4 5.2-8.2 2.5-17.8m-5.1 8c.4-5.5 3-7-.2-13.2m11.2 54.4c-5.1-6.9-10.8-8-17.1-18.5m14.7 9.3c-5.2-6.9-12-7.7-17.8-18.3m14.8 7.2c-4.5-7-9.9-6.3-15.1-17m12.1 6c-4.5-7.2-8.6-4.7-11-14.3m8.4 4.4c-3-4.5-6-4.6-6.4-11.5M1224.9-194.1l-7.8-29.2-10.6-38.2 10 38.4a5155 5155 0 0 0 7.8 29.1m-53.8 57.3s2.9-21 13.5-31.6c10.7-10.6 24.2-9.2 31.6-13.5-4.3 7.4-3 20.9-13.5 31.6-10.6 10.6-31.6 13.5-31.6 13.5zm43-43c-8 3.4-13.4 1.7-24.2 7.5m17.4-.7c-8 3.4-14.2.7-24.6 7m16.5 1.1c-7.4 3.9-11.7.5-21.7 7.2m13.6 1c-7.5 3.8-9.7-.4-16.7 6.7m9.5.4c-5 2.4-7.5 1-11.3 6.8m41.5-37c-3.4 8-1.7 13.4-7.5 24.1m.7-17.3c-3.4 7.9-.7 14.1-7 24.6m-1.1-16.5c-3.9 7.4-.5 11.7-7.2 21.7m-1-13.6c-3.8 7.5.4 9.7-6.7 16.7m-.5-9.5c-2.4 5-.9 7.5-6.7 11.3M1219.9-186.6l-21.3 21.4-27.9 28.2s18.9-18.4 28.3-27.8a5074.4 5074.4 0 0 0 21.4-21.3"/></g><path d="M1057-278.6s20.6-5.1 34.4.9c13.8 6 17.5 19 24.3 24.3-8.5-1.2-20.5 5-34.4-.9-13.8-5.8-24.2-24.3-24.2-24.3zm55.9 24c-6-6-6.5-11.8-15.9-19.6m7.1 15.8c-6-6-5.9-12.9-15.6-20.2m5 15.7c-6.3-5.5-4.7-10.7-14.7-17.4m4.2 12.9c-6.4-5.5-3.3-9.2-12.5-13m3.1 9c-4-3.7-3.6-6.7-10.4-8m49.7 24.8c-8.6-.2-13 3.5-25.2 2m16.4-5.8c-8.6-.2-13.4 4.6-25.4 2.6m14.9-7.1c-8.4-.9-11 3.9-22.8 1.3m12.2-5.8c-8.3-.9-8.9 3.9-18-.1m8.6-4c-5.4-.4-7.2 2-13-2M1121.7-251.2L1094-263l-36.6-15.4 36.3 16a5135.7 5135.7 0 0 0 27.7 12M1072.3-384s14.7-15.3 29.5-17.5c14.9-2.3 25 6.7 33.5 7.6-7.8 3.5-14.7 15.2-29.5 17.6-14.9 2.4-33.5-7.7-33.5-7.7zm60-9.4c-8.4-2-11.8-6.6-23.9-8.2m14.5 9.7c-8.4-2-11.9-7.8-24-8.9m12.6 10.7c-8.3-1.3-9.7-6.5-21.7-7m10.4 8.7c-8.3-1.2-7.7-6-17.5-4.3m7.4 6c-5.4-1-6.6-3.8-13.1-1.3m55.3-5.4c-7.4 4.4-9.2 9.9-20.2 15.1m10.8-13.6c-7.4 4.4-9 11-20.2 15.7m8.8-14c-7.5 3.8-7.3 9.2-18.6 13.3m7.3-11.5c-7.5 3.7-5.5 8-15.3 9.5m5.2-7.9c-4.8 2.5-5.2 5.5-12.1 5.1M1141.6-395l-29.8 4.6c-13.1 2-39.2 6.4-39.2 6.4l39.3-5.8 29.8-4.6M1102-455s20 7 28.2 19.6c8.2 12.6 4.2 25.5 6.9 33.7-6.4-5.7-19.9-7.1-28.2-19.6-8.3-12.6-6.9-33.7-6.9-33.7zm33.4 50.8c-1.7-8.5 1.1-13.5-2.4-25.2m-2.8 17.2c-1.7-8.5 2.1-14-2-25.5m-4.3 15.9c-2.3-8 1.8-11.6-2.7-22.7m-3.7 13c-2.3-8 2.3-9.4-3.2-17.6m-2.4 9.2c-1.3-5.3.6-7.6-4.3-12.5m27.8 48.2c-7-5-12.8-4.4-22.1-12.2m16.9 4.2c-7.1-5-13.8-3.6-22.7-11.9m16.4 2.3c-6.5-5.3-11.4-2.9-19.8-11.5m13.4 1.9c-6.5-5.3-9.5-1.7-15-10m9.4 1.5c-4.3-3.4-7.1-2.4-9.6-9M1141-396.4l-16.6-25.2-22.1-33 21.6 33.3a5079.8 5079.8 0 0 0 16.5 25.2"/><g id="i"><path d="M1213.7-401.8s16.7 13 20.6 27.5c3.8 14.5-4.1 25.5-4.1 34.1-4.3-7.4-16.6-13-20.6-27.5s4-34.1 4-34.1zm15.7 58.7c1-8.6 5.3-12.4 5.6-24.6m-8 15.4c1-8.6 6.4-12.7 6.2-24.8m-9.2 13.7c.3-8.4 5.4-10.4 4.5-22.4m-7.5 11.3c.3-8.4 5.1-8.3 2.5-17.9m-5.2 8c.4-5.4 3-7-.2-13.1m11.3 54.4c-5.2-6.9-10.8-8.1-17.2-18.5m14.7 9.3c-5.2-7-11.9-7.7-17.8-18.4m14.9 7.3c-4.5-7.1-10-6.3-15.2-17.1m12.2 6c-4.5-7.1-8.6-4.6-11.1-14.2m8.4 4.3c-3-4.5-6-4.5-6.3-11.5M1232.1-334.1l-7.8-29.1-10.5-38.3s6.5 25.6 10 38.5a5074.4 5074.4 0 0 0 7.7 29m-64.4 39s8.2-19.5 21.3-27c13-7.4 25.7-2.6 34-4.8-6.1 6-8.3 19.4-21.3 27-13 7.6-34 4.9-34 4.9zm52.6-30.3c-8.5 1.2-13.4-1.9-25.2 1m17 3.8c-8.6 1.2-14-3-25.6.4m15.6 5.3c-8.2 1.9-11.4-2.5-22.8 1.4m12.9 4.4c-8.2 1.8-9.3-2.9-18 2.2m9.1 2.9c-5.3 1-7.4-1-12.6 3.6m49.6-25c-5.3 6.8-5 12.6-13.4 21.4m5.2-16.6c-5.4 6.8-4.4 13.5-13.2 22m3.2-16.3c-5.7 6.2-3.5 11.2-12.6 19m2.7-13.2c-5.7 6.1-2.2 9.4-10.9 14.3m2-9.2c-3.5 4-2.8 7-9.4 9.1M1227.7-330.3l-26 15.1-34.3 20.1 34.5-19.5a5074.4 5074.4 0 0 0 26.1-15.1"/></g><path d="M1182.2-442s19.7-8 34.2-4c14.5 4 20 16.3 27.4 20.7-8.6 0-19.6 7.8-34.1 4-14.5-4-27.5-20.7-27.5-20.7zm58.7 15.9c-6.9-5.2-8.1-10.9-18.5-17.2m9.2 14.7c-6.8-5.2-7.6-12-18.2-17.9m7.2 14.9c-7.1-4.5-6.3-10-17-15.2m5.9 12.2c-7-4.5-4.6-8.6-14.2-11.1m4.3 8.4c-4.5-3-4.5-6-11.4-6.4m52.7 17.6c-8.6 1-12.5 5.2-24.6 5.5m15.4-8c-8.6 1-12.7 6.4-24.8 6.1m13.7-9.1c-8.4.3-10.4 5.4-22.4 4.5m11.3-7.5c-8.4.3-8.3 5-17.9 2.4m8-5c-5.4.2-7 2.8-13.1-.4M1250-424l-29-7.9-38.5-10 38.3 10.7a5074.4 5074.4 0 0 0 29 7.8m-34.7-73.7s19.5 8.2 27 21.3c7.4 13 2.6 25.7 4.8 34-6-6.1-19.4-8.3-27-21.3-7.5-13-4.8-34-4.8-34zm30.3 52.7c-1.2-8.6 2-13.4-.9-25.3m-3.9 17c-1.2-8.6 3-13.9-.3-25.6m-5.4 15.6c-1.8-8.2 2.6-11.4-1.3-22.8m-4.4 12.8c-1.8-8.2 2.8-9.3-2.2-17.8m-2.9 9c-1-5.3 1-7.5-3.6-12.7m24.9 49.8c-6.8-5.4-12.6-5.1-21.4-13.5m16.6 5.2c-6.8-5.4-13.5-4.4-21.9-13.2m16.2 3.2c-6.2-5.7-11.2-3.5-19-12.6m13.3 2.7c-6.2-5.7-9.5-2.3-14.4-11m9.3 2c-4-3.5-7-2.7-9.1-9.4M1250.3-436.4l-15-26.2-20-34.3 19.5 34.6a5040.8 5040.8 0 0 0 15 26.2"/><use width="744.1" height="1052.4" transform="translate(-32 -18)" xlink:href="#h"/><path d="M1142.4-297.9s16.8 13 20.6 27.6c3.8 14.5-4 25.5-4 34-4.4-7.4-16.7-13-20.6-27.4-4-14.5 4-34.2 4-34.2zm15.7 58.7c1-8.5 5.4-12.4 5.7-24.6m-8.1 15.4c1-8.6 6.4-12.6 6.2-24.8m-9.2 13.7c.3-8.4 5.4-10.4 4.6-22.4m-7.6 11.3c.4-8.4 5.2-8.2 2.5-17.8m-5.1 8c.4-5.5 3-7-.2-13.2m11.2 54.4c-5.1-6.9-10.8-8-17.1-18.5m14.7 9.3c-5.2-6.9-12-7.7-17.8-18.3m14.8 7.2c-4.5-7-9.9-6.3-15.1-17m12.1 6c-4.5-7.2-8.6-4.7-11-14.3m8.4 4.4c-3-4.5-6-4.6-6.4-11.5M1160.9-230.1l-7.8-29.2-10.6-38.2 10 38.4a5155 5155 0 0 0 7.8 29.1m-53.8 57.3s2.9-21 13.5-31.6c10.7-10.6 24.2-9.2 31.6-13.5-4.3 7.4-3 20.9-13.5 31.6-10.6 10.6-31.6 13.5-31.6 13.5zm43-43c-8 3.4-13.4 1.7-24.2 7.5m17.4-.7c-8 3.4-14.2.7-24.6 7m16.5 1.1c-7.4 3.9-11.7.5-21.7 7.2m13.6 1c-7.5 3.8-9.7-.4-16.7 6.7m9.5.4c-5 2.4-7.5 1-11.3 6.8m41.5-37c-3.4 8-1.7 13.4-7.5 24.1m.7-17.3c-3.4 7.9-.7 14.1-7 24.6m-1.1-16.5c-3.9 7.4-.5 11.7-7.2 21.7m-1-13.6c-3.8 7.5.4 9.7-6.7 16.7m-.5-9.5c-2.4 5-.9 7.5-6.7 11.3M1155.9-222.6l-21.3 21.4-27.9 28.2s18.9-18.4 28.3-27.8a5074.4 5074.4 0 0 0 21.4-21.3"/><use width="744.1" height="1052.4" transform="translate(-62 -40)" xlink:href="#i"/><use width="744.1" height="1052.4" transform="translate(-31 -20)" xlink:href="#i"/></g><use width="744.1" height="1052.4" transform="matrix(-1 0 0 1 2501 0)" xlink:href="#j"/><path fill="#947245" d="M1250.5-437.1c-8.6 41.6-8.6 79.1-8.6 79.1-.5 14-7.4 23.7-13.8 20-54.9-31.7-60.3-37.5-89.1-59.6 24.3 26.4 31.2 38.2 86.7 70.2 10.7 6.2 12 16.4 11.6 29.5l-1.6 61.7c-.3 9 5.7 50.1-22.6 34.2-65.4-36.6-63.8-33.6-95.1-51.6 38 32.3 24.4 23.4 90.6 61.7 12 6.9 24.5 24.5 24.5 32.8 0 124.3 1.9 101.5-12.8 139.1h60.4c-14.7-37.6-12.8-14.8-12.8-139 0-8.4 12.6-26 24.5-33 66.2-38.2 51.5-29.3 89.6-61.6-31.3 18-28.7 15-94.1 51.6-28.3 15.9-22.3-25.2-22.6-34.2l-1.6-61.7c-.5-13.1.9-23.3 11.6-29.5 55.5-32 62.4-43.8 86.7-70.2-28.8 22-34.2 28-89.1 59.6-6.4 3.7-13.3-6-13.8-20 0 0 0-37.5-8.6-79.1z"/></g><path fill="#e3e4e5" d="M293.94 225.3c-.04.2.3 2.44.12 3.1-.1.87-.12 1-.33 2.16-.2 1.16-.47 3.4-.86 4.75a7.27 7.32 0 0 0-.14 2.45l.7 3.8s.32.4.36.53c.04.16-.03.4 0 .45.18.26.2.53.42.75.03.04.2.02.2.08.05.04.3.06.36.08.16.15.12.25.2.47h-1.23c.04-.54-.4-.76-.4-.76-.05-.06-.56-.2-.62-.53-.07-.46 0-.54 0-.54s-.43-1.76-.58-2.23c-.12-.34-.14-.5-.2-.8-.13-.83-.2-1.2-.62-2.44-.12-.2-.4-.3-.37-.58l.14-.28v-.23l.2-3.03a.37.37 0 0 0 .07-.14c.12-1.73-.8-3.33-1.4-4.9-.1-.28 0-.6-.12-.87-.63-.2-1.05-1.25-1.3-1.92a4.48 4.5 0 0 1-.12-2.28.97.98 0 0 1 .2-.5m12.3 7.2a1.62 1.63 0 0 1 .5-.06l.2.3c.3.54.66 3 .85 4.15l.3 1.55s-.1.4.05.84l.12.4c.15.6.33.76.33.76.04.16.27 1.33.33 1.47a14.66 14.75 0 0 1 .52 3.28c-.02.92-.02.82.06.9.2.2.3.08.74 1.2 0 .1.04-.04.1.04.03.1.13.08.2.1.17 0 .13.04.24.06a1.23 1.24 0 0 0 .3 0h1.1a1.05 1.06 0 0 0-.97-.66c-.16-.1-.36-.24-.42-.46l-.45-.64c.02-.14-.07-.34-.1-.5l-.4-4.54s.08-.46.08-.93c-.03-2.5.12-5.02.2-7.55.04-.2.78-.92.78-.92"/><path fill="#fff" d="M311.95 205.53a1.42 1.43 0 0 0-1.07.5 4.3 4.32 0 0 0-.58 2.07c-.02.16.04.27 0 .43a16.24 16.34 0 0 0-.33.98c-.14.84-.18 3.88-.4 5.04-.2 1.17-1.16 2.86-1.55 3.4a1.9 1.9 0 0 1-.88.44c-.16.04-1.4-.1-1.4-.1-1.64-.12-4.1-1.02-5.75-1.25-1.65-.22-3.66-.12-5.2-.28 0 0-1.95-.72-3.72-.2-1.76.52-2.75 1.48-4.3 3.83 0 0-.65.8-.65 1.08a3.3 3.34 0 0 0 1 2.5c.22.2.16.03.15 0 .07.13.13.46.23.58a8.52 8.57 0 0 1 .63 1.02c.16.3.08.65.22.94.76 1.63.4 3.3.4 5.2a.4.4 0 0 1-.03.16c-.02 1.12-1.1 2.6-1.1 3.73v.22l-.15.32c0 .3-.4.37-.3.6.6 1.3.67 1.7.88 2.58.08.33.12.5.26.88.2.47.8 2.35.8 2.35s-.07.12.05.63c.07.35.64.45.7.5a1.17 1.18 0 0 0 .52.93c0 .1.5.07.55.07l.6-.04c0-.25-.1-.4-.27-.55-.06-.02-.3-.1-.33-.13l-.12-.2c-.25-.22-.3-.5-.5-.8-.04-.02.02-.3-.04-.46-.06-.18-.43-.56-.43-.56l-1-4.1c-.15-.92.53-1.45.6-2.2 0-.17.9-2.4.94-2.52.65-1.75 1.72-4.48 1.7-5.64-.02-1.3-.06.26.06-.72.1-.75-.33-2.7-.3-2.9 2.42 4.06 4.78 5.53 8.68 5.14a1.75 1.77 0 0 1 .5 0s.1.2.1.3c.15.58-.2 3-.33 4.17l-.16 1.53s-.2.4-.2.82v.4c0 .6.13.8.13.8l-.1 1.45a11.87 11.95 0 0 1-.44 3.02c-.05.1-.15.3-.27.3-.12.1-.3.28-.3.44 0 .12 0 .23.03.35 0 .1.1.23.15.3.1.36.05.7.05 1.07l.06.33c.03.1.13.1.2.12.14.04.1.1.2.15l.3.02h1.07c-.02-.4-.4-.6-.7-.8-.12-.1-.1-.15-.1-.34l-.02-.8c0-.13.06-.2.1-.28.05-.14.02-.34.02-.5.2-1.35.42-2.74.77-4.04.3-.4.4-.84.5-1.3 0 0 .23-.64.15-1l.96-5.88a.76.77 0 0 1 .47-.45c1.2-.52 2.4-.9 3.5-1.68 1.26-.86 2-2.27 2.88-3.53.2-.4.4-.7.63-1.07a18.13 18.25 0 0 0 1.95-5.33c.3-1.67.2-3.32.66-5.3.1-.4.47-.75.55-1.18v-.1l.22-.02.74-.1h.63l.34.03c.1 0 .27.1.37.1s.2 0 .26-.1c.14-.16.14-.1.18-.26 0-.04.05 0 .07 0 .1-.04.2-.16.3-.2.06 0 .12-.04.14-.1v-.3c0-.17 0-.17-.1-.2h-.03c-.1-.04 0-.28 0-.4a.74.75 0 0 0 0-.3.47.47 0 0 0-.2-.23l-.16-.2c-.55-.44-.78-.8-1.17-1.17.05-.08.05-.12.04-.26-.2-.5-.52-.6-1.1-1.04a5 5.02 0 0 0-1.96-.73h-.3a1.3 1.3 0 0 0-.1 0z"/><path fill="#d18219" stroke="none" d="M311.9 205.5a1.4 1.4 0 0 0-1 .5 4.6 4.6 0 0 0-.7 2v.5l-.3 1c-.1.8-.2 3.8-.4 5a10.9 10.9 0 0 1-1.5 3.4c-.2.3-.8.4-.9.4h-1.4c-1.6-.2-4.1-1-5.8-1.3-1.6-.2-3.6-.1-5.1-.3 0 0-2-.7-3.8-.2-1.7.5-2.7 1.5-4.3 3.8 0 0-.6.8-.6 1.1a3.4 3.4 0 0 0 1 2.5l.2.2c0-1.4.2-2 .2-2a5.7 5.7 0 0 0 .4 2l.7 1.1c.3 1 .6 3.7.8 4.8 0 .6-.4 2.6-.7 3.5-.5 1.7-.8 3.2-.1 2 .3-.4 1.4-2.6 2-4.6.6-2 1.2-3.2 1-3.6l-.3-3.1a1.7 1.7 0 0 1 0-.2v-.3l.2-1.5c2.9 5.4 7.5 6 10.5 2.3a15.6 15.6 0 0 0-.4 4.7v.8l-.5 5.1v.1l-.2.6v.8l.1.1v.8-.1c.3-.2.4-.6.4-1v-.1l.2-.3v-.5l1-6a.6.6 0 0 1 0-.2l.8-.7c.1-.2.7-2.6.6-4-.2-3.5 4.3-4.5 5.8-2.8.6-.3 1-.7 1.5-1.2a7.8 7.8 0 0 0 1-1.8v-.4a11.7 11.7 0 0 0 .2-.8 14.6 14.6 0 0 0 .2-1.3l.1-1.3.1-1.3a14.8 14.8 0 0 1 .3-1.4l.1-.3.2-.3.1-.3.1-.3v-.1h.2-1.7a2.1 2.1 0 0 1-.8-1l.3-1.7c.4-.8.8-.2 1.7 0a7.6 7.6 0 0 1 2.5 1.4h.9v-.3a1.7 1.7 0 0 0 0-.2v-.2a.5.5 0 0 0-.1-.1l-.2-.2-1.2-1.2v-.2c-.1-.6-.5-.7-1-1.1a5 5 0 0 0-2-.7h-.3a1.3 1.3 0 0 0-.1 0z"/><path fill="none" d="M311.95 205.53a1.42 1.43 0 0 0-1.07.5 4.3 4.32 0 0 0-.58 2.07c-.02.16.04.27 0 .43a16.24 16.34 0 0 0-.33.98c-.14.84-.18 3.88-.4 5.04-.2 1.17-1.16 2.86-1.55 3.4a1.9 1.9 0 0 1-.88.44c-.16.04-1.4-.1-1.4-.1-1.64-.12-4.1-1.02-5.75-1.25-1.65-.22-3.66-.12-5.2-.28 0 0-1.95-.72-3.72-.2-1.76.52-2.75 1.48-4.3 3.83 0 0-.65.8-.65 1.08a3.3 3.34 0 0 0 1 2.5c.22.2.16.03.15 0 .07.13.13.46.23.58a8.52 8.57 0 0 1 .63 1.02c.16.3.08.65.22.94.76 1.63.4 3.3.4 5.2a.4.4 0 0 1-.03.16c-.02 1.12-1.1 2.6-1.1 3.73v.22l-.15.32c0 .3-.4.37-.3.6.6 1.3.67 1.7.88 2.58.08.33.12.5.26.88.2.47.8 2.35.8 2.35s-.07.12.05.63c.07.35.64.45.7.5a1.17 1.18 0 0 0 .52.93c0 .1.5.07.55.07l.6-.04c0-.25-.1-.4-.27-.55-.06-.02-.3-.1-.33-.13l-.12-.2c-.25-.22-.3-.5-.5-.8-.04-.02.02-.3-.04-.46-.06-.18-.43-.56-.43-.56l-1-4.1c-.15-.92.53-1.45.6-2.2 0-.17.9-2.4.94-2.52.65-1.75 1.72-4.48 1.7-5.64-.02-1.3-.06.26.06-.72.1-.75-.33-2.7-.3-2.9 2.42 4.06 4.78 5.53 8.68 5.14a1.75 1.77 0 0 1 .5 0s.1.2.1.3c.15.58-.2 3-.33 4.17l-.16 1.53s-.2.4-.2.82v.4c0 .6.13.8.13.8l-.1 1.45a11.87 11.95 0 0 1-.44 3.02c-.05.1-.15.3-.27.3-.12.1-.3.28-.3.44 0 .12 0 .23.03.35 0 .1.1.23.15.3.1.36.05.7.05 1.07l.06.33c.03.1.13.1.2.12.14.04.1.1.2.15l.3.02h1.07c-.02-.4-.4-.6-.7-.8-.12-.1-.1-.15-.1-.34l-.02-.8c0-.13.06-.2.1-.28.05-.14.02-.34.02-.5.2-1.35.42-2.74.77-4.04.3-.4.4-.84.5-1.3 0 0 .23-.64.15-1l.96-5.88a.76.77 0 0 1 .47-.45c1.2-.52 2.4-.9 3.5-1.68 1.26-.86 2-2.27 2.88-3.53.2-.4.4-.7.63-1.07a18.13 18.25 0 0 0 1.95-5.33c.3-1.67.2-3.32.66-5.3.1-.4.47-.75.55-1.18v-.1l.22-.02.74-.1h.63l.34.03c.1 0 .27.1.37.1s.2 0 .26-.1c.14-.16.14-.1.18-.26 0-.04.05 0 .07 0 .1-.04.2-.16.3-.2.06 0 .12-.04.14-.1v-.3c0-.17 0-.17-.1-.2h-.03c-.1-.04 0-.28 0-.4a.74.75 0 0 0 0-.3.47.47 0 0 0-.2-.23l-.16-.2c-.55-.44-.78-.8-1.17-1.17.05-.08.05-.12.04-.26-.2-.5-.52-.6-1.1-1.04a5 5.02 0 0 0-1.96-.73h-.3a1.3 1.3 0 0 0-.1 0z"/><path fill="#d39044" d="M316.93 209.45l-.06.24v.03l.06-.24v-.05z"/><path fill="#fff" fill-rule="evenodd" d="M307.7 226.93c-.4 1.63-1.4 1.97-.68 3.34 0 0-.3 0-.5-.55a3.3 3.34 0 0 1-.14-1.24 9.12 9.18 0 0 1 .23-1.66M308.45 226.25c-.4 1.65-1.4 1.96-.7 3.35 0 0-.38 0-.57-.53a3.7 3.73 0 0 1-.16-1.06c0-.32.08-.9.16-1.16a6.04 6.08 0 0 1 .23-.63M309.8 224.1c-.57 1.07-1.02 2-1.28 2.8-.23.78-.4 1.23.08 2.08 0 0-.3-.16-.72-.9a2.53 2.55 0 0 1-.16-1.3 5.97 6 0 0 1 .16-.87 5.85 5.9 0 0 1 .16-.5M310.34 223.4c-.35.55-.47 1.08-.67 1.5a5.65 5.7 0 0 0-.6 2.07c0 .4-.06.73.37 1.4 0 0-.2-.02-.33-.1a1.2 1.22 0 0 1-.44-.53 2.92 2.94 0 0 1-.25-1.28c0-.3.1-.72.18-1.02s.35-.88.35-.88"/><path fill="#d18219" fill-rule="evenodd" d="M311.27 207.63c0-.04-2.26-.7-2.6-2.7.46-.44 2.8 1.1 2.84 2.54"/><path fill-opacity=".5" fill-rule="evenodd" d="M308.76 204.94c.02.04 1.23.04 2.18 2.08-.2-.23-1.17.33-2.16-2"/><path fill-rule="evenodd" d="M314.27 207.84c.04-.03.08-.1.02-.15-.98-.64-.94.13-1.64.13.33 0 .33.03.44.2.45.46.78.42 1.17-.05"/><path fill="none" d="M316.7 210.63c-.1.12-.48-.16-.77-.2"/><path fill-rule="evenodd" d="M316.93 209.9s-.1-.1-.84-.2c0 0 .5-.54.53.05"/><path fill="#fff" fill-rule="evenodd" d="M301.4 227.72a6.55 6.6 0 0 0-.2.35c-.18.45-.26.9.1 1.57 0 0-.3 0-.5-.55-.1-.26-.15-.65-.13-1.24l.04-.47"/><path fill="none" d="M287.37 224.23s-.3-1.22.4-2.55"/><g fill="#e7ca00"><path d="M346.46 261.5c-.4.46-1.47.85-2.03.6-.53.6.3 2.4 1.78 1.7 1.48-.66 1.44-1.8.26-2.3zm1.68-4.52c-.78-.22-2.15-.03-2.5 1.48-.35 1.46.85 2.04 2.13 1.9-.67-1.17-.13-2.9.37-3.4zM347.12 260.1c-1.02-.34-1.2-1.57-1.03-2.7-.8.66-2.06 1.28-1.44 2.4.5.85 1.26 1.48 2.46.3zM346.48 260.67c-.8-.2-1.82-.66-2.18-1.65-.73.76-.7 2.8.67 3.08 1.35.28 1.7-.57 1.5-1.43zm8.5 4.74c.33-1.3-.14-3.05-2.8-2.8-2.52.22-3.27 2.18-2.7 2.38.45-1.13 3.97-.63 5.53.4zM354.87 263.43c.32-1.26-.2-3.38-2.85-2.7-2.6.66-2.43 2.77-1.83 2.97.5-1.1 2.98-1.3 4.67-.24zM354.5 268.33c.84-.88 1.3-3.3-1.2-4.28-2.33-.96-3.15-.38-3.6.54 1.27-.38 4.66 1.66 4.8 3.73zm.28-6.23c-.34-.82-.9-2.68-3.42-1.75-2.06.8-1.34 2.35-1.04 2.8.48-1 2.7-1.73 4.46-1.05zM354.34 260.34c-.4-.77-1.34-2.75-3.84-1.5-2.43 1.27-1.04 3.4-.42 3.45.28-.84 2.38-2.14 4.26-1.98zM352.87 258.36c-.58-.54-2.02-1.96-3.7-.18-.97.68-.9 2.26.1 2.83.2.12.4.18.6.2-.04-.8 1.35-2.48 3-2.84zM350.53 257.04c-.78-.2-2.74-.75-3.37 1.4-.6 2.14 1.7 2.5 2.14 2.18-.44-.63-.02-2.57 1.23-3.56zm3.15 12.63c1-.74 1.8-3.1-.55-4.64-2.27-1.44-3.2-.96-3.8-.1 1.35-.13 4.5 2.63 4.35 4.74zM351.68 271.94c1.5-.64 3.45-4.4.92-6.17-2.44-1.68-4.87-.7-5.84.42 2.64-.34 6.3 3.54 4.92 5.76zM349.7 273.83c3.93-1.54 3.58-5.57.93-7.17-2.5-1.5-4.07-1.32-5.42.02 3.28 1.3 5 3.47 4.5 7.18zM346.32 276.06c4.85-.98 4.7-6.17 2.14-8.62-1.8-1.75-3.25-1.34-4.17-.65 1.7 1.87 3.07 4.95 2.02 9.3zM343.38 276.76c4.8.3 5.85-5.82 3.3-8.86-1.8-2.13-3.27-2.1-4.17-1.67 1.7 2.22 3.6 6.55.86 10.53zM338.7 277.62c6.18 1.54 8.83-6.3 5.38-10.16-1.83-2.06-3.25-2.1-4.15-1.67 1.93 3.68 1.72 9.77-1.23 11.82zM332.76 277.84c6.58 2.95 9.52-3.8 9.22-8.45-.25-3.68-3.97-6.07-4.84-5.64 2.53 4.8-.66 13.52-4.36 14.1zM327.5 277.46c6.35 3.7 10.74-2.76 10.8-8.44.03-3.75-1.03-6.92-3.8-7.03 1.33 5.68-2.3 14.04-7 15.46zM322.08 276.7c6.48 3.73 12.53-2.4 13.23-9.4.35-3.56-.38-5.27-2.4-6.9.37 5.12-7.4 15.23-10.82 16.3zM319.94 276.6c7.7 3.52 19.23-17.87 9.03-20 2.12 5.6-6.1 19.5-9.03 20zM317.76 276.9c4.07 4.17 19-21 8.07-22.66.9 2.47-.4 7.27-2.72 11.8-2.3 4.55-5.66 7.62-5.34 10.86zM316.46 280.82c.48-4.76 8-14.27 9.62-20.98 1.06-4.27-.3-7.98-7.36-6.62 5.87 7.55-5.5 19.84-3.62 27.08-.37.7 1.86 0 1.36.52zM317.5 280.02c-2.24-4.88 3.33-14 4.12-20.75.48-4.13-3.37-9.74-9.9-6.93 7.88 6.12.1 20.34 3.96 27 .9.6 2.2.44 1.82.68zM317.64 281.9c-2.88-5.24-.2-15.13-.18-21.6.02-4.32-6.22-11.34-12.3-6.06 11.6 4.76 4.8 16.28 10.82 27.35 1.17.6 1.97-.02 1.64.3zM316.72 280c-3.14-4.38-2.15-14.32-4.42-20.52-1.52-4.12-8.98-8.9-13.44-2.33 12.43 1.92 7.54 14.26 16.18 23 1.3.3 1.9-.5 1.68-.14zM315.1 279.44c-4.63-3.48-5.13-12.82-8.8-18.2-3.28-4.82-9.77-6.67-12.47.68 13 1.87 9.48 11.64 16.98 16.5 1.66.94 4.5.82 4.3 1.02zM310.32 276.68c-4.2-3.5-2.5-5.68-6.7-11.03-3.56-4.6-12.84-6.77-13.64.6 11.43 0 11.17 4.83 17 8.8 1.36 0 3.46 1.2 3.32 1.63z"/><path fill-rule="evenodd" d="M286.75 273.34l.72 2.2 22.87 13.1 6.35-2.8.6-3.38v-4.16l-20.75-8.95-8.52-2.88-2.17 3.93.87 2.94z"/><path d="M285.94 273.45l.95-.13c-.92-2.1.22-4.08 2.67-4.33 2.46-.27 5.93 1.38 8.5 3.88 2.57 2.14 5.4 3.67 8.37 4.53 2.85.75 6.4.48 9.54 1.72 1.5.73 1.3 1.77 1.06 3.8 1.1-.67 1.74-1.63 1.8-2.97-.32-2.94-2.16-5.26-6.5-6.6-3.8.56-7.65-.65-10.88-3.42-1.84-3.1-4.4-5.3-7.3-6.27-2.08-.67-4.27-.27-6.1 1.12-2.8 1.94-3.02 3.78-2.9 5.57l.78 3.12z"/><path fill-rule="evenodd" d="M308.68 283.4c-1.32 3.04-.37 6.18 2.16 7.03s5.6-.92 6.93-3.97l-9.1-3.07z"/><path d="M311.17 279.93c1.54 1.03 2.12 2.9 1.34 4.18-.8 1.3-2.7 1.48-4.23.48-1.54-1.03-2.13-2.9-1.32-4.2.8-1.28 2.7-1.48 4.24-.45zm-18.42 3.5c-.82.56-1.38 1.46-1.3 2.44.07.64.33 1.22.74 1.67l-.24.03c-1.72.24-3.6-1.4-3.75-3.03-.04-.74.25-1.38.76-1.92.58.35 1.25.5 1.9.42.3-.03.56-.1.83-.2.3.25.67.44 1.05.56zM291.3 277.5c-.84.66-1.4 1.55-1.35 2.6.04 1 .64 2 1.5 2.73-.3.1-.62.18-.93.2-2 .23-4.1-1.72-4.2-3.6-.02-.48.08-.95.3-1.37.28.06.58.08.87.06.85-.08 1.67-.46 2.34-1.08.45.25.95.4 1.47.46zm9.12 10.95l.12.1c-.18.8-.6 1.5-1.2 2.02.58-.55.96-1.32 1.06-2.15zm-2.87-1.85c-.67 1.04-1.72 1.7-2.86 1.8-1.96.23-4-1.67-4.08-3.5 0-.2 0-.37.02-.55.76.74 1.76 1.12 2.8 1.06.62-.05 1.2-.28 1.73-.62.58.88 1.4 1.52 2.36 1.82zM303.02 288.54c.1.5 0 .98-.28 1.4-.73 1.04-2.42 1.23-3.8.4-1.33-.82-1.86-2.32-1.13-3.33.3-.4.73-.7 1.2-.8-.16.43-.16.9-.02 1.33.4 1.17 1.76 1.85 3.05 1.5.36-.07.7-.24 1-.5zM304.16 287.6c-.28.73-.88 1.37-1.75 1.7-1.6.65-3.45 0-4.13-1.4-.34-.68-.36-1.5-.03-2.2.7.17 1.46.12 2.16-.15.66-.24 1.23-.75 1.6-1.42-.2.64-.16 1.33.13 1.9.43.82 1.16 1.4 2 1.58zm10.78 1.94c-1.12 1.64-3.3 2.6-4.83 2.07-1.3-.4-1.7-1.74-1.16-3.13 1.2.73 2.62.94 3.98.6 1.05-.2 2-.85 2.66-1.8.1.67-.1 1.47-.64 2.27zM320.7 291.28c-.08.08-.16.15-.24.23-1.54 1.28-3.86 1.48-5.13.47-1.2-1-1.12-2.7.15-4 1.38.83 3.35.78 4.92-.07-.4.78-.44 1.7-.15 2.5.1.32.25.6.42.87zM324.04 287.5c-.16 1.28-1.58 2.5-3.42 2.8-2.05.38-3.86-.55-4.03-2.03v-.07c1.08-.62 1.78-1.63 1.9-2.75h.06c.9 1.68 3.18 2.6 5.37 2.06l.12-.04zm-14.63-.25c.32 1.64-.86 3.48-2.68 4.12-1.82.63-3.6-.22-3.93-1.84-.1-.42-.08-.86.02-1.3 1.07-.3 1.94-.93 2.46-1.7 1.24.5 2.6.5 3.87 0 .12.22.2.47.26.72zM311.77 286.22c-1.13 1.65-3.3 2.6-4.83 2.08-1.54-.5-1.9-2.26-.76-3.9.33-.5.74-.9 1.2-1.25 1.4 1.25 3.28 1.65 5.03 1.05.05.64-.16 1.34-.63 2.05zM317.1 282.96c1.62 1 2.1 2.88 1.08 4.16-.98 1.3-3.15 1.52-4.75.5-1.63-1-2.1-2.87-1.1-4.16s3.16-1.5 4.78-.5zm-10.7 1.6c.37.87.32 1.9-.12 2.74-.86 1.47-2.9 1.68-4.55.5-1.07-.73-1.75-2-1.82-3.4.5-.5.76-1.2.73-1.9l.12-.1c.6 2 2.7 3.15 4.67 2.6.35-.1.68-.24 1-.44zM298.4 281.9c1.8-.2 3.3 1.2 3.37 2.78.08 1.55-1.3 2.96-3.08 3.17-1.26.07-2.45-.54-3.2-1.62 1-.6 1.65-1.62 1.6-2.7-.03-.4-.14-.8-.33-1.15.52-.26 1.07-.42 1.63-.48zM307.2 281.72c.56 1.43-.54 2.95-2.4 3.4-1.86.45-3.83-.36-4.36-1.8-.17-.4-.2-.88-.08-1.32.25.17.5.33.76.46 1.92.96 4.38.7 5.43-.6.17-.2.3-.4.38-.65.1.16.2.34.27.52zM299.23 276.97c.6-.07 1.18.06 1.7.35-.8 1.25-.23 2.98 1.3 4-.57 1.1-1.6 1.8-2.7 1.87-1.73.18-3.53-1.46-3.62-3.1h.23c1.65-.18 2.98-1.57 3-3.14h.08zM305.53 277.6c1.95 1.2 2.7 3.35 1.66 4.83-1.05 1.48-3.5 1.74-5.45.56-1.95-1.16-2.7-3.34-1.66-4.82 1.03-1.48 3.46-1.75 5.43-.57zm-9.4 2.88c.6.36 1.1.94 1.4 1.66.55 1.58-.34 3.4-2.05 4.04-1.7.65-4.06-.5-4.64-2.06-.24-.65-.18-1.4.15-2l.12.03c2.1.55 4.25-.22 5-1.65zm-8.45-8.2c.56-.05 1.12.07 1.6.33-.72.58-1.2 1.36-1.16 2.25.05 1.08.85 2.16 1.87 2.74-.58.53-1.3.86-2.03.94-1.74.18-3.56-1.5-3.65-3.15-.07-1.63 1.6-2.93 3.34-3.1zM291.33 272.08c1.47-.15 2.76.93 3.07 2.28-.8.54-1.36 1.36-1.3 2.27 0 .25.05.5.12.72-.48.36-1.03.57-1.6.64-1.63.15-3.36-1.45-3.44-3-.08-1.55 1.52-2.78 3.15-2.94zM296.02 279.54c.37.7.32 1.62-.14 2.3-.84 1.2-2.83 1.4-4.42.45-1.56-.94-2.18-2.7-1.33-3.9.52-.66 1.28-1.05 2.07-1.04.74 1.3 2.28 2.35 3.75 2.2l.07-.02zm31.1 10.96c.32 1.45-.77 2.92-2.6 3.37-1.96.47-4.02-.4-4.6-1.9-.52-1.44.47-2.97 2.17-3.55.86 1.58 2.94 2.47 5 2.08zM328.5 287.13c.5 1.58-.5 3.2-2.23 3.66-1.74.45-3.57-.48-4.1-2.06-.44-1.35.22-2.78 1.53-3.43 1.12 1.6 3 2.3 4.8 1.83zM331.57 288.06c.44 1.43-.45 2.92-2 3.3-1.02.28-2.08.04-2.9-.64.83-.93 1.14-2.13.73-3.34-.1-.27-.23-.52-.4-.76.3-.16.58-.3.88-.36.55-.16 1.1-.15 1.6-.02.5.57 1.1 1 1.78 1.24.12.18.22.38.3.58zm6.62-1.66c.5 1.6-.5 3.28-2.25 3.73-1.76.45-3.62-.47-4.14-2.05l-.07-.38c.7.1 1.4.08 2.1-.08 1.6-.4 2.76-1.52 3.1-2.83.57.35 1 .9 1.26 1.6zM338.6 284.2c.5 1.54-.47 3.15-2.14 3.58-.73.2-1.5.14-2.2-.14.87-.92 1.2-2.18.8-3.38-.26-.7-.7-1.28-1.25-1.7.28-.15.55-.26.84-.34 1.67-.46 3.46.44 3.96 1.97zM342.06 282.47c.5 1.53-.47 3.16-2.17 3.6-.46.1-.93.12-1.38.05.13-.55.1-1.17-.1-1.77-.43-1.1-1.28-1.96-2.33-2.33.36-.7 1.07-1.3 1.97-1.54 1.7-.44 3.46.46 4 1.97zm-17.44 3.83c-.45.66-1.15 1.15-2 1.42-1.88.47-3.85-.5-4.4-2.2-.58-1.7.5-3.47 2.37-3.96 1.4-.38 2.86.08 3.75 1.1-.5.73-.64 1.7-.37 2.54.14.43.36.8.64 1.1zM295.88 273c1.48-.15 3.64 1.58 3.83 3.2.2 1.67-.62 2.67-1.62 3.35-1.03.67-2.3.9-3.4.42-1.12-.5-2.18-1.6-2.52-2.7-.35-1.1-.12-1.83.6-2.67.72-.8 1.65-1.44 3.12-1.6zM329.83 283.64c.5 1.55-.46 3.16-2.16 3.6-1.7.44-3.46-.45-3.98-1.98-.5-1.53.45-3.16 2.15-3.6 1.7-.43 3.48.47 3.98 1.98zM335.43 284.5c.48 1.5-.46 3.1-2.13 3.55-1.65.43-3.42-.46-3.92-1.97-.5-1.5.46-3.1 2.13-3.54 1.66-.44 3.43.44 3.93 1.96z"/></g></g><path fill="#e7ca00" stroke="#d4af37" stroke-width=".5" d="M291 194.8l-.4.5-14 17.5-.4.3.4.4a25.8 25.8 0 0 1 7.1 17.5 53.1 53.1 0 0 1-2.7 17.4c-2 6.5-4.8 12.3-5.6 21.9a22.5 22.5 0 0 0 5.2 16.6 29 29 0 0 0 9.7 7.6c7.3 3.5 14.8 2.3 22.4 3.2 3.3.5 5.2 2.6 7 4.4l.3.4.4-.4c1.7-1.8 3.6-4 7-4.4 7.4-1 15 .3 22.3-3.2a29.4 29.4 0 0 0 9.7-7.6c3.3-4 5.8-9.5 5.2-16.6-.8-9.6-3.5-15.4-5.6-22a53 53 0 0 1-2.7-17.3c0-5.9 2.6-13.2 7.1-17.5l.4-.4-.3-.3-14.1-17.5-.4-.5-.4.4a19.8 19.8 0 0 1-14.2 5c-5-.3-10-2.1-14.1-4.7l-.3-.2-.3.2a29.8 29.8 0 0 1-14 4.6 19.8 19.8 0 0 1-14.3-4.9l-.5-.4zm.1 1.5a21 21 0 0 0 14.6 4.9 30.4 30.4 0 0 0 13.8-4.3V248h-37.3a54 54 0 0 0 2.6-17.1c0-6-2.6-13.3-7.1-18l13.4-16.7zm57.8 0l13.4 16.8a26.9 26.9 0 0 0-7.1 17.9 54 54 0 0 0 2.6 17.1h-37.3V197a30.4 30.4 0 0 0 13.8 4.3 21 21 0 0 0 14.6-4.8zm-67 52.9H358c2.1 6.4 4.6 12 5.4 21.1a21.4 21.4 0 0 1-5 16 28.4 28.4 0 0 1-9.3 7.2c-7 3.3-14.3 2.2-22 3.2-3.5.4-5.6 2.5-7.2 4.3-1.7-1.8-3.7-3.9-7.2-4.3-7.7-1-15 .1-22-3.2-2.3-1-6.2-3.4-9.4-7.3s-5.6-9-5-15.9c.8-9.1 3.4-14.7 5.4-21.1z"/><g fill="#008f4c"><path fill="#00a854" d="M373.3 171.4l-.1.1-.6 4.2-.5 3.6-2.4-1c-3.1-1.4-9.5-2.1-10-1.2-.1.6.6 4 1.7 8 .3.8 0 1-1.8 1.6-1.3.4-2.6 1-3.1 1.4-1 .6-.8.8 1.4 2.8l2.4 2.1-1.2 1c-1 .8-1 .8 2.8 4.5 4.3 4 6.5 5.2 9.4 5.2.9 0 1.9.2 2.6 0 1-.2 1.7-.5 4-.7 2.6.2 5 1.4 6 2l.6 1.4c-1.8-2-5.8-2.7-6.6-2.8-.8 0-1.2.2-2.1.5s-1.3.7-2.1 1.9c-.6 1.5.6 3.1 2 3.3 1.9.3 3.2-.7 3.2-2.4 0-1.3-.7-2.3-.1-2.3 2.2.2 5.6 2 6.2 4.2.8 2.8.6 3-.7 1a12.8 12.8 0 0 0-3.9-3.4c-.4 0-1.5 2.5-1.5 3.6 0 .8-.2 1-.8.7-.5-.3-1.6-.5-2.5-.6l-1.6-.3.4 2.5c.2 1.4.9 3.5 1.4 4.6l1.1 2-2.4-.7c-5.3-1.6-4.9-1.7-4.5 1 .1 1.4.4 3 .6 3.4.3.7 0 .9-1.8.9-1.1 0-2 .1-2 .3 0 1.1 4 6.6 6.1 8.2 2.5 2 7.2 4 9 4 .7 0 2.3.5 3.9 1l2.8 1v3.1c0 3.3-1 10-1.6 10-.1 0-1-1.4-2-3.2-2-3.8-2-3.7-2.5-2.8-.4.6-.5.5-.5-.3a17 17 0 0 0-3.8-7.3l-1.2-1.1-.7 1.3-.6 1.3-2.7-3c-1.5-1.6-3-2.9-3.1-2.7-.3 0-.6 1.4-.8 3-.5 4.3-.7 4.6-2.4 3l-1.4-1.4-.4 1.3a40 40 0 0 0 1.2 13.9 48.8 48.8 0 0 1 1.7 6.4c.6 3.8 2.8 8 5.5 10.8 1 1 1 1.4.5 1.4-.4 0-1.2.4-1.6.9-2 2.1-.2 5 2.8 4.4 1.5-.2 1.8-.1 2.3 1 .8 1.6.8 4.5.1 5.7-.5 1-3.5 2.2-4 1.7-.1-.1-.2-1.8-.2-3.7v-3.5l-2.5 1.4a29.7 29.7 0 0 0-12.9 18.4c-.4 2.2-1.7 2.4-3.3 5a20.1 20.1 0 0 0-4.5 3.6c-2.5 2.4-3.2 2.8-7 3.7-4.7 1.2-14.7 2.8-22.2 3.6-6.5.6-27.1 4-28.4 4.5a90 90 0 0 1-3 1.2 6.8 6.8 0 0 0-2.6 2c-.8 1.1-.8 1.5-.2 2.5 1.3 2.6 4 2.5 9.6-.2a31 31 0 0 1 7.8-2.5c2-.3 4.9-1 6.4-1.3 1.5-.4 5.8-1.1 9.4-1.7a199 199 0 0 0 36.4-7.8c5.6-2 5.5-2 10.7-1.5 5.8.6 13-1.2 16-4 .7-.5 2.4-2.6 4-4.6 1.4-2 3.3-4 4-4.5 1.9-1.3.8-1.7-4.2-1.7h-4.2l1.5-3.1c1.6-3.6 3.3-8.4 3-8.7-.1-.1-1.6 0-3.2.5-1.7.3-3.1.6-3.2.5l.4-1.7c.4-1 1-1.7 1.9-1.9l2-.5a7 7 0 0 1 2.7.3c1.8.5 1.9.6 1.6 2.2-.2 2 .8 3.3 2.6 3.3 1.4 0 2.9-1.4 2.9-2.6 0-1.4-2-3-3.2-2.7a11 11 0 0 1-3.9-.6l-2.7-1 2.6-.5c4-.9 5.3-.7 6 .5.3.8 1 1.2 2 1.3 3.2.3 4.3-4.2 1.2-5.2-1.1-.3-3.6.9-3.6 1.8 0 .3-.8.5-1.8.5a17.3 17.3 0 0 0-6 1.1l3.9-1.9a60 60 0 0 0 6.7-2.5c4.6-2 9-7.3 10.7-12.3a54 54 0 0 0 2.2-13c-.3 0-2 .6-3.7 1.4-3.3 1.5-3.3 1.5-3.3.4 0-2 .9-8.1 1.2-9 .3-.5.2-.8-.3-.8a28 28 0 0 0-9.7 5.3c-3 2.5-3.4 2.6-3.4 1.6 0-.7.5-2 1-2.8 1-1.5 1.2-1.6 3-1.3 1.8.3 2 .1 2.8-1 1.1-1.6.5-3.6-1.2-4.1-1-.3-.9-.5 1-1.4a16 16 0 0 0 6.5-7l1.2-2-1.8.2c-1 0-1.8.2-1.8 0l.7-2.1c.4-1.2.8-3 .8-4.2 0-2-1.9-9.8-2.6-10.6-.3-.3-1.3.2-2.4 1.1l-2 1.6-1.9-4.1a58.7 58.7 0 0 0-2-4.3c-.2-.2-.8.3-1.6 1-1.5 1.4-1.6.6-.3-2.4 1.3-2.6 1.8-3 3.2-2 1.8 1 3.7 0 3.9-2 .1-1.3-.1-1.8-1-2.5-.7-.4-1.6-.6-2-.5-.5.2-1-.2-1.3-1.2a2.9 2.9 0 0 0-1.9-1.8c-2.6-.7-4.5 2.6-2.5 4.5.7.7.7 1.3.2 5-1 5.9-1.3 6.4-2 3.8-.8-3-.4-11.2.6-13.6 1.9-4.2.8-10.8-2.2-14.2a35.4 35.4 0 0 0-10.7-7.7zm-3.5 13.8a21 21 0 0 1 5.4 5.2c2.6 3 5.6 8.3 7.6 12.3-.7-.8-1.1-.9-3.2-3.7-1.6-2.3-4.4-7.4-7-10-2.3-2.4-3.2-3.8-2.9-3.8z"/><path d="M382.5 239c-.5 2-.9 2.3.1 3.8.5.7 1.3 1 2.2 1 1.4 0 2.1 1 3.3 4.6.1.6.3.6.3-.1 0-.6-.4-1.8-1-3-.6-1.1-.8-2-.5-2.2 1-.6.5-3.1-.6-4-1.6-1-2.1-.7-3.8 0z"/></g><path fill="#9eab05" d="M288.6 321.4c-1 .9-1.3 2.2-.5 3 1.1 1.2 5.1.1 5.6-1.4.5-2.2-2.9-3.3-5-1.6z"/><path fill="#75b52b" d="M374.5 175.6a27 27 0 0 0 4.7 9.7c.7 1 1.4 1.6 1.6 1.5 0-.2-1.3-3.2-3.2-6.7-2.6-5-3.4-6-3.1-4.5zm-17 13.5a27 27 0 0 0 8.2 2.3c0-.9-2.4-2-5.3-2.3-1.7-.2-3-.2-2.8 0zm3.2 6.1c.6.6 9.5 4.7 12 5.5 1.4.5 3.4.8 4.3.7 1.5-.2 1.3-.3-1.9-1.3a53 53 0 0 1-5.8-2.4c-3-1.5-9.5-3.4-8.6-2.5zm29 13a93 93 0 0 0-2.4 15c-.3 3.3-.2 4.4.4 5.1.6.9.8.5 1.3-4a194 194 0 0 0 1.4-17.7c-.1 0-.5.6-.8 1.5zm-8.6 4c.2 4.1 2 8.4 2.6 6.5a15 15 0 0 0-1.2-5.5l-1.6-4.4.2 3.5zm-5.7.2l1.8 2.3 1.2 1.5v-1.3a3 3 0 0 0-1.3-2.3c-1.6-1.3-2.6-1.4-1.7-.2zm-7.2 12.4a76 76 0 0 0 7.4 5.6c1.5 1 1.5 1-.4-1.3-2-2.3-5-4.5-6.3-4.5-.4 0-.7 0-.7.2zm2.8 10.8c1.4 5.6 2.4 8.8 3 9.1.3.2.6.4.7.3.2-.3-2.4-8-3.2-9.3l-.8-1.3.3 1.2zm5.9 4.4c0 .8.4 2.3 1 3.4.5 1.1.9 1.7.8 1.2l-.6-3.1c-.4-2.7-1.2-3.7-1.2-1.5zm-10.3 3.8c1 3.2 3.4 8.2 7 14 2.5 4.2 2.5 4.2 2.7 2.4 0-1.4-.4-2.6-2.3-5.8a534.9 534.9 0 0 1-5-8.6 22.5 22.5 0 0 0-2.9-4.6c-.2 0 0 1.2.5 2.6zm31.5.7a75.5 75.5 0 0 0-8.2 11.5c-.5 1-.6 2-.4 2.8.3 1.2 1 .3 6-7.7 3.1-5 5.5-9 5.3-9-.3 0-1.4 1.1-2.7 2.4zm-8 37.3a2 2 0 0 0 1.8 3c1.5 0 2.4-1.7 1.6-3.1-.6-1.2-2.8-1.1-3.4.1z"/><path fill="#d91023" d="M375.1 205.2c-1.9 1.3.1 4.7 2.2 3.5 1.2-.8 1.4-2.7.3-3.5a4.2 4.2 0 0 0-1.2-.7l-1.3.7zm13.3-10.9c-1.1.3-1.6 1.9-.8 3.2 1 1.8 3.5 1 3.5-1 0-1.6-1.2-2.5-2.6-2.2zm3.4 3.9c-.2.4-.2 1.2 0 1.9 0 .9.4 1.1 1.5 1.1 1.9 0 2.9-1.3 2-2.6-.7-1.1-3-1.4-3.5-.4zm-19 75c-2 1.5-.1 4.2 2.2 3.3 1-.4 1.5-1.6.9-2.7-.7-1.4-1.9-1.6-3.1-.6zm10.3-33.6c-.6.5-.4 2.4.2 3 1.6 1.6 3.8 0 3.3-2.1-.3-1-.7-1.3-1.8-1.3-.7 0-1.6.2-1.7.4zm9.4 0c-.4 1.4.5 2.7 1.8 2.7s2.2-1.2 2-2.6c-.1-1-.5-1.2-1.8-1.3-1.4-.2-1.7 0-2 1.1zm1.3 37c-.3 1.4.5 2.7 1.9 2.7 1.2 0 2.1-1.2 1.9-2.6-.1-.9-.5-1.2-1.8-1.3-1.4-.1-1.7 0-2 1.2zm-3 4.6c-2 1.5-.2 4.2 2.2 3.3 1-.4 1.4-1.6.8-2.7-.7-1.4-1.8-1.6-3-.6z"/><path fill="#75b52b" d="M369.7 185.6l2.2 2.6a59 59 0 0 1 6.2 8.5c2 3.2 4.5 6.4 4.5 5.8 0-.6-4.5-8.2-6.2-10.5-2.4-3.2-6.1-7-6.8-7-.2 0-.1.2.1.6z"/><path fill="#eac102" fill-opacity=".5" d="M382.7 249c0 .4-.6 3.8-.8 7.7a157.5 157.5 0 0 1-3 25.7l.1.9.9-1.2c.9-1.2 1.8-2.1 3.1-3a145.4 145.4 0 0 0 17-19.4c5.2-6.8 6.4-8.6 6.3-8.7-.2-.2-1.8 1.4-8.2 9.3a244 244 0 0 1-6.6 7.7c-4.5 5-9.5 9.5-10.8 11.3l.4-2.1a93 93 0 0 0 1.8-20.6v-8.2l-.2.6zM370 282.2l-2.7 4.7a69 69 0 0 1-10.4 14.6c-1 1-.7 1.2-1 1.4-1.2 1.2 3.6 2 7.3 2.5 4.9.4 7.6-.5 20.7-7.5 3-1.6 3.9-2 3.3-2a35 35 0 0 0-8.8 3.4c-5.6 2.6-8 3.8-10.6 4.3-2 .5-4.8.5-6.5.1h-1.2l.6-.3c.6 0 1.3-.1 1.6-.3.3-.3 1.3-1 2.3-1.5a82.5 82.5 0 0 0 16-14 39 39 0 0 0-5.5 4.3 46.9 46.9 0 0 1-15 10.1l-.9.2.8-.8 2.3-3.3a63.5 63.5 0 0 0 8.5-17l-.8 1.1zm.2-64.8a55 55 0 0 0 5.7 7.2c3.2 3.6 5 5 7.5 8.2 2.6 3.2 2.8 3.4 5.6 6 3.5-4.7 5.7-11 7.2-15 1.4-3.9 2.6-7.3 2.7-12.5-2 4.4-2.1 6-3.7 10.7-1.6 4.8-5 13-6.4 14.8-.1.2-7.4-8.8-10.6-12.5-3.4-4-8-7.3-8-6.9z"/><path fill="#cab313" fill-opacity=".5" d="M372.7 174.8l-.6 4.5-1.9-.9c-1.9-.9-6.9-2-9.3-2-1.3 0-1.4.2-1.1 1.7.3 1.6 1.6 6.2 2 7.2.1.3-.7.8-2 1.1a11 11 0 0 0-3 1.4c-1 .7-.8.8 1.1 2.5 2.3 2 2.5 2.7 1.2 3.6-.7.5-.4 1 3 4.2 2 2 4.6 4 5.6 4.6 2.6 1.3 7.7 1.3 10.4 0 1.9-1 2-1 3.2-.2 1.3.8 1.3.8.7 0a30 30 0 0 0-5.3-3.2 32 32 0 0 1-15.3-17c-1.2-3.5-1.2-5.3 0-5.3 2.2 0 6.6 1 9 2.2 3.8 1.7 10.4 8 12.3 11.7 1.3 2.6 1.4 3.5 1.5 7.3 0 4.5.7 6.3.8 2.3.2-5 .4-6.2 1.1-8.2 1.6-3.7.8-9.4-1.7-12.8a36 36 0 0 0-6-5.1 41 41 0 0 1-4.7-3.6c-.2-.3-.7 1.5-1 4zm6.5.8c3.4 2.3 4.4 3.3 5.5 5.5 1.6 3.4 2 7.5 1.2 10.5l-.7 2.2-1.4-2.8a27 27 0 0 0-5.7-7.1 30.5 30.5 0 0 0-5-4.4c-.5 0-.3-3.4.5-6.4.3-1.3 0-1.5 5.6 2.5zm-16.4 12.3a8 8 0 0 0 1.8 2c.5.4 1 1.1 1.1 1.7.3.9 0 1-2.3 1-2.4 0-2.8-.2-4.7-2-1-1.1-1.9-2.1-1.7-2.2.4-.4 3.7-1.8 4.3-1.9.4 0 1 .6 1.5 1.4zm6.8 7.8c3 2.7 3.8 3.3 7.4 4.7 1.9.8 2 .9 1.2 1.6-1.1 1.1-6.7 1.5-9.3.7-2.2-.7-10.1-7.9-9.3-8.4a14 14 0 0 1 5.4-1.2c1.4 0 2.3.5 4.6 2.6zm14.7 9.3c-.2.2 0 1.4.4 2.5 1 2.5 1 3.3 0 5a10 10 0 0 0-.8 3.5 12 12 0 0 1-.6 3.6l-.5 1.6-1.7-1a5 5 0 0 1-2-2.2c-.4-1.5-.2-4.7.4-7.8.5-2.1.8-2.7 1.5-2.7.8.1.8 0 .3-.6-.5-.7-.7-.7-1.3.1a7 7 0 0 0-1 2.5c-.3 1.7-.3 1.7-1.7 1-2.2-1.2-3-1-3 .7s.8 4.3 1.9 6c1.2 1.7 1.2 1 0-1.3-1.3-2.7-1.8-5.7-.9-5.7.4 0 1.2.4 1.9.8.9.6 1 1.2 1 4.2-.1 4-.5 4.2-5.3 2.6-1.5-.6-3-1-3.1-.8-.2.2.6 4.5 1.1 5.8.3.6-.1.8-2 .6l-2.4-.2 1.4 2.4a20 20 0 0 0 14 10.1c2 .4 4.4 1.1 5.3 1.6 1.2.6 1.4.6 1 0-.3-.3-1.5-1-2.6-1.3-2.9-1-5.7-3.1-9.4-7s-5.5-7.1-5.5-9.6c0-1.4.2-1.7.8-1.4l3.9 1c4.3 1.2 5.4 1.8 8.1 4.7 3 3.1 3.9 5 4.8 9 .4 1.9.8 3.4 1 3.6.6.7.8-1.6.2-3.6-.9-3.3.5-9.8 3.4-15.5 1.3-2.5 5.2-6.3 5.8-5.6.2.2.9 2.4 1.5 4.8 1.4 5.1 1.2 6.6-1.2 11.7a18.5 18.5 0 0 1-6.1 7.7c-2 1.4-1.5 1.8 1.3 1.1 2.4-.6 6.4-4.2 8.5-7.7l1.1-2-2 .4-2 .3 1-2.7c1.2-3.4 1.2-4.7 0-8.8l-1.3-4.8-.3-1.4-1.7 1.1a9.4 9.4 0 0 0-1.9 1.6c-.6.9-1.3-.1-3-4l-2-3.7c-.3 0-1.1.6-1.9 1.4l-1.3 1.4.3-1.4c.3-1 .2-1.4-.2-1.1-.2 0-.5.8-.5 1.4 0 2.4-.9 2.4-1.6 0-.4-1.3-.9-2.2-1-2zm7.4 12.7a31.5 31.5 0 0 0-2.9 8.3l-.6 3.6-.8-2a17.6 17.6 0 0 0-2.2-3.7c-1.4-1.6-1.4-1.7-.8-5.3.9-5.7 2-8.7 4-11l1.9-2 1.8 3.7 2 3.7-2.4 4.7zm-19.3 8.3c6.2 6.5 8.4 9 7.3 8.6a17.4 17.4 0 0 1-10.3-7.5 19.5 19.5 0 0 1-1.8-3c0-.2.6-.3 1.4-.3.9 0 2 .7 3.4 2.2zm29 4c-2 3.2-3.3 4.4-5.5 5.5l-2 1 2-2.1a32.5 32.5 0 0 0 3.2-4.1c1-1.6 1.7-2.1 3.3-2.4.2 0-.2 1-1 2z"/><path fill="#005000" d="M382.9 209c.7 1.5 2 3 2 2.5 0-.3-.5-1.2-1.3-2-.7-.9-1-1-.7-.5z"/><path fill="#cab313" fill-opacity=".5" d="M369.4 235.3l-.8 3.8-.5 2-1.5-1.4-1.4-1.4-.4 2.4a32 32 0 0 0 1.5 12.8 52 52 0 0 1 1.6 6.4c.6 4.6 4.4 10 9.4 13.4.9.7 1.2 1.5 1.5 3.8l.4 3v-2.9a64.6 64.6 0 0 0-1.4-8.3c-1.6-7.3-1-10.4 2.6-17.8l2.6-5.4 2.7 5.4c3.6 7.2 4 9.7 2 15.6a33.4 33.4 0 0 1-1.8 4.8c-.3.4-.4.8-.3 1.1.2.2 0 .7-.2 1.1-.4.6-.5.6-.2-.2.2-.6-.5 0-1.7 1.2a13.6 13.6 0 0 0-2.3 3.3c-.3.9-.2.9.6-.1l1.8-2.4c.5-.7 1.1-1.2 1.3-1 .8.4 1.5-1 3.2-5.6a28 28 0 0 1 7-12.4 27 27 0 0 1 7.8-5.2l5-2.3c.5 0-1 8.8-2 11.4a26.1 26.1 0 0 1-5.8 9.4c-2.2 2-6.4 4-10.5 5.2-1.7.5-3.3 1-3.4 1.3-.3.4 3.7-.7 7.5-2 5.4-2 10.5-7.3 12.5-12.8 1-2.5 3-13 2.5-13.3 0 0-1.7.6-3.8 1.6l-3.6 1.7.3-3.4c.2-1.9.6-4.4 1-5.8.5-2.3.5-2.4-.5-2a32 32 0 0 0-10 6l-3 2.7.2-4.7c.2-3 0-4.3-.2-3.6-.3.6-.5 2-.5 3.3 0 2.5-1.2 7.5-1.7 7.5-.2 0-1-1.4-2-3.2-1.7-3.2-2.4-4-2.5-2.7 0 .3-.5-.7-1.2-2.4a22.5 22.5 0 0 0-2.6-5l-1.5-1.9-.8 1.6-.8 1.5-2-2.5c-1-1.4-2.4-2.7-2.9-3-.8-.5-1-.2-1.2 1.4zm3.5 1.5c2 2.4 6.2 10.4 6.7 12.7l.3 1.3-.9-1.3c-1.6-2.3-6-6.3-8.8-7.8-1.3-.8-1.3-1-1-2.7l.7-3.2c.2-.8.5-1.4.7-1.4a13 13 0 0 1 2.3 2.4zm7 5c1.5 3 1.8 5 1 6.2-.6 1-4.8-7.7-4.4-9.4.3-1 .5-1.2 1.2-.6.4.4 1.4 2 2.3 3.7zm-9 1.5a25 25 0 0 1 7.5 7.4c.4 1 .3 1.7-.5 3.3a24 24 0 0 0-1.6 11.8v2.9c-.7 0-4.4-4.7-6-7.6a38.3 38.3 0 0 1-5-19.8l.4-2 1 1c.7.6 2.6 2 4.3 3zm30.8 0a75.1 75.1 0 0 0-.7 5.2c-.3 2.7-.4 2.8-3.3 4.7a23.9 23.9 0 0 0-5.2 4.6c-1.2 1.5-2.3 2.7-2.5 2.5-.3 0-.6-1.3-.8-2.6a20.8 20.8 0 0 0-1-4c-.6-1.6-.6-2 .4-3.3 2.1-3 11.2-9.4 13.2-9.4.2 0 .1 1 0 2.3zM374.4 268c1.8 1.9 3 3.4 2.8 4 0 .7-.7.4-2.7-1.6a19 19 0 0 1-5.6-8.5c-.3-1.3-.1-1.2 1 .7a30 30 0 0 0 4.5 5.4zM369.4 280.5a31.6 31.6 0 0 0-11.6 17.4c0 1.6-1.8 3-1.5 2.8.2.7 1.8 0 2.5-2.5 1.3-4.7 5-13.2 9.9-16.6 1.4-1 3-1.8 3.2-1.8.2 0 .3 1.9.2 4.3 0 3.4-.4 5-1.4 6.9a28 28 0 0 1-8.5 9.3c-2.5 1.4-2.7 2-.4 1.1 2.5-1 8.4-7 10-10.3.8-1.7 1.4-3.3 1.4-3.7 0-.3.7-.9 1.5-1.2 1.8-.7 11-3 11.1-2.7.4.4-3.5 8.6-4.7 10.2-2 2.5-6.6 6-8.9 6.7-1 .3-3.4 1.6-5 1.9l-4.6.6-1.8 1 1.8-.3 5.3-.6c5.6-2 7.8-3.2 11.4-6l2.4-2 4.6.2 3.7.3-1.7 2.1a481.4 481.4 0 0 0-4 4.8 17.5 17.5 0 0 1-3.7 3.7 29.4 29.4 0 0 1-12.3 2.5c-4 0-4.2 0-6.2-1.8-2.1-1.8-3-2.2-3.2-1.4 0 .3-1.9 1-3.8 1.8-4 1.3-4.9 1-2.6-1.1.9-.8 1.8-.8 3.6-1 0 0 3.9 1 4 .1 0-.8-4-.7-4-.7-1.7.1-2.2 0-.7-1.8 1.6-1 2.3-3.1 1.4-2.7-2.2 2.7-3.7 3.8-7 7a18.3 18.3 0 0 1-8 3.6c-2.8.7-7.5 1.4-10.2 1.8-5.4.6-7.6 2-2.5 1 2.6-.5 6-.8 10.3-1.6 6.1-1.5 6.5-1.6 9.6-3.2 2.5-2.6 2.9-2.9 1.6-.8-.5 1.6.3 1.5 5.2-.3 3.8-1.5 4-1.5 5-.6.9 1 .8 1-1.1 1.8a124 124 0 0 1-20.4 5.6c-4.7 1-8.6 1.8-8.8 2-.4.4 5.6-.2 6.8-.8.6-.2 4.8-1.3 9.5-2.3 4.6-1.1 9.9-2.7 11.8-3.4 3.1-1.3 3.6-1.3 6.3-.8 3.4.6 9.1 0 13.2-1.3 3.2-1 5.4-2.9 8.6-7.4 1.3-1.9 3-3.8 3.7-4.3l1.3-1-4.4-.3c-2.5-.1-4.6-.4-4.7-.5a87 87 0 0 0 3-7.4l1.4-4.2-1.8.4-3.5.6-1.8.3.7-1.8c.4-1 .7-1.8.5-1.8l-1 1.7c-.8 2-1.8 2.4-1.5.6.2-.8 0-.6-.6.5a5.5 5.5 0 0 1-2.2 2.1l-2.2.8c-1 .5-1 .2-.8-3.4.1-2.4 0-3.9-.3-3.9s-1.7.8-3.1 1.8zM321.8 313.9c-3 .2-9 1.1-18.9 2.7l-10 1.6c-.4 0-.5.2-.4.4.1.2-.6.5-1.5.7-2.3.4-4.9 2.5-4.9 4 0 1.4 1.7 3 3 2.7.7-.2.7-.3-.2-.3-2.2-.1-3-2.8-1.4-4.3 1.5-1.3 8.2-3.3 12-3.6a212.6 212.6 0 0 0 23.6-3.6c3.3-.5 2.7-.7-1.3-.3zM313.4 318.8a80.2 80.2 0 0 0-17.6 4.6c-3.6 1.8-3.1 2 .7.2a32 32 0 0 1 6.8-2l9.3-1.8 8.7-1.7 2.8-.4h-2.3c-1.3 0-5 .4-8.4 1z"/><path fill="#fff" d="M353.6 305.4c-1.7 1-3.3 2.8-1.5 2.6 1.4-.2 6.4-1.7 6.8-2.7-2 .2-3.5-.3-5.3 0z"/><g stroke="#d4af37" stroke-width=".9"><path fill="#fff" d="M360.36 315.7c-.9.3-1.5.6-5.36.3-2.74-.18-6.13-.64-7.86-.7-3.34 0-3.34.17-9.23 4.15-4.16 2.8-9.52 2.57-13.5 1.75-2.4-1.17-3.46-1.34-3.1-.76.65 1.06 5.35 2.58 7.97 2.58 4.17 0 7.27-1.06 12.33-4.16 3.93-2.45 5.66-2.63 11.02-1.46 6.3 1.23 7.26.7 12.44-1.58-1.55 0-1.9 0-2.38.24.83-.94.9-1.87 1.07-2.46.24-.35-.47.12-1.25.7l-2.14 1.4z"/><path fill="#d91023" d="M352.2 314.2c-2.92-.42-4.88-.83-6.73-.6-2.02.18-3.45 1.17-5.9 2.63-2.38 1.58-4.58 2.7-4.82 2.7-.35 0-3.45.7-5.83.7-1.08 0-3.52-.77-5.12-1.35-3.4-1.23-4.65.82-1.08 2.28a19.9 19.53 0 0 0 9.3 1.05c2.97-.46 5.7-1.74 7.97-3.38 4.58-3.27 1.9-1.75 3.68-2.45 1.8-.76 3.52-.53 3.52-.53 2.38.12 7.08.88 9.47.93 4.28-.4 3.57-.4 5-1.16.47-.35 2.08-1.34 2.14-1.57.13-.24.85-1.58.73-1.64-4.47 2.97-6.67 2.97-12.33 2.4zM344.46 317.46l-4.23 2.34c-3.7 2.22-7.14 3.27-11.2 3.27-1.78.3-7.74-2.1-6.84-1.8.94 1.75 2.37 1.98 5.7 2.62 2.4.46 3.93.05 6.6-.48 3-.35 4.18-1.75 5.37-2.5a19.95 19.6 0 0 1 8.34-3.17c.6 0 2.8 1.23 5.3 1.76 2.45.53 3.64.65 6.2.24s5.18-2.45 7.63-4.03c-.36.12-1.2.12-2.4.18-3.56 2.05-9.5 2.8-12.6 1.4-3.23-.75-6.26-.58-7.87.18z"/></g><path fill="#00a854" d="M276.4 176.3a37.7 37.7 0 0 0-17.5 13.2c-1 1.2-1.8 2.2-1.9 2.1 0 0 .4-2.7 1.2-5.7.7-3 1.2-6.1 1.2-6.8 0-1.2-.1-1.1-2 1a41 41 0 0 0-7 13c-.7 2.2-1 4.7-1 9.3l.1 6.3-1.2-4.5c-1.3-4.7-2.6-8-4-9.6-.6-1-.8-1-1.3-.3-1 1.5-.3 7.8 1.4 12.4.1.6-.5-.2-1.4-1.7-1-1.6-2-2.7-2.3-2.6-.6.3-.6 5.3 0 7.4.4 1.4.4 1.4-1.3-.5-2.9-3.3-3.5-3.6-3.5-1.3 0 .9.3 2.4.7 3.4l.8 2-1.6.4c-2.3.4-3 1.1-3 3 0 2 1.4 6.8 2 7.2.9.5 1.1 0 1.8-3l.6-2.6 1.9 2.5a76.7 76.7 0 0 1 8.8 17.7c2.2 6.4 2.3 7.7.3 3.7a72 72 0 0 0-3.2-5.2c-2-2.8-12.6-13.9-13.3-13.9-.8 0 0 3.5 1.3 6.4.7 1.4 2.7 4.2 4.4 6.2l2.9 3.6c-.2 0-1.4-.8-2.7-1.7-2.6-2-5.3-3.5-5.6-3.2-.1.1.9 2.3 2.3 4.8l2.4 4.6-1.6-.3a6 6 0 0 0-2.8.3c-1 .6-1 1.1-1 3.5 0 3.3.8 6.7 1.5 6.7.8 0 2-3.2 2-4.9 0-1.3 0-1.3 2.6 1.1 3.7 3.6 8.6 9.6 13.4 16.6l4 6-4.7-3.6c-4.6-3.3-14-8.6-15.5-8.6-.4 0-.8.2-.8.5 0 .2 3 3.3 6.7 6.8l6.7 6.3-3.5-1.1a71 71 0 0 0-5.3-1.5c-1.7-.4-1.7-.3 2.2 3.3a68 68 0 0 0 8.7 6.7c2.6 1.6 4.3 2.8 3.7 2.7a35.1 35.1 0 0 0-11.5-1.9c0 .7 3.5 3.5 6 4.8 1.4.7 5 2 7.8 3 6 2.1 9.6 4 12.6 6.6l2 1.9-3.5-1.6c-4.1-1.8-15.3-5.5-16.5-5.5s3.8 5 8.8 8.7a80.2 80.2 0 0 0 19.5 9.7c5.2 1.7 9.6 2.6 18 3.6 3.6.5 7 1 7.8 1.3.6.3 5 1 10 1.5a99.7 99.7 0 0 1 30.7 7.2c1.7.8 3.5 1.1 7.2 1.3 5.5.3 5.8.1 4.2-2.9-1.3-2.5-3.7-3.9-8.7-4.8l-9.2-1.8a726.1 726.1 0 0 0-29-5c-14-2.3-20.1-4.7-26.7-10.7A43.3 43.3 0 0 1 269 263c.4-3 .6-5.5.5-5.6-.5-.4-3.7 6.3-4.6 9.4l-1 3.3.3-5.4c.3-8.3 3.5-16.1 8.2-20.6 1-1 1.8-2 1.8-2.2 0-.2-1 0-2.1.2-1.6.4-3 1.3-5 3.2l-2.6 2.7 1.3-2.4a27 27 0 0 1 8.3-9.6l2.9-1.9-1.7-.1c-3.4-.4-9.5 4-12.9 9.3-2 3-2 2.1 0-2.6a41.8 41.8 0 0 1 8-12.5c1.9-1.8 2.2-2.5 1.5-2.5-2.7 0-7.2 3.5-11 8.4-1 1.5-1 1.4.2-1.5a40 40 0 0 1 6.1-9.7c1.6-1.9 1.2-2.1-1.5-1a26.4 26.4 0 0 0-8.6 9.7c-1 2-1.8 3-1.7 2.5a61 61 0 0 0 .8-3.3 46.4 46.4 0 0 1 12.8-22.7c2.4-2.2 3-3.2 2.3-3.2-2 0-6.5 2.6-9.5 5.5-3.1 3-3.2 3-2 .9a57 57 0 0 1 18.3-18.6l4.3-3c0-.8-7.8 1.6-11.3 3.3a42.3 42.3 0 0 0-4.4 3.2c-2.5 2-2.7 2.1-1.8.8 1.7-2.4 7.6-7.7 10-8.9 1.7-.9 2-1.2 1-1.3-2.3-.4-8.9 3-14 7.4l-2.2 1.9 1.2-2a48 48 0 0 1 14.7-15.6 60.5 60.5 0 0 1 4.4-2.6c.3-.1.5-.4.4-.5-.2-.2-2 .2-4 1zm77 145a6 6 0 0 1 1.4 1.9c0 .2-1.1.4-2.5.4-2.5 0-2.6 0-2.6-1.4 0-2.6 1.6-2.9 3.8-.8z"/><path fill="#9eab05" d="M350.3 320.5c-1.3 1.2-1 3 .3 3.4 2.2.6 5 .4 5-.4s-3.3-3.8-4.1-3.8c-.3 0-.8.3-1.2.8z"/><path fill="#cab313" fill-opacity=".5" d="M279 175.5a31.6 31.6 0 0 0-15 8.5c-.3.3-3 2.8-4.8 5.2-.8 1-2 2.5-2.5 3.5 0-1 .8-3.8 1.5-7 .9-4 1.2-7 1.1-7.2-.5-.5-4.2 4.4-6 8a30.9 30.9 0 0 0-3.6 16.7v6.4l-1.3-4.8c-1.3-5-3.6-10.3-4.7-10.6-.4-.1-.8.6-1 1.7-.3 1.6 0 3.3 2.1 12 .2.6-.4 0-1.2-1.6-2-3.4-2.7-4.1-3.2-3.8l1.4 2a44 44 0 0 1 3 6 85 85 0 0 1 5.7 19.1c-.1.1-.5-.3-.7-1l-1.6-4.2a74 74 0 0 0-3-6.7 38.2 38.2 0 0 1-4.6-12.7l-.3-2.5c-.7.6-.4 3.5.6 6.8l.9 3c-.1 0-1.3-1.3-2.6-3-1.8-2.4-2.6-3-3-2.5-.4.8-.1 2.3 1 5.2l.7 2H236c-1 0-2.1.2-2.7.6-.8.6-.9 1-.4 3.7.6 3.3 1.4 5.8 2 5.8 1.1 0 1-1 1.6-3.9l.6-1.8c.2.3.5.7 1 1.1a78 78 0 0 1 10 19.4 111 111 0 0 1 3.8 16c0 .2-.7-1.7-1.3-4.2-2-8.7-5-13.8-14-22.6 0 0-3-3.7-5.5-5.2 0 2.1.4 2.5.4 2.5.7 3.1 2.2 5.9 7 11.4a43 43 0 0 1 3.8 5l-2.7-2.2c-2.7-2.4-7-5.1-7.3-4.7-.2.1.8 2.3 2.2 5 1.8 3.2 2.3 4.5 1.7 4.3-2-.8-2.7-.8-4 0-1.3.9-1.3 1-1 4.4.1 2 .6 4 .9 4.7.6 1 .6 1 1.2-.2.3-.7.8-2.1 1-3.2.2-1 .5-1.9.6-1.9a48 48 0 0 1 4 4 80.9 80.9 0 0 0 1.8 2.1 332 332 0 0 1 13.6 17.8l1 1.8-1.7-1.3a74.7 74.7 0 0 0-19-11.7c-1-.3-1.2 0-.7.6 2.4 3.3 9.6 9.4 11.6 11 1.9 1.6 1.8 2.2 1.8 2.3-.1 0-1.4-.6-3.7-1.3-5.8-2-7.3-2.1-6.6-1.2a4 4 0 0 0 2.1.8 43 43 0 0 1 15.8 6.8c3.4 2.3 11.5 10 12.6 12 .6 1.2.4 1.1-1.7-.6a43.7 43.7 0 0 0-11-6.2c-.3.1-2.1-.2-4-.7-2-.5-5-1.1-6.8-1.3l-3-.4 1.8 1.7c2.4 2.1 6.3 4 13 6.3a58.6 58.6 0 0 1 7.3 3c2.5 1.5 7.6 5.5 7.3 5.7a123.6 123.6 0 0 0-20-7.1c-1.2-.3-.8.2 2.3 3.3a75.9 75.9 0 0 0 7.9 6.3c10.9 7.2 20.8 10.3 39.2 12.5 3 .3 5.1.8 5 1-.2.3 4.4 1 9.4 1.5 13.4 1.6 21.8 3.4 29.4 6.5a23.4 23.4 0 0 0 8.9 2c3.4.2 4.5.2 4.5-.3 0-1.2-1.4-3.4-3.2-5-1.5-1.3-2.6-2-8.6-3.1-3.8-.6-7.3-1.4-7.7-1.7-.5-.3-8.1-1.3-16.8-2.7-19.1-3-25-4.5-30-7a40.3 40.3 0 0 1-22-34.7 56.1 56.1 0 0 1 .3-9.2c.3-2 .5-3.6.4-3.7-.5-.5-4.4 7.3-5 10.3l-.3 2-.2-3.6a33.9 33.9 0 0 1 6.8-20.6s2.9-2.8 3.3-3.6v-.1c-2.1-.7-4.3 1-7.3 3.6-1.8 1.8-2 2.3-2.2 2.2.2-1.4 5.5-9.5 6.6-9.5.2 0 1.5-1.5 2-2 .6-1.5-3.2 2-5.9 5.7-6 8-7.4 16.1-7 26.9a36 36 0 0 1-.3 5.9c-.2 0-1.8-3.9-2.5-6.4-2-6.3 1-19.4 6.1-26.1l3.3-4.1c.8-1.4-3.5 3.4-5 5.7-.4.7-.8 1.2-1 1l.7-2.2a45.4 45.4 0 0 1 9.3-15.7c1.6-1.7 1.6-1.7.3-1.3-3 .9-5.8 3.2-8.7 6.6l-2.2 2.6c.3-1.3 3-7 5.2-10.1 1.4-1.9 2.7-3.2 2.7-3.6 0-.4-1.5 0-3.6 1.6a28 28 0 0 0-7.6 9c-1.3 2.6-1 1.9-1.5 2.3a43 43 0 0 1 12.8-25.9c2.8-2.9 3.4-3.7 2.4-3.4-3 1-6.3 3-9.2 5.9-1.7 1.7-2.4 2.2-2.4 2s.8-1.7 2.5-4.3a53.8 53.8 0 0 1 14.1-14.7c2.7-1.8 6.8-3.8 6.3-4a.5.5 0 0 0-.2-.1c.3-.5-1.1-.2-4.8 1a37.6 37.6 0 0 0-11.6 6.3c-1.5 1.4-1.2.3 2.6-3.5 2-2 5-4.5 6.6-5.3 2.6-1.6 2.4-2 .7-1.6a32 32 0 0 0-13.4 7.7l-.3.2c-1.2.7-2.3 2.3-2 1.6s.8-1.3 2.1-3.5a46.8 46.8 0 0 1 16.8-15.8c1.7-1 1.8-1.6.6-1.4zm-38.8 27zm34.8-25.1h.2a73 73 0 0 0-12 11.6 60 60 0 0 0-7.3 13.2c-1 2.4-1.6 4-1.6 3.6a85.6 85.6 0 0 1 2.3-12l1.3-1.8a42 42 0 0 1 2.6-3.5c1.1-1.4 4.7-5.1 4.6-5.2l1.2-1c3.4-2.4 7.8-5 8.7-5zm-16.9 2.7h.1c.1.4-.5 4.8-1.7 10a230.5 230.5 0 0 0-4.6 25c-.4 3.7-.5 4-.8 2.4-.3-1-.6-6-.8-11-.3-10 0-12.8 2.6-18.4a29 29 0 0 1 5.2-8zm13.9 8.4l-3 3a57 57 0 0 0-15.9 27.3l-1 3.5.4-3.3a44.8 44.8 0 0 1 3.5-14.8c1.1-3 2.2-5.5 4.5-7.8.4-.5 1.5-1.4 1.7-1.8l2.8-2.1c2-1.7 6.2-4 7-4zm6 2.5c.3 0 .4 0 .4.2l-3 2.1a70 70 0 0 0-13.8 14 83.8 83.8 0 0 0-7.8 15.5c-1.5 4.2-1.4 2 .2-4a68.6 68.6 0 0 1 7.4-17.3l1.5-2c.7-.8.9-1.2 1.2-1 .2.1 1.4-.6 2.6-1.6 2.7-2.3 9.7-5.8 11.4-5.9zm-34.4 3.9c.1-.1.3.1.6.6a38 38 0 0 1 2.2 5.2A93.8 93.8 0 0 1 251 226a82.5 82.5 0 0 0-2.8-9.6c-4.1-12.4-5.5-18.4-5-20.6l.4-1zm26.5 10.9s-1 1.2-2.5 2.6a49 49 0 0 0-13.1 27.7c-.5 2.8-1 5.3-1.3 5.5-.2.2-.6-1-.8-2.5a41.3 41.3 0 0 1 4.2-20.2l1.3-2.9c.4-.3.7-1 1.3-1.8 2.3-2.6 6.1-6.3 8.6-7.5l2.3-1zm-33.4 1.2l1 1.3a84.5 84.5 0 0 1 3.2 4.3c2.2 3.2 7.8 14.4 8.4 16.6.2.7-.5-.4-1.6-2.4a68.8 68.8 0 0 0-5.3-8c-4.2-5.6-5.7-8.2-5.7-10.2V207zm-1.1 7.4h.5c1.5 0 4.7 2.8 7.5 6.6a69 69 0 0 1 8.8 21.4c.9 4 2.4 14.2 2.4 16.5v1.6l-.9-1.5c-.4-.9-1.1-3.5-1.5-5.8a101.1 101.1 0 0 0-5.3-19c-2.3-5.8-7.1-14-9.3-16a2.5 2.5 0 0 0-.7-.6 7 7 0 0 0-1.5-1.5c-1.1-1-1.2-1.5 0-1.7zm-2.6.9l1.3.8c1.7 1.2 2.3 1.7 2 3.2-.3 1.5-.5 3-.8 3.4-.4.8-.8.2-1.2-1.4l-1-4-.3-2zm33.8 6.8c.2 0 .2.2 0 .6-.5.4-1.7 1.9-2.3 2.7a68.9 68.9 0 0 0-9 23.7c-.5 3.7-1.2 2-1.2-3a30.1 30.1 0 0 1 8.1-20.5c2-2.1 4-3.5 4.4-3.5zm-34.3 3.2c.5 0 2 1.5 5.4 5a72 72 0 0 1 7.6 8.7c1.9 3.3 4 8.2 4.5 10.7.2 1.4-.3.8-3.2-3.2a174.5 174.5 0 0 0-6.2-7.9c-5.5-6.4-7.6-9.5-8.2-12.7-.1-.4-.1-.7.1-.6zm38 1.3c.2 0-1 1.6-2.6 3.5a52.3 52.3 0 0 0-4.7 7c-2 4-5.1 13.3-6.2 19-1.1 6-1.2 5.9-1-.7.5-12.6 5-22.8 12-27.3l2.6-1.5zm-37.5 9.1l1.6.8c.9.5 3 2 4.6 3.3 1.7 1.5 3.2 2.4 3.4 2.2.3-.2.4-.1.2.2a16 16 0 0 0 3 4.8 68.3 68.3 0 0 1 9 16.5c.5 1.7 1 3 .8 3.2l-3.4-5.2a61.1 61.1 0 0 0-11.8-14.8 19.6 19.6 0 0 1-5-6.5l-2.4-4.5zm40.6 6.7c-.9.8-2.8 3-2.8 3a31.7 31.7 0 0 0-6.6 12.7 75 75 0 0 0 1.7 28.5 48 48 0 0 1-4-11c-.9-4.5-.8-14.9 0-18.4 1-4 3.2-8.6 5.2-10.8 1.7-2 5-4 6.5-4zm-39.4 1.8c.8 0 1.7.4 3.1 1.3 5.5 3.5 12.5 12.6 20.5 27 6.4 11.5 10.1 20.2 4.9 11.5a265.6 265.6 0 0 0-25.2-34.4l-.1-.2a20.3 20.3 0 0 0-3.6-3c-2-1.2-2.1-1.7-.4-2.1l.8-.1zm-2 2.3c.5 0 1 .3 1.4.7.6.8.3 4.7-.5 5.1-.6.4-.8-.1-1.3-3.1-.3-2.2-.2-2.7.5-2.7zm36.1 13.7v6a43 43 0 0 0 14 34.7c5.9 5.2 12.5 8 23 9.8 3.5.6 6.7 1 7 1.3.5.1 5.3.6 5 1.1-.1.2.3.3 1 .2 2.1-.4 8.5 1 10.2 1a186 186 0 0 1 23.7 5c1.4.6 4.4 4.1 4.4 5.2 0 .3-1.6.4-4.4.2a21 21 0 0 1-8.5-2.2c-6.7-3-16-5-27.2-6-5.8-.5-24.7-3.8-30.1-5a68.2 68.2 0 0 1-17.8-6 52 52 0 0 1-14.4-9.5l-3.3-3.2 2.8.8c8.3 2.4 15 5.4 23.4 10.7 6.7 4 8.9 5.2 12.5 6 3.3 1 4.3 1 4.3.4 0-.2-1.7-.9-3.8-1.5a37.2 37.2 0 0 1-24.6-41.3 54 54 0 0 1 2.8-7.7zM235 262l.7.2c3 .5 15.2 8.2 19.4 12.3a30.4 30.4 0 0 1 4.3 5.8l1.6 3-2.8-2.2a66.5 66.5 0 0 0-6.4-4.4 86 86 0 0 1-10-8.5L235 262zm8.4 21.4l1.1.2c1 .1 3.6.7 5.9 1.2 8 1.9 17.8 8 22.8 14.4l2.2 2.9-2.3-1.2c-1.2-.6-2.2-1.3-2-1.5.2-.5-5-4.8-7.7-6.2a92.8 92.8 0 0 0-8.8-3.6c-6.2-2.3-10-4.1-11.2-5.6-.3-.4-.4-.6 0-.6zM272.2 234.2c-1.1.4-2.9 2-4 2.9-2.2 1.6-2.5 2.2-.4.7 1.6-1 4.3-3 6.6-3.4.3 0-.9 1.2-1.5 1.8-.9 1-.6 1 1.3-.3l2.4-1.8c0-.4-2.4-.6-4.4.1zm-34.7 38c0 1.2 15.8 12.9 16.5 12.1.1 0-2-1.5-4.6-3.1a65 65 0 0 1-7.8-5.8c-1.7-1.6-3.9-4-4.1-3.3z"/><g stroke="#d4af37" stroke-width=".9"><path fill="#fff" d="M288 315.65a18.46 18.12 0 0 1-9.76.4 12.5 12.28 0 0 0-3.7 0l1.68 1.06c.77.48.47.36 1.84 1-.24.24-.35.35-1.43.76 1.43.3 3.22.47 4.95.35a22.03 21.63 0 0 0 5.18-.8 28 27.48 0 0 1 5.36-1.06c.7 0 3.2.76 5.6 2 5.1 2.74 8.7 3.5 12.26 3.5 2.44 0 5-.58 7.92-2.46 2.14-1.34.36-1.28-1.8-.4-2.96 1.16-9.04 1.75-16.06-1.88a26.44 25.96 0 0 0-8.7-3.27c-.24 0-1.78.35-3.33.82z"/><path fill="#d91023" d="M272.35 314c.83.7.7.9 2.26 2.06 2.1.23 6.32.64 7.87.64 1.43 0 4.05-.23 5.95-.7 3.7-.76 5.48-.6 12.2 2.34 7.8 3.97 12.22 3.27 16.27 1.34 5.6-2.1.1-1.17-1.92-1.75-.65.17-1.5 1.05-3.1 1.58-2.26.83-3.45.83-6.13-.58-1.72-.82-3.2-1.17-4.76-2.04-1.5-.88-1.86-.76-4.36-1.58l-3.7-.7-5.6-.3a26.2 25.73 0 0 1-12.8-.76c-3.2-1-3.8-.8-2.2.47zM286.88 318.28a20.84 20.46 0 0 1-10.25.58l-2.32.76c-2.97 1-2.97 1.06-1.72 1.4.78.24 3.76.42 6.73.36 5.07 0 5.55-.06 8.35-1.4a14.3 14.03 0 0 1 4.17-1.47c.6 0 2.68 1.18 4.58 2.18 5.24 2.7 7.2 3.5 11.56 3.45 4.34 0 9.94-3.1 10.65-4.1a16.67 16.37 0 0 1-10.3 2.8 24.4 23.97 0 0 1-11.78-4.08c-3.45-1.82-4.64-1.87-9.58-.47z"/><path fill="#fff" d="M302.54 302.63c1-.83 1.64-.8 2.7.54 3.1 3.36 8.18 5.96 14.7 7.5 2.54.43 2.9.78 1.3 1.18-1.82.45-8.75-1.07-12.04-2.62-3.1-1.42-5.56-3.18-7.3-5.2-.16-.34.06-.92.64-1.4z"/><path fill="#d91023" d="M299.78 304.66c.32-.17 2.25-.36 3.36.67 2.9 2.7 7.33 4.76 12.86 5.98 3.92.78 4.64 1.42 1.5 1.62-4.5.35-12.96-3.7-15.46-5.48-2.5-1.8-3.1-2.18-2.26-2.78z"/><path fill="#ed1c24" d="M304.2 301.25l1.1-.66 3.2 1.13c1.52 1.9 5.97 4.8 9.95 6.5 1.46.56 2.7 1.25 3.64 2.06.3.63.32.68-1.75.37-6.2-1.43-11.05-3.88-14-7.06-.83-.9-2.78-1.57-2.15-2.35z"/><path fill="#fff" d="M338.78 303.46c-.96-.9-1.6-.9-2.73.37-3.3 3.16-8.56 5.43-15.16 6.56-2.58.26-2.97.58-1.37 1.08 1.78.57 8.78-.5 12.17-1.85 3.18-1.22 5.76-2.82 7.62-4.72.2-.32 0-.92-.54-1.44z"/><path fill="#d91023" d="M340.3 306.15c-.2-.06-1.15-.95-2.3-.03-3.07 2.5-7.62 4.28-13.22 5.16-5.08.46-6.47 1.05-1.6 1.5 4.47.64 13.17-2.86 15.78-4.5 2.6-1.62 2.2-1.46 1.3-2.1z"/><path fill="#ed1c24" d="M337.2 301.98l-1.04-.73-3.26.94c-1.65 1.78-6.3 4.4-10.37 5.86-1.5.45-2.76 1.06-3.76 1.8-.35.63-.38.67 1.7.5 6.3-1.04 11.3-3.17 14.43-6.16.9-.85 2.9-1.4 2.3-2.22z"/><path fill="#fff" d="M332.63 301.64c-4.17 1.18-7.8 3.78-10.2 7.34-1.23 1.7-2.45 2.5-1.63 2.87.88.5 1.75-.7 3.4-2.23 4.3-3.96 7.64-5.6 12.1-5.47l3.58.12-1.03-1.5c-1.2-1.8-2.67-2-6.22-1.13zm-30.1.45c-.74.8-.57 1.14 1.5 1.5 5.3 1.05 10.22 3.5 14.2 7.12 1.3 1.44 1.9 1.58 1.94.47.04-1.18-4.07-5.1-7.05-6.67-2.58-1.48-7.17-3.15-8.9-3.2-.6-.02-1.2.25-1.7.76z"/><path fill="#d91023" d="M332.04 299.75c-1.1.35-2.2.77-3.26 1.24-2.28 1.5-4.33 3.33-6.07 5.4l-1.86 2.4c-.8 1.16-.95 1.85-.54 1.92.36.13 1.2-.37 2.14-1.5 3.73-4.8 7.13-6.92 12.05-7.76 2.5-.4 2.86-.37 3.72.53.7.6-.17-.13-.34-.6-.26-1.07-1.02-1.62-2.6-1.96-1.1-.12-2.2 0-3.24.3zM304.23 301.1c-.13.22 1.05.73 2.65 1.07 4.18 1.07 8 3.2 11.12 6.14 2 2.12 3.08 2.33 2.37.44-.8-2.66-8.25-6.7-11.2-7.67-2.94-1.03-4.5-.6-4.94.02zm28.8 3.24c-3.05 1.04-5.84 2.68-8.2 4.83-2.46 2.2-3.58 3.57-2.63 3.6.18 0 1.65-1.06 2.62-1.84 4.28-3.38 11.97-5.12 15.26-3.8 1.65.65.93-1.13-.15-2.8-.62-1.02-4.75-.56-6.85.13zm-31.55-1.1l-2.08 1.73 2.96.62c2.96.44 8.43 2.6 12.06 4.7 1.57 1 3.4 1.8 3.93 1.83 1 .03 1.07.03-.02-1.23-3.9-3.65-8.78-6.15-14.06-7.23-1.6-.3-2-1.12-2.85-.44zM322.12 311.66a20 19.64 0 0 0-.6 8.24c.96-.1 1.62-.1 3.16-.4.18-1.3.42-2.75.36-4.33.18-2.16 0-1.05 1.25-2.8-1.38-.9-1.8-.94-4.18-.7z"/><path fill="#fff" d="M317.18 315.3c0 2.44.18 3.03.18 4.2 1.37.17 4.4.58 4.17.1v-4.67l.6-3.2-2.2-.36-1.92.23-.82 3.7z"/><path fill="#d91023" d="M314.08 315.4c.06 2-.3 2.63-.05 3.8.6.18 2.97.12 3.75.3-.12-2.52-.12-.3-.36-3.63l.7-4.27-2.13.18s-1.32-.4-2.2-.4c.76 1.33.28 4.08.28 4.08z"/></g></svg>